G04 #@! TF.FileFunction,Legend,Bot*
%FSLAX46Y46*%
G04 Gerber Fmt 4.6, Leading zero omitted, Abs format (unit mm)*
G04 Created by KiCad (PCBNEW 4.0.6) date 01/08/18 11:05:27*
%MOMM*%
%LPD*%
G01*
G04 APERTURE LIST*
%ADD10C,0.100000*%
%ADD11C,0.150000*%
%ADD12C,0.120000*%
%ADD13C,0.500000*%
G04 APERTURE END LIST*
D10*
D11*
X220197055Y-69694670D02*
X227980067Y-76225392D01*
X219380715Y-70667546D02*
X220197055Y-69694670D01*
X219380715Y-70667546D02*
X227163727Y-77198268D01*
X227163727Y-77198268D02*
X227980067Y-76225392D01*
X235953531Y-67901073D02*
G75*
G03X235953531Y-67901073I-7620000J0D01*
G01*
D12*
X226250000Y-103800000D02*
X226250000Y-104800000D01*
X224550000Y-104800000D02*
X224550000Y-103800000D01*
X228170000Y-105490000D02*
X230090000Y-105490000D01*
X235030000Y-105490000D02*
X233110000Y-105490000D01*
X227410000Y-97110000D02*
X230090000Y-97110000D01*
X235790000Y-97110000D02*
X233110000Y-97110000D01*
X227410000Y-97110000D02*
X227410000Y-104730000D01*
X227410000Y-104730000D02*
X228170000Y-105490000D01*
X235030000Y-105490000D02*
X235790000Y-104730000D01*
X235790000Y-104730000D02*
X235790000Y-97110000D01*
X239800000Y-93500000D02*
X239800000Y-94500000D01*
X238100000Y-94500000D02*
X238100000Y-93500000D01*
X239800000Y-79000000D02*
X239800000Y-80000000D01*
X238100000Y-80000000D02*
X238100000Y-79000000D01*
X197900000Y-77550000D02*
X196900000Y-77550000D01*
X196900000Y-75850000D02*
X197900000Y-75850000D01*
X210500000Y-73350000D02*
X211500000Y-73350000D01*
X211500000Y-75050000D02*
X210500000Y-75050000D01*
X205290000Y-107540000D02*
X202610000Y-107540000D01*
X196910000Y-107540000D02*
X199590000Y-107540000D01*
X197670000Y-99160000D02*
X199590000Y-99160000D01*
X204530000Y-99160000D02*
X202610000Y-99160000D01*
X205290000Y-107540000D02*
X205290000Y-99920000D01*
X205290000Y-99920000D02*
X204530000Y-99160000D01*
X197670000Y-99160000D02*
X196910000Y-99920000D01*
X196910000Y-99920000D02*
X196910000Y-107540000D01*
X224550000Y-99500000D02*
X224550000Y-98500000D01*
X226250000Y-98500000D02*
X226250000Y-99500000D01*
X208800000Y-78420000D02*
X206800000Y-78420000D01*
X206800000Y-76380000D02*
X208800000Y-76380000D01*
X239800000Y-64250000D02*
X239800000Y-65250000D01*
X238100000Y-65250000D02*
X238100000Y-64250000D01*
X200650000Y-81400000D02*
X200650000Y-82400000D01*
X198950000Y-82400000D02*
X198950000Y-81400000D01*
X203050000Y-81300000D02*
X203050000Y-82300000D01*
X201350000Y-82300000D02*
X201350000Y-81300000D01*
X235350000Y-84000000D02*
X235350000Y-85000000D01*
X233650000Y-85000000D02*
X233650000Y-84000000D01*
X229550000Y-84000000D02*
X229550000Y-85000000D01*
X227850000Y-85000000D02*
X227850000Y-84000000D01*
X225436653Y-78869047D02*
X224670608Y-78226259D01*
X225763347Y-76923983D02*
X226529392Y-77566771D01*
X208300000Y-80650000D02*
X207300000Y-80650000D01*
X207300000Y-78950000D02*
X208300000Y-78950000D01*
X222800000Y-81950000D02*
X221800000Y-81950000D01*
X221800000Y-80250000D02*
X222800000Y-80250000D01*
X227600000Y-111550000D02*
X227600000Y-108250000D01*
X227600000Y-108250000D02*
X233000000Y-108250000D01*
X227600000Y-111550000D02*
X233000000Y-111550000D01*
X195800000Y-113400000D02*
X194400000Y-113400000D01*
X194400000Y-113400000D02*
X194400000Y-110600000D01*
X195800000Y-113400000D02*
X195800000Y-110600000D01*
X216200000Y-105750000D02*
X216200000Y-110050000D01*
X216200000Y-110050000D02*
X208900000Y-110050000D01*
X216200000Y-105750000D02*
X208900000Y-105750000D01*
X201750000Y-94050000D02*
X201750000Y-95450000D01*
X201750000Y-95450000D02*
X198950000Y-95450000D01*
X201750000Y-94050000D02*
X198950000Y-94050000D01*
D11*
X205475000Y-81250000D02*
X209925000Y-81250000D01*
X203950000Y-88150000D02*
X209925000Y-88150000D01*
X248500500Y-105999120D02*
X248500500Y-115000880D01*
X252000620Y-105999120D02*
X252000620Y-115000880D01*
X252000620Y-115000880D02*
X237499760Y-115000880D01*
X237499760Y-115000880D02*
X237499760Y-105999120D01*
X237499760Y-105999120D02*
X252000620Y-105999120D01*
D12*
X243650000Y-58010000D02*
X243650000Y-54410000D01*
X244377205Y-58534184D02*
G75*
G02X243650000Y-58010000I1122795J2324184D01*
G01*
X246598807Y-58566400D02*
G75*
G03X248100000Y-56210000I-1098807J2356400D01*
G01*
X246598807Y-53853600D02*
G75*
G02X248100000Y-56210000I-1098807J-2356400D01*
G01*
X244377205Y-53885816D02*
G75*
G03X243650000Y-54410000I1122795J-2324184D01*
G01*
D11*
X207400000Y-103700000D02*
X215300000Y-103700000D01*
X207400000Y-96700000D02*
X215300000Y-96700000D01*
D12*
X176400000Y-82000000D02*
G75*
G03X176400000Y-82000000I-6100000J0D01*
G01*
D11*
X187849000Y-107949160D02*
X187849000Y-107900900D01*
X188550040Y-105150180D02*
X187849000Y-105150180D01*
X187849000Y-105150180D02*
X187849000Y-105399100D01*
X187849000Y-107949160D02*
X187849000Y-108149820D01*
X187849000Y-108149820D02*
X188550040Y-108149820D01*
X187749760Y-92299160D02*
X187749760Y-92250900D01*
X188450800Y-89500180D02*
X187749760Y-89500180D01*
X187749760Y-89500180D02*
X187749760Y-89749100D01*
X187749760Y-92299160D02*
X187749760Y-92499820D01*
X187749760Y-92499820D02*
X188450800Y-92499820D01*
X187749000Y-97549160D02*
X187749000Y-97500900D01*
X188450040Y-94750180D02*
X187749000Y-94750180D01*
X187749000Y-94750180D02*
X187749000Y-94999100D01*
X187749000Y-97549160D02*
X187749000Y-97749820D01*
X187749000Y-97749820D02*
X188450040Y-97749820D01*
X187849000Y-102749160D02*
X187849000Y-102700900D01*
X188550040Y-99950180D02*
X187849000Y-99950180D01*
X187849000Y-99950180D02*
X187849000Y-100199100D01*
X187849000Y-102749160D02*
X187849000Y-102949820D01*
X187849000Y-102949820D02*
X188550040Y-102949820D01*
X178949760Y-87099160D02*
X178949760Y-87050900D01*
X179650800Y-84300180D02*
X178949760Y-84300180D01*
X178949760Y-84300180D02*
X178949760Y-84549100D01*
X178949760Y-87099160D02*
X178949760Y-87299820D01*
X178949760Y-87299820D02*
X179650800Y-87299820D01*
X178949760Y-81849160D02*
X178949760Y-81800900D01*
X179650800Y-79050180D02*
X178949760Y-79050180D01*
X178949760Y-79050180D02*
X178949760Y-79299100D01*
X178949760Y-81849160D02*
X178949760Y-82049820D01*
X178949760Y-82049820D02*
X179650800Y-82049820D01*
D12*
X219700000Y-109670000D02*
X221700000Y-109670000D01*
X221700000Y-107530000D02*
X219700000Y-107530000D01*
X194220000Y-106150000D02*
X194220000Y-107350000D01*
X195980000Y-107350000D02*
X195980000Y-106150000D01*
X218100000Y-95980000D02*
X219300000Y-95980000D01*
X219300000Y-94220000D02*
X218100000Y-94220000D01*
X223600000Y-95980000D02*
X224800000Y-95980000D01*
X224800000Y-94220000D02*
X223600000Y-94220000D01*
X185750000Y-64180000D02*
X186950000Y-64180000D01*
X186950000Y-62420000D02*
X185750000Y-62420000D01*
X198920000Y-86500000D02*
X198920000Y-87700000D01*
X200680000Y-87700000D02*
X200680000Y-86500000D01*
X185750000Y-66380000D02*
X186950000Y-66380000D01*
X186950000Y-64620000D02*
X185750000Y-64620000D01*
X185750000Y-61980000D02*
X186950000Y-61980000D01*
X186950000Y-60220000D02*
X185750000Y-60220000D01*
X184320000Y-106150000D02*
X184320000Y-107350000D01*
X186080000Y-107350000D02*
X186080000Y-106150000D01*
X185750000Y-77380000D02*
X186950000Y-77380000D01*
X186950000Y-75620000D02*
X185750000Y-75620000D01*
X184320000Y-90400000D02*
X184320000Y-91600000D01*
X186080000Y-91600000D02*
X186080000Y-90400000D01*
X184320000Y-95650000D02*
X184320000Y-96850000D01*
X186080000Y-96850000D02*
X186080000Y-95650000D01*
X184320000Y-100900000D02*
X184320000Y-102100000D01*
X186080000Y-102100000D02*
X186080000Y-100900000D01*
X200800000Y-91220000D02*
X199600000Y-91220000D01*
X199600000Y-92980000D02*
X200800000Y-92980000D01*
X185750000Y-75180000D02*
X186950000Y-75180000D01*
X186950000Y-73420000D02*
X185750000Y-73420000D01*
X182120000Y-106150000D02*
X182120000Y-107350000D01*
X183880000Y-107350000D02*
X183880000Y-106150000D01*
X182120000Y-90400000D02*
X182120000Y-91600000D01*
X183880000Y-91600000D02*
X183880000Y-90400000D01*
X182120000Y-95650000D02*
X182120000Y-96850000D01*
X183880000Y-96850000D02*
X183880000Y-95650000D01*
X182120000Y-100900000D02*
X182120000Y-102100000D01*
X183880000Y-102100000D02*
X183880000Y-100900000D01*
X150150000Y-77130000D02*
X151350000Y-77130000D01*
X151350000Y-75370000D02*
X150150000Y-75370000D01*
X191220000Y-106150000D02*
X191220000Y-107350000D01*
X192980000Y-107350000D02*
X192980000Y-106150000D01*
X191020000Y-90400000D02*
X191020000Y-91600000D01*
X192780000Y-91600000D02*
X192780000Y-90400000D01*
X191120000Y-95650000D02*
X191120000Y-96850000D01*
X192880000Y-96850000D02*
X192880000Y-95650000D01*
X191170000Y-100900000D02*
X191170000Y-102100000D01*
X192930000Y-102100000D02*
X192930000Y-100900000D01*
X185750000Y-68580000D02*
X186950000Y-68580000D01*
X186950000Y-66820000D02*
X185750000Y-66820000D01*
X185750000Y-70780000D02*
X186950000Y-70780000D01*
X186950000Y-69020000D02*
X185750000Y-69020000D01*
X238070000Y-99150000D02*
X238070000Y-100350000D01*
X239830000Y-100350000D02*
X239830000Y-99150000D01*
X185750000Y-72980000D02*
X186950000Y-72980000D01*
X186950000Y-71220000D02*
X185750000Y-71220000D01*
X238070000Y-84650000D02*
X238070000Y-85850000D01*
X239830000Y-85850000D02*
X239830000Y-84650000D01*
X187100000Y-83920000D02*
X185900000Y-83920000D01*
X185900000Y-85680000D02*
X187100000Y-85680000D01*
X238070000Y-70150000D02*
X238070000Y-71350000D01*
X239830000Y-71350000D02*
X239830000Y-70150000D01*
X217420000Y-78000000D02*
X217420000Y-79200000D01*
X219180000Y-79200000D02*
X219180000Y-78000000D01*
X185800000Y-80480000D02*
X187000000Y-80480000D01*
X187000000Y-78720000D02*
X185800000Y-78720000D01*
X215020000Y-78000000D02*
X215020000Y-79200000D01*
X216780000Y-79200000D02*
X216780000Y-78000000D01*
X212720000Y-78000000D02*
X212720000Y-79200000D01*
X214480000Y-79200000D02*
X214480000Y-78000000D01*
X240620000Y-54400000D02*
X240620000Y-55600000D01*
X242380000Y-55600000D02*
X242380000Y-54400000D01*
D13*
X241200000Y-92000000D02*
X248500000Y-92000000D01*
X241250000Y-102000000D02*
X241200000Y-92000000D01*
X248500000Y-102000000D02*
X241250000Y-102000000D01*
X248500000Y-92000000D02*
X248500000Y-102000000D01*
X241200000Y-77375000D02*
X248500000Y-77375000D01*
X241250000Y-87375000D02*
X241200000Y-77375000D01*
X248500000Y-87375000D02*
X241250000Y-87375000D01*
X248500000Y-77375000D02*
X248500000Y-87375000D01*
X241200000Y-62750000D02*
X248500000Y-62750000D01*
X241250000Y-72750000D02*
X241200000Y-62750000D01*
X248500000Y-72750000D02*
X241250000Y-72750000D01*
X248500000Y-62750000D02*
X248500000Y-72750000D01*
D11*
X201175000Y-63350000D02*
X201175000Y-63600000D01*
X193425000Y-63350000D02*
X193425000Y-63695000D01*
X193425000Y-75250000D02*
X193425000Y-74905000D01*
X201175000Y-75250000D02*
X201175000Y-74905000D01*
X201175000Y-63350000D02*
X193425000Y-63350000D01*
X201175000Y-75250000D02*
X193425000Y-75250000D01*
X201175000Y-63600000D02*
X203000000Y-63600000D01*
X218025000Y-100425000D02*
X218075000Y-100425000D01*
X218025000Y-104575000D02*
X218170000Y-104575000D01*
X223175000Y-104575000D02*
X223030000Y-104575000D01*
X223175000Y-100425000D02*
X223030000Y-100425000D01*
X218025000Y-100425000D02*
X218025000Y-104575000D01*
X223175000Y-100425000D02*
X223175000Y-104575000D01*
X218075000Y-100425000D02*
X218075000Y-99025000D01*
X208225000Y-72650000D02*
X208225000Y-72375000D01*
X213775000Y-72650000D02*
X213775000Y-72295000D01*
X213775000Y-62100000D02*
X213775000Y-62455000D01*
X208225000Y-62100000D02*
X208225000Y-62455000D01*
X208225000Y-72650000D02*
X213775000Y-72650000D01*
X208225000Y-62100000D02*
X213775000Y-62100000D01*
X208225000Y-72375000D02*
X206700000Y-72375000D01*
X224275000Y-82325000D02*
X224275000Y-82375000D01*
X220125000Y-82325000D02*
X220125000Y-82470000D01*
X220125000Y-87475000D02*
X220125000Y-87330000D01*
X224275000Y-87475000D02*
X224275000Y-87330000D01*
X224275000Y-82325000D02*
X220125000Y-82325000D01*
X224275000Y-87475000D02*
X220125000Y-87475000D01*
X224275000Y-82375000D02*
X225675000Y-82375000D01*
D12*
X194250000Y-102100000D02*
X194250000Y-101100000D01*
X195950000Y-101100000D02*
X195950000Y-102100000D01*
D11*
X178949760Y-107877732D02*
X178949760Y-107829472D01*
X179650800Y-105078752D02*
X178949760Y-105078752D01*
X178949760Y-105078752D02*
X178949760Y-105327672D01*
X178949760Y-107877732D02*
X178949760Y-108078392D01*
X178949760Y-108078392D02*
X179650800Y-108078392D01*
X178949760Y-92227732D02*
X178949760Y-92179472D01*
X179650800Y-89428752D02*
X178949760Y-89428752D01*
X178949760Y-89428752D02*
X178949760Y-89677672D01*
X178949760Y-92227732D02*
X178949760Y-92428392D01*
X178949760Y-92428392D02*
X179650800Y-92428392D01*
X178949760Y-97477732D02*
X178949760Y-97429472D01*
X179650800Y-94678752D02*
X178949760Y-94678752D01*
X178949760Y-94678752D02*
X178949760Y-94927672D01*
X178949760Y-97477732D02*
X178949760Y-97678392D01*
X178949760Y-97678392D02*
X179650800Y-97678392D01*
X178949760Y-102677732D02*
X178949760Y-102629472D01*
X179650800Y-99878752D02*
X178949760Y-99878752D01*
X178949760Y-99878752D02*
X178949760Y-100127672D01*
X178949760Y-102677732D02*
X178949760Y-102878392D01*
X178949760Y-102878392D02*
X179650800Y-102878392D01*
X233200200Y-84949680D02*
X233200200Y-93550120D01*
X233200200Y-93550120D02*
X229999800Y-93550120D01*
X229999800Y-93550120D02*
X229999800Y-84949680D01*
X230749100Y-84949680D02*
X229999800Y-84949680D01*
X232499160Y-84949680D02*
X233200200Y-84949680D01*
X231300280Y-84949680D02*
X231201220Y-84649960D01*
X231899720Y-84949680D02*
X231998780Y-84649960D01*
X232499160Y-84949680D02*
X230700840Y-84949680D01*
D12*
X211420000Y-93600000D02*
X203740000Y-93600000D01*
X203740000Y-93600000D02*
X203740000Y-90800000D01*
X203740000Y-90800000D02*
X211420000Y-90800000D01*
X211420000Y-90800000D02*
X211420000Y-93600000D01*
X212690000Y-93600000D02*
X214020000Y-93600000D01*
X214020000Y-93600000D02*
X214020000Y-92200000D01*
D11*
X229700329Y-76452194D02*
X229644981Y-76592238D01*
X229650851Y-76659326D01*
X229693199Y-76757022D01*
X229802634Y-76848849D01*
X229906199Y-76873588D01*
X229973286Y-76867719D01*
X230070982Y-76825371D01*
X230315854Y-76533544D01*
X229549810Y-75890757D01*
X229335547Y-76146105D01*
X229310807Y-76249671D01*
X229316677Y-76316758D01*
X229359024Y-76414454D01*
X229431981Y-76475672D01*
X229535546Y-76500411D01*
X229602633Y-76494542D01*
X229700329Y-76452194D01*
X229914592Y-76196846D01*
X228998849Y-76547366D02*
X228631541Y-76985106D01*
X229581240Y-77409024D02*
X228815195Y-76766236D01*
X228846625Y-78284504D02*
X229213932Y-77846764D01*
X229030279Y-78065633D02*
X228264234Y-77422846D01*
X228434887Y-77441716D01*
X228569061Y-77429977D01*
X228666758Y-77387629D01*
X225757143Y-109783334D02*
X225804762Y-109735715D01*
X225852381Y-109592858D01*
X225852381Y-109497620D01*
X225804762Y-109354762D01*
X225709524Y-109259524D01*
X225614286Y-109211905D01*
X225423810Y-109164286D01*
X225280952Y-109164286D01*
X225090476Y-109211905D01*
X224995238Y-109259524D01*
X224900000Y-109354762D01*
X224852381Y-109497620D01*
X224852381Y-109592858D01*
X224900000Y-109735715D01*
X224947619Y-109783334D01*
X225852381Y-110735715D02*
X225852381Y-110164286D01*
X225852381Y-110450000D02*
X224852381Y-110450000D01*
X224995238Y-110354762D01*
X225090476Y-110259524D01*
X225138095Y-110164286D01*
X237307143Y-103783334D02*
X237354762Y-103735715D01*
X237402381Y-103592858D01*
X237402381Y-103497620D01*
X237354762Y-103354762D01*
X237259524Y-103259524D01*
X237164286Y-103211905D01*
X236973810Y-103164286D01*
X236830952Y-103164286D01*
X236640476Y-103211905D01*
X236545238Y-103259524D01*
X236450000Y-103354762D01*
X236402381Y-103497620D01*
X236402381Y-103592858D01*
X236450000Y-103735715D01*
X236497619Y-103783334D01*
X236497619Y-104164286D02*
X236450000Y-104211905D01*
X236402381Y-104307143D01*
X236402381Y-104545239D01*
X236450000Y-104640477D01*
X236497619Y-104688096D01*
X236592857Y-104735715D01*
X236688095Y-104735715D01*
X236830952Y-104688096D01*
X237402381Y-104116667D01*
X237402381Y-104735715D01*
X227761429Y-105699048D02*
X227761429Y-106460953D01*
X228142381Y-106080001D02*
X227380476Y-106080001D01*
X237507143Y-93933334D02*
X237554762Y-93885715D01*
X237602381Y-93742858D01*
X237602381Y-93647620D01*
X237554762Y-93504762D01*
X237459524Y-93409524D01*
X237364286Y-93361905D01*
X237173810Y-93314286D01*
X237030952Y-93314286D01*
X236840476Y-93361905D01*
X236745238Y-93409524D01*
X236650000Y-93504762D01*
X236602381Y-93647620D01*
X236602381Y-93742858D01*
X236650000Y-93885715D01*
X236697619Y-93933334D01*
X236602381Y-94266667D02*
X236602381Y-94885715D01*
X236983333Y-94552381D01*
X236983333Y-94695239D01*
X237030952Y-94790477D01*
X237078571Y-94838096D01*
X237173810Y-94885715D01*
X237411905Y-94885715D01*
X237507143Y-94838096D01*
X237554762Y-94790477D01*
X237602381Y-94695239D01*
X237602381Y-94409524D01*
X237554762Y-94314286D01*
X237507143Y-94266667D01*
X237657143Y-79383334D02*
X237704762Y-79335715D01*
X237752381Y-79192858D01*
X237752381Y-79097620D01*
X237704762Y-78954762D01*
X237609524Y-78859524D01*
X237514286Y-78811905D01*
X237323810Y-78764286D01*
X237180952Y-78764286D01*
X236990476Y-78811905D01*
X236895238Y-78859524D01*
X236800000Y-78954762D01*
X236752381Y-79097620D01*
X236752381Y-79192858D01*
X236800000Y-79335715D01*
X236847619Y-79383334D01*
X237085714Y-80240477D02*
X237752381Y-80240477D01*
X236704762Y-80002381D02*
X237419048Y-79764286D01*
X237419048Y-80383334D01*
X197566666Y-78807143D02*
X197614285Y-78854762D01*
X197757142Y-78902381D01*
X197852380Y-78902381D01*
X197995238Y-78854762D01*
X198090476Y-78759524D01*
X198138095Y-78664286D01*
X198185714Y-78473810D01*
X198185714Y-78330952D01*
X198138095Y-78140476D01*
X198090476Y-78045238D01*
X197995238Y-77950000D01*
X197852380Y-77902381D01*
X197757142Y-77902381D01*
X197614285Y-77950000D01*
X197566666Y-77997619D01*
X196661904Y-77902381D02*
X197138095Y-77902381D01*
X197185714Y-78378571D01*
X197138095Y-78330952D01*
X197042857Y-78283333D01*
X196804761Y-78283333D01*
X196709523Y-78330952D01*
X196661904Y-78378571D01*
X196614285Y-78473810D01*
X196614285Y-78711905D01*
X196661904Y-78807143D01*
X196709523Y-78854762D01*
X196804761Y-78902381D01*
X197042857Y-78902381D01*
X197138095Y-78854762D01*
X197185714Y-78807143D01*
X214766666Y-74557143D02*
X214814285Y-74604762D01*
X214957142Y-74652381D01*
X215052380Y-74652381D01*
X215195238Y-74604762D01*
X215290476Y-74509524D01*
X215338095Y-74414286D01*
X215385714Y-74223810D01*
X215385714Y-74080952D01*
X215338095Y-73890476D01*
X215290476Y-73795238D01*
X215195238Y-73700000D01*
X215052380Y-73652381D01*
X214957142Y-73652381D01*
X214814285Y-73700000D01*
X214766666Y-73747619D01*
X213909523Y-73652381D02*
X214100000Y-73652381D01*
X214195238Y-73700000D01*
X214242857Y-73747619D01*
X214338095Y-73890476D01*
X214385714Y-74080952D01*
X214385714Y-74461905D01*
X214338095Y-74557143D01*
X214290476Y-74604762D01*
X214195238Y-74652381D01*
X214004761Y-74652381D01*
X213909523Y-74604762D01*
X213861904Y-74557143D01*
X213814285Y-74461905D01*
X213814285Y-74223810D01*
X213861904Y-74128571D01*
X213909523Y-74080952D01*
X214004761Y-74033333D01*
X214195238Y-74033333D01*
X214290476Y-74080952D01*
X214338095Y-74128571D01*
X214385714Y-74223810D01*
X201366666Y-110157143D02*
X201414285Y-110204762D01*
X201557142Y-110252381D01*
X201652380Y-110252381D01*
X201795238Y-110204762D01*
X201890476Y-110109524D01*
X201938095Y-110014286D01*
X201985714Y-109823810D01*
X201985714Y-109680952D01*
X201938095Y-109490476D01*
X201890476Y-109395238D01*
X201795238Y-109300000D01*
X201652380Y-109252381D01*
X201557142Y-109252381D01*
X201414285Y-109300000D01*
X201366666Y-109347619D01*
X201033333Y-109252381D02*
X200366666Y-109252381D01*
X200795238Y-110252381D01*
X205071429Y-98189048D02*
X205071429Y-98950953D01*
X205452381Y-98570001D02*
X204690476Y-98570001D01*
X225807143Y-107533334D02*
X225854762Y-107485715D01*
X225902381Y-107342858D01*
X225902381Y-107247620D01*
X225854762Y-107104762D01*
X225759524Y-107009524D01*
X225664286Y-106961905D01*
X225473810Y-106914286D01*
X225330952Y-106914286D01*
X225140476Y-106961905D01*
X225045238Y-107009524D01*
X224950000Y-107104762D01*
X224902381Y-107247620D01*
X224902381Y-107342858D01*
X224950000Y-107485715D01*
X224997619Y-107533334D01*
X225330952Y-108104762D02*
X225283333Y-108009524D01*
X225235714Y-107961905D01*
X225140476Y-107914286D01*
X225092857Y-107914286D01*
X224997619Y-107961905D01*
X224950000Y-108009524D01*
X224902381Y-108104762D01*
X224902381Y-108295239D01*
X224950000Y-108390477D01*
X224997619Y-108438096D01*
X225092857Y-108485715D01*
X225140476Y-108485715D01*
X225235714Y-108438096D01*
X225283333Y-108390477D01*
X225330952Y-108295239D01*
X225330952Y-108104762D01*
X225378571Y-108009524D01*
X225426190Y-107961905D01*
X225521429Y-107914286D01*
X225711905Y-107914286D01*
X225807143Y-107961905D01*
X225854762Y-108009524D01*
X225902381Y-108104762D01*
X225902381Y-108295239D01*
X225854762Y-108390477D01*
X225807143Y-108438096D01*
X225711905Y-108485715D01*
X225521429Y-108485715D01*
X225426190Y-108438096D01*
X225378571Y-108390477D01*
X225330952Y-108295239D01*
X207616666Y-74557143D02*
X207664285Y-74604762D01*
X207807142Y-74652381D01*
X207902380Y-74652381D01*
X208045238Y-74604762D01*
X208140476Y-74509524D01*
X208188095Y-74414286D01*
X208235714Y-74223810D01*
X208235714Y-74080952D01*
X208188095Y-73890476D01*
X208140476Y-73795238D01*
X208045238Y-73700000D01*
X207902380Y-73652381D01*
X207807142Y-73652381D01*
X207664285Y-73700000D01*
X207616666Y-73747619D01*
X207140476Y-74652381D02*
X206950000Y-74652381D01*
X206854761Y-74604762D01*
X206807142Y-74557143D01*
X206711904Y-74414286D01*
X206664285Y-74223810D01*
X206664285Y-73842857D01*
X206711904Y-73747619D01*
X206759523Y-73700000D01*
X206854761Y-73652381D01*
X207045238Y-73652381D01*
X207140476Y-73700000D01*
X207188095Y-73747619D01*
X207235714Y-73842857D01*
X207235714Y-74080952D01*
X207188095Y-74176190D01*
X207140476Y-74223810D01*
X207045238Y-74271429D01*
X206854761Y-74271429D01*
X206759523Y-74223810D01*
X206711904Y-74176190D01*
X206664285Y-74080952D01*
X237407143Y-64057143D02*
X237454762Y-64009524D01*
X237502381Y-63866667D01*
X237502381Y-63771429D01*
X237454762Y-63628571D01*
X237359524Y-63533333D01*
X237264286Y-63485714D01*
X237073810Y-63438095D01*
X236930952Y-63438095D01*
X236740476Y-63485714D01*
X236645238Y-63533333D01*
X236550000Y-63628571D01*
X236502381Y-63771429D01*
X236502381Y-63866667D01*
X236550000Y-64009524D01*
X236597619Y-64057143D01*
X237502381Y-65009524D02*
X237502381Y-64438095D01*
X237502381Y-64723809D02*
X236502381Y-64723809D01*
X236645238Y-64628571D01*
X236740476Y-64533333D01*
X236788095Y-64438095D01*
X236502381Y-65628571D02*
X236502381Y-65723810D01*
X236550000Y-65819048D01*
X236597619Y-65866667D01*
X236692857Y-65914286D01*
X236883333Y-65961905D01*
X237121429Y-65961905D01*
X237311905Y-65914286D01*
X237407143Y-65866667D01*
X237454762Y-65819048D01*
X237502381Y-65723810D01*
X237502381Y-65628571D01*
X237454762Y-65533333D01*
X237407143Y-65485714D01*
X237311905Y-65438095D01*
X237121429Y-65390476D01*
X236883333Y-65390476D01*
X236692857Y-65438095D01*
X236597619Y-65485714D01*
X236550000Y-65533333D01*
X236502381Y-65628571D01*
X196757143Y-81307143D02*
X196804762Y-81259524D01*
X196852381Y-81116667D01*
X196852381Y-81021429D01*
X196804762Y-80878571D01*
X196709524Y-80783333D01*
X196614286Y-80735714D01*
X196423810Y-80688095D01*
X196280952Y-80688095D01*
X196090476Y-80735714D01*
X195995238Y-80783333D01*
X195900000Y-80878571D01*
X195852381Y-81021429D01*
X195852381Y-81116667D01*
X195900000Y-81259524D01*
X195947619Y-81307143D01*
X196852381Y-82259524D02*
X196852381Y-81688095D01*
X196852381Y-81973809D02*
X195852381Y-81973809D01*
X195995238Y-81878571D01*
X196090476Y-81783333D01*
X196138095Y-81688095D01*
X196852381Y-83211905D02*
X196852381Y-82640476D01*
X196852381Y-82926190D02*
X195852381Y-82926190D01*
X195995238Y-82830952D01*
X196090476Y-82735714D01*
X196138095Y-82640476D01*
X198357143Y-81207143D02*
X198404762Y-81159524D01*
X198452381Y-81016667D01*
X198452381Y-80921429D01*
X198404762Y-80778571D01*
X198309524Y-80683333D01*
X198214286Y-80635714D01*
X198023810Y-80588095D01*
X197880952Y-80588095D01*
X197690476Y-80635714D01*
X197595238Y-80683333D01*
X197500000Y-80778571D01*
X197452381Y-80921429D01*
X197452381Y-81016667D01*
X197500000Y-81159524D01*
X197547619Y-81207143D01*
X198452381Y-82159524D02*
X198452381Y-81588095D01*
X198452381Y-81873809D02*
X197452381Y-81873809D01*
X197595238Y-81778571D01*
X197690476Y-81683333D01*
X197738095Y-81588095D01*
X197547619Y-82540476D02*
X197500000Y-82588095D01*
X197452381Y-82683333D01*
X197452381Y-82921429D01*
X197500000Y-83016667D01*
X197547619Y-83064286D01*
X197642857Y-83111905D01*
X197738095Y-83111905D01*
X197880952Y-83064286D01*
X198452381Y-82492857D01*
X198452381Y-83111905D01*
X234857143Y-80007143D02*
X234904762Y-79959524D01*
X234952381Y-79816667D01*
X234952381Y-79721429D01*
X234904762Y-79578571D01*
X234809524Y-79483333D01*
X234714286Y-79435714D01*
X234523810Y-79388095D01*
X234380952Y-79388095D01*
X234190476Y-79435714D01*
X234095238Y-79483333D01*
X234000000Y-79578571D01*
X233952381Y-79721429D01*
X233952381Y-79816667D01*
X234000000Y-79959524D01*
X234047619Y-80007143D01*
X234952381Y-80959524D02*
X234952381Y-80388095D01*
X234952381Y-80673809D02*
X233952381Y-80673809D01*
X234095238Y-80578571D01*
X234190476Y-80483333D01*
X234238095Y-80388095D01*
X233952381Y-81292857D02*
X233952381Y-81911905D01*
X234333333Y-81578571D01*
X234333333Y-81721429D01*
X234380952Y-81816667D01*
X234428571Y-81864286D01*
X234523810Y-81911905D01*
X234761905Y-81911905D01*
X234857143Y-81864286D01*
X234904762Y-81816667D01*
X234952381Y-81721429D01*
X234952381Y-81435714D01*
X234904762Y-81340476D01*
X234857143Y-81292857D01*
X229057143Y-80007143D02*
X229104762Y-79959524D01*
X229152381Y-79816667D01*
X229152381Y-79721429D01*
X229104762Y-79578571D01*
X229009524Y-79483333D01*
X228914286Y-79435714D01*
X228723810Y-79388095D01*
X228580952Y-79388095D01*
X228390476Y-79435714D01*
X228295238Y-79483333D01*
X228200000Y-79578571D01*
X228152381Y-79721429D01*
X228152381Y-79816667D01*
X228200000Y-79959524D01*
X228247619Y-80007143D01*
X229152381Y-80959524D02*
X229152381Y-80388095D01*
X229152381Y-80673809D02*
X228152381Y-80673809D01*
X228295238Y-80578571D01*
X228390476Y-80483333D01*
X228438095Y-80388095D01*
X228485714Y-81816667D02*
X229152381Y-81816667D01*
X228104762Y-81578571D02*
X228819048Y-81340476D01*
X228819048Y-81959524D01*
X225112890Y-80136808D02*
X225118759Y-80203895D01*
X225197585Y-80332200D01*
X225270542Y-80393418D01*
X225410586Y-80448767D01*
X225544761Y-80437028D01*
X225642457Y-80394681D01*
X225801371Y-80279376D01*
X225893198Y-80169941D01*
X225979155Y-79993419D01*
X226003895Y-79889853D01*
X225992156Y-79755679D01*
X225913329Y-79627373D01*
X225840373Y-79566156D01*
X225700329Y-79510807D01*
X225633242Y-79516677D01*
X224322106Y-79597586D02*
X224759846Y-79964893D01*
X224540976Y-79781240D02*
X225183764Y-79015195D01*
X225164894Y-79185848D01*
X225176633Y-79320022D01*
X225218980Y-79417718D01*
X224271806Y-78249972D02*
X224636589Y-78556061D01*
X224366978Y-78951453D01*
X224361109Y-78884366D01*
X224318761Y-78786670D01*
X224136369Y-78633624D01*
X224032804Y-78608885D01*
X223965717Y-78614754D01*
X223868020Y-78657103D01*
X223714975Y-78839494D01*
X223690236Y-78943059D01*
X223696105Y-79010147D01*
X223738453Y-79107843D01*
X223920845Y-79260888D01*
X224024410Y-79285627D01*
X224091498Y-79279758D01*
X207992857Y-75957143D02*
X208040476Y-76004762D01*
X208183333Y-76052381D01*
X208278571Y-76052381D01*
X208421429Y-76004762D01*
X208516667Y-75909524D01*
X208564286Y-75814286D01*
X208611905Y-75623810D01*
X208611905Y-75480952D01*
X208564286Y-75290476D01*
X208516667Y-75195238D01*
X208421429Y-75100000D01*
X208278571Y-75052381D01*
X208183333Y-75052381D01*
X208040476Y-75100000D01*
X207992857Y-75147619D01*
X207040476Y-76052381D02*
X207611905Y-76052381D01*
X207326191Y-76052381D02*
X207326191Y-75052381D01*
X207421429Y-75195238D01*
X207516667Y-75290476D01*
X207611905Y-75338095D01*
X206183333Y-75052381D02*
X206373810Y-75052381D01*
X206469048Y-75100000D01*
X206516667Y-75147619D01*
X206611905Y-75290476D01*
X206659524Y-75480952D01*
X206659524Y-75861905D01*
X206611905Y-75957143D01*
X206564286Y-76004762D01*
X206469048Y-76052381D01*
X206278571Y-76052381D01*
X206183333Y-76004762D01*
X206135714Y-75957143D01*
X206088095Y-75861905D01*
X206088095Y-75623810D01*
X206135714Y-75528571D01*
X206183333Y-75480952D01*
X206278571Y-75433333D01*
X206469048Y-75433333D01*
X206564286Y-75480952D01*
X206611905Y-75528571D01*
X206659524Y-75623810D01*
X222942857Y-79957143D02*
X222990476Y-80004762D01*
X223133333Y-80052381D01*
X223228571Y-80052381D01*
X223371429Y-80004762D01*
X223466667Y-79909524D01*
X223514286Y-79814286D01*
X223561905Y-79623810D01*
X223561905Y-79480952D01*
X223514286Y-79290476D01*
X223466667Y-79195238D01*
X223371429Y-79100000D01*
X223228571Y-79052381D01*
X223133333Y-79052381D01*
X222990476Y-79100000D01*
X222942857Y-79147619D01*
X221990476Y-80052381D02*
X222561905Y-80052381D01*
X222276191Y-80052381D02*
X222276191Y-79052381D01*
X222371429Y-79195238D01*
X222466667Y-79290476D01*
X222561905Y-79338095D01*
X221657143Y-79052381D02*
X220990476Y-79052381D01*
X221419048Y-80052381D01*
X231688095Y-113002381D02*
X231688095Y-112002381D01*
X231450000Y-112002381D01*
X231307142Y-112050000D01*
X231211904Y-112145238D01*
X231164285Y-112240476D01*
X231116666Y-112430952D01*
X231116666Y-112573810D01*
X231164285Y-112764286D01*
X231211904Y-112859524D01*
X231307142Y-112954762D01*
X231450000Y-113002381D01*
X231688095Y-113002381D01*
X230164285Y-113002381D02*
X230735714Y-113002381D01*
X230450000Y-113002381D02*
X230450000Y-112002381D01*
X230545238Y-112145238D01*
X230640476Y-112240476D01*
X230735714Y-112288095D01*
X197502381Y-111661905D02*
X196502381Y-111661905D01*
X196502381Y-111900000D01*
X196550000Y-112042858D01*
X196645238Y-112138096D01*
X196740476Y-112185715D01*
X196930952Y-112233334D01*
X197073810Y-112233334D01*
X197264286Y-112185715D01*
X197359524Y-112138096D01*
X197454762Y-112042858D01*
X197502381Y-111900000D01*
X197502381Y-111661905D01*
X196597619Y-112614286D02*
X196550000Y-112661905D01*
X196502381Y-112757143D01*
X196502381Y-112995239D01*
X196550000Y-113090477D01*
X196597619Y-113138096D01*
X196692857Y-113185715D01*
X196788095Y-113185715D01*
X196930952Y-113138096D01*
X197502381Y-112566667D01*
X197502381Y-113185715D01*
X212338095Y-111652381D02*
X212338095Y-110652381D01*
X212100000Y-110652381D01*
X211957142Y-110700000D01*
X211861904Y-110795238D01*
X211814285Y-110890476D01*
X211766666Y-111080952D01*
X211766666Y-111223810D01*
X211814285Y-111414286D01*
X211861904Y-111509524D01*
X211957142Y-111604762D01*
X212100000Y-111652381D01*
X212338095Y-111652381D01*
X211433333Y-110652381D02*
X210814285Y-110652381D01*
X211147619Y-111033333D01*
X211004761Y-111033333D01*
X210909523Y-111080952D01*
X210861904Y-111128571D01*
X210814285Y-111223810D01*
X210814285Y-111461905D01*
X210861904Y-111557143D01*
X210909523Y-111604762D01*
X211004761Y-111652381D01*
X211290476Y-111652381D01*
X211385714Y-111604762D01*
X211433333Y-111557143D01*
X200688095Y-93752381D02*
X200688095Y-92752381D01*
X200450000Y-92752381D01*
X200307142Y-92800000D01*
X200211904Y-92895238D01*
X200164285Y-92990476D01*
X200116666Y-93180952D01*
X200116666Y-93323810D01*
X200164285Y-93514286D01*
X200211904Y-93609524D01*
X200307142Y-93704762D01*
X200450000Y-93752381D01*
X200688095Y-93752381D01*
X199211904Y-92752381D02*
X199688095Y-92752381D01*
X199735714Y-93228571D01*
X199688095Y-93180952D01*
X199592857Y-93133333D01*
X199354761Y-93133333D01*
X199259523Y-93180952D01*
X199211904Y-93228571D01*
X199164285Y-93323810D01*
X199164285Y-93561905D01*
X199211904Y-93657143D01*
X199259523Y-93704762D01*
X199354761Y-93752381D01*
X199592857Y-93752381D01*
X199688095Y-93704762D01*
X199735714Y-93657143D01*
X208676190Y-89452381D02*
X208676190Y-88452381D01*
X207628571Y-89357143D02*
X207676190Y-89404762D01*
X207819047Y-89452381D01*
X207914285Y-89452381D01*
X208057143Y-89404762D01*
X208152381Y-89309524D01*
X208200000Y-89214286D01*
X208247619Y-89023810D01*
X208247619Y-88880952D01*
X208200000Y-88690476D01*
X208152381Y-88595238D01*
X208057143Y-88500000D01*
X207914285Y-88452381D01*
X207819047Y-88452381D01*
X207676190Y-88500000D01*
X207628571Y-88547619D01*
X206676190Y-89452381D02*
X207247619Y-89452381D01*
X206961905Y-89452381D02*
X206961905Y-88452381D01*
X207057143Y-88595238D01*
X207152381Y-88690476D01*
X207247619Y-88738095D01*
X235602381Y-113616667D02*
X236316667Y-113616667D01*
X236459524Y-113569047D01*
X236554762Y-113473809D01*
X236602381Y-113330952D01*
X236602381Y-113235714D01*
X236602381Y-114616667D02*
X236602381Y-114045238D01*
X236602381Y-114330952D02*
X235602381Y-114330952D01*
X235745238Y-114235714D01*
X235840476Y-114140476D01*
X235888095Y-114045238D01*
X248512381Y-55876667D02*
X249226667Y-55876667D01*
X249369524Y-55829047D01*
X249464762Y-55733809D01*
X249512381Y-55590952D01*
X249512381Y-55495714D01*
X248607619Y-56305238D02*
X248560000Y-56352857D01*
X248512381Y-56448095D01*
X248512381Y-56686191D01*
X248560000Y-56781429D01*
X248607619Y-56829048D01*
X248702857Y-56876667D01*
X248798095Y-56876667D01*
X248940952Y-56829048D01*
X249512381Y-56257619D01*
X249512381Y-56876667D01*
X211466666Y-105202381D02*
X211942857Y-105202381D01*
X211942857Y-104202381D01*
X210609523Y-105202381D02*
X211180952Y-105202381D01*
X210895238Y-105202381D02*
X210895238Y-104202381D01*
X210990476Y-104345238D01*
X211085714Y-104440476D01*
X211180952Y-104488095D01*
X170902381Y-81257143D02*
X170902381Y-80780952D01*
X169902381Y-80780952D01*
X170854762Y-81542857D02*
X170902381Y-81685714D01*
X170902381Y-81923810D01*
X170854762Y-82019048D01*
X170807143Y-82066667D01*
X170711905Y-82114286D01*
X170616667Y-82114286D01*
X170521429Y-82066667D01*
X170473810Y-82019048D01*
X170426190Y-81923810D01*
X170378571Y-81733333D01*
X170330952Y-81638095D01*
X170283333Y-81590476D01*
X170188095Y-81542857D01*
X170092857Y-81542857D01*
X169997619Y-81590476D01*
X169950000Y-81638095D01*
X169902381Y-81733333D01*
X169902381Y-81971429D01*
X169950000Y-82114286D01*
X170902381Y-83066667D02*
X170902381Y-82495238D01*
X170902381Y-82780952D02*
X169902381Y-82780952D01*
X170045238Y-82685714D01*
X170140476Y-82590476D01*
X170188095Y-82495238D01*
X172911429Y-85429048D02*
X172911429Y-86190953D01*
X173292381Y-85810001D02*
X172530476Y-85810001D01*
X188495238Y-109697619D02*
X188590476Y-109650000D01*
X188685714Y-109554762D01*
X188828571Y-109411905D01*
X188923810Y-109364286D01*
X189019048Y-109364286D01*
X188971429Y-109602381D02*
X189066667Y-109554762D01*
X189161905Y-109459524D01*
X189209524Y-109269048D01*
X189209524Y-108935714D01*
X189161905Y-108745238D01*
X189066667Y-108650000D01*
X188971429Y-108602381D01*
X188780952Y-108602381D01*
X188685714Y-108650000D01*
X188590476Y-108745238D01*
X188542857Y-108935714D01*
X188542857Y-109269048D01*
X188590476Y-109459524D01*
X188685714Y-109554762D01*
X188780952Y-109602381D01*
X188971429Y-109602381D01*
X187638095Y-108602381D02*
X188114286Y-108602381D01*
X188161905Y-109078571D01*
X188114286Y-109030952D01*
X188019048Y-108983333D01*
X187780952Y-108983333D01*
X187685714Y-109030952D01*
X187638095Y-109078571D01*
X187590476Y-109173810D01*
X187590476Y-109411905D01*
X187638095Y-109507143D01*
X187685714Y-109554762D01*
X187780952Y-109602381D01*
X188019048Y-109602381D01*
X188114286Y-109554762D01*
X188161905Y-109507143D01*
X188495238Y-93947619D02*
X188590476Y-93900000D01*
X188685714Y-93804762D01*
X188828571Y-93661905D01*
X188923810Y-93614286D01*
X189019048Y-93614286D01*
X188971429Y-93852381D02*
X189066667Y-93804762D01*
X189161905Y-93709524D01*
X189209524Y-93519048D01*
X189209524Y-93185714D01*
X189161905Y-92995238D01*
X189066667Y-92900000D01*
X188971429Y-92852381D01*
X188780952Y-92852381D01*
X188685714Y-92900000D01*
X188590476Y-92995238D01*
X188542857Y-93185714D01*
X188542857Y-93519048D01*
X188590476Y-93709524D01*
X188685714Y-93804762D01*
X188780952Y-93852381D01*
X188971429Y-93852381D01*
X187685714Y-92852381D02*
X187876191Y-92852381D01*
X187971429Y-92900000D01*
X188019048Y-92947619D01*
X188114286Y-93090476D01*
X188161905Y-93280952D01*
X188161905Y-93661905D01*
X188114286Y-93757143D01*
X188066667Y-93804762D01*
X187971429Y-93852381D01*
X187780952Y-93852381D01*
X187685714Y-93804762D01*
X187638095Y-93757143D01*
X187590476Y-93661905D01*
X187590476Y-93423810D01*
X187638095Y-93328571D01*
X187685714Y-93280952D01*
X187780952Y-93233333D01*
X187971429Y-93233333D01*
X188066667Y-93280952D01*
X188114286Y-93328571D01*
X188161905Y-93423810D01*
X188495238Y-99297619D02*
X188590476Y-99250000D01*
X188685714Y-99154762D01*
X188828571Y-99011905D01*
X188923810Y-98964286D01*
X189019048Y-98964286D01*
X188971429Y-99202381D02*
X189066667Y-99154762D01*
X189161905Y-99059524D01*
X189209524Y-98869048D01*
X189209524Y-98535714D01*
X189161905Y-98345238D01*
X189066667Y-98250000D01*
X188971429Y-98202381D01*
X188780952Y-98202381D01*
X188685714Y-98250000D01*
X188590476Y-98345238D01*
X188542857Y-98535714D01*
X188542857Y-98869048D01*
X188590476Y-99059524D01*
X188685714Y-99154762D01*
X188780952Y-99202381D01*
X188971429Y-99202381D01*
X188209524Y-98202381D02*
X187542857Y-98202381D01*
X187971429Y-99202381D01*
X188495238Y-104447619D02*
X188590476Y-104400000D01*
X188685714Y-104304762D01*
X188828571Y-104161905D01*
X188923810Y-104114286D01*
X189019048Y-104114286D01*
X188971429Y-104352381D02*
X189066667Y-104304762D01*
X189161905Y-104209524D01*
X189209524Y-104019048D01*
X189209524Y-103685714D01*
X189161905Y-103495238D01*
X189066667Y-103400000D01*
X188971429Y-103352381D01*
X188780952Y-103352381D01*
X188685714Y-103400000D01*
X188590476Y-103495238D01*
X188542857Y-103685714D01*
X188542857Y-104019048D01*
X188590476Y-104209524D01*
X188685714Y-104304762D01*
X188780952Y-104352381D01*
X188971429Y-104352381D01*
X187971429Y-103780952D02*
X188066667Y-103733333D01*
X188114286Y-103685714D01*
X188161905Y-103590476D01*
X188161905Y-103542857D01*
X188114286Y-103447619D01*
X188066667Y-103400000D01*
X187971429Y-103352381D01*
X187780952Y-103352381D01*
X187685714Y-103400000D01*
X187638095Y-103447619D01*
X187590476Y-103542857D01*
X187590476Y-103590476D01*
X187638095Y-103685714D01*
X187685714Y-103733333D01*
X187780952Y-103780952D01*
X187971429Y-103780952D01*
X188066667Y-103828571D01*
X188114286Y-103876190D01*
X188161905Y-103971429D01*
X188161905Y-104161905D01*
X188114286Y-104257143D01*
X188066667Y-104304762D01*
X187971429Y-104352381D01*
X187780952Y-104352381D01*
X187685714Y-104304762D01*
X187638095Y-104257143D01*
X187590476Y-104161905D01*
X187590476Y-103971429D01*
X187638095Y-103876190D01*
X187685714Y-103828571D01*
X187780952Y-103780952D01*
X177647619Y-85704762D02*
X177600000Y-85609524D01*
X177504762Y-85514286D01*
X177361905Y-85371429D01*
X177314286Y-85276190D01*
X177314286Y-85180952D01*
X177552381Y-85228571D02*
X177504762Y-85133333D01*
X177409524Y-85038095D01*
X177219048Y-84990476D01*
X176885714Y-84990476D01*
X176695238Y-85038095D01*
X176600000Y-85133333D01*
X176552381Y-85228571D01*
X176552381Y-85419048D01*
X176600000Y-85514286D01*
X176695238Y-85609524D01*
X176885714Y-85657143D01*
X177219048Y-85657143D01*
X177409524Y-85609524D01*
X177504762Y-85514286D01*
X177552381Y-85419048D01*
X177552381Y-85228571D01*
X177552381Y-86133333D02*
X177552381Y-86323809D01*
X177504762Y-86419048D01*
X177457143Y-86466667D01*
X177314286Y-86561905D01*
X177123810Y-86609524D01*
X176742857Y-86609524D01*
X176647619Y-86561905D01*
X176600000Y-86514286D01*
X176552381Y-86419048D01*
X176552381Y-86228571D01*
X176600000Y-86133333D01*
X176647619Y-86085714D01*
X176742857Y-86038095D01*
X176980952Y-86038095D01*
X177076190Y-86085714D01*
X177123810Y-86133333D01*
X177171429Y-86228571D01*
X177171429Y-86419048D01*
X177123810Y-86514286D01*
X177076190Y-86561905D01*
X176980952Y-86609524D01*
X177897619Y-79978572D02*
X177850000Y-79883334D01*
X177754762Y-79788096D01*
X177611905Y-79645239D01*
X177564286Y-79550000D01*
X177564286Y-79454762D01*
X177802381Y-79502381D02*
X177754762Y-79407143D01*
X177659524Y-79311905D01*
X177469048Y-79264286D01*
X177135714Y-79264286D01*
X176945238Y-79311905D01*
X176850000Y-79407143D01*
X176802381Y-79502381D01*
X176802381Y-79692858D01*
X176850000Y-79788096D01*
X176945238Y-79883334D01*
X177135714Y-79930953D01*
X177469048Y-79930953D01*
X177659524Y-79883334D01*
X177754762Y-79788096D01*
X177802381Y-79692858D01*
X177802381Y-79502381D01*
X177802381Y-80883334D02*
X177802381Y-80311905D01*
X177802381Y-80597619D02*
X176802381Y-80597619D01*
X176945238Y-80502381D01*
X177040476Y-80407143D01*
X177088095Y-80311905D01*
X176802381Y-81502381D02*
X176802381Y-81597620D01*
X176850000Y-81692858D01*
X176897619Y-81740477D01*
X176992857Y-81788096D01*
X177183333Y-81835715D01*
X177421429Y-81835715D01*
X177611905Y-81788096D01*
X177707143Y-81740477D01*
X177754762Y-81692858D01*
X177802381Y-81597620D01*
X177802381Y-81502381D01*
X177754762Y-81407143D01*
X177707143Y-81359524D01*
X177611905Y-81311905D01*
X177421429Y-81264286D01*
X177183333Y-81264286D01*
X176992857Y-81311905D01*
X176897619Y-81359524D01*
X176850000Y-81407143D01*
X176802381Y-81502381D01*
X220916666Y-111152381D02*
X221250000Y-110676190D01*
X221488095Y-111152381D02*
X221488095Y-110152381D01*
X221107142Y-110152381D01*
X221011904Y-110200000D01*
X220964285Y-110247619D01*
X220916666Y-110342857D01*
X220916666Y-110485714D01*
X220964285Y-110580952D01*
X221011904Y-110628571D01*
X221107142Y-110676190D01*
X221488095Y-110676190D01*
X219964285Y-111152381D02*
X220535714Y-111152381D01*
X220250000Y-111152381D02*
X220250000Y-110152381D01*
X220345238Y-110295238D01*
X220440476Y-110390476D01*
X220535714Y-110438095D01*
X197502381Y-109883334D02*
X197026190Y-109550000D01*
X197502381Y-109311905D02*
X196502381Y-109311905D01*
X196502381Y-109692858D01*
X196550000Y-109788096D01*
X196597619Y-109835715D01*
X196692857Y-109883334D01*
X196835714Y-109883334D01*
X196930952Y-109835715D01*
X196978571Y-109788096D01*
X197026190Y-109692858D01*
X197026190Y-109311905D01*
X196597619Y-110264286D02*
X196550000Y-110311905D01*
X196502381Y-110407143D01*
X196502381Y-110645239D01*
X196550000Y-110740477D01*
X196597619Y-110788096D01*
X196692857Y-110835715D01*
X196788095Y-110835715D01*
X196930952Y-110788096D01*
X197502381Y-110216667D01*
X197502381Y-110835715D01*
X218866666Y-93852381D02*
X219200000Y-93376190D01*
X219438095Y-93852381D02*
X219438095Y-92852381D01*
X219057142Y-92852381D01*
X218961904Y-92900000D01*
X218914285Y-92947619D01*
X218866666Y-93042857D01*
X218866666Y-93185714D01*
X218914285Y-93280952D01*
X218961904Y-93328571D01*
X219057142Y-93376190D01*
X219438095Y-93376190D01*
X218533333Y-92852381D02*
X217914285Y-92852381D01*
X218247619Y-93233333D01*
X218104761Y-93233333D01*
X218009523Y-93280952D01*
X217961904Y-93328571D01*
X217914285Y-93423810D01*
X217914285Y-93661905D01*
X217961904Y-93757143D01*
X218009523Y-93804762D01*
X218104761Y-93852381D01*
X218390476Y-93852381D01*
X218485714Y-93804762D01*
X218533333Y-93757143D01*
X224366666Y-93852381D02*
X224700000Y-93376190D01*
X224938095Y-93852381D02*
X224938095Y-92852381D01*
X224557142Y-92852381D01*
X224461904Y-92900000D01*
X224414285Y-92947619D01*
X224366666Y-93042857D01*
X224366666Y-93185714D01*
X224414285Y-93280952D01*
X224461904Y-93328571D01*
X224557142Y-93376190D01*
X224938095Y-93376190D01*
X223509523Y-93185714D02*
X223509523Y-93852381D01*
X223747619Y-92804762D02*
X223985714Y-93519048D01*
X223366666Y-93519048D01*
X182666666Y-63902381D02*
X183000000Y-63426190D01*
X183238095Y-63902381D02*
X183238095Y-62902381D01*
X182857142Y-62902381D01*
X182761904Y-62950000D01*
X182714285Y-62997619D01*
X182666666Y-63092857D01*
X182666666Y-63235714D01*
X182714285Y-63330952D01*
X182761904Y-63378571D01*
X182857142Y-63426190D01*
X183238095Y-63426190D01*
X181761904Y-62902381D02*
X182238095Y-62902381D01*
X182285714Y-63378571D01*
X182238095Y-63330952D01*
X182142857Y-63283333D01*
X181904761Y-63283333D01*
X181809523Y-63330952D01*
X181761904Y-63378571D01*
X181714285Y-63473810D01*
X181714285Y-63711905D01*
X181761904Y-63807143D01*
X181809523Y-63854762D01*
X181904761Y-63902381D01*
X182142857Y-63902381D01*
X182238095Y-63854762D01*
X182285714Y-63807143D01*
X201952381Y-86933334D02*
X201476190Y-86600000D01*
X201952381Y-86361905D02*
X200952381Y-86361905D01*
X200952381Y-86742858D01*
X201000000Y-86838096D01*
X201047619Y-86885715D01*
X201142857Y-86933334D01*
X201285714Y-86933334D01*
X201380952Y-86885715D01*
X201428571Y-86838096D01*
X201476190Y-86742858D01*
X201476190Y-86361905D01*
X200952381Y-87790477D02*
X200952381Y-87600000D01*
X201000000Y-87504762D01*
X201047619Y-87457143D01*
X201190476Y-87361905D01*
X201380952Y-87314286D01*
X201761905Y-87314286D01*
X201857143Y-87361905D01*
X201904762Y-87409524D01*
X201952381Y-87504762D01*
X201952381Y-87695239D01*
X201904762Y-87790477D01*
X201857143Y-87838096D01*
X201761905Y-87885715D01*
X201523810Y-87885715D01*
X201428571Y-87838096D01*
X201380952Y-87790477D01*
X201333333Y-87695239D01*
X201333333Y-87504762D01*
X201380952Y-87409524D01*
X201428571Y-87361905D01*
X201523810Y-87314286D01*
X182666666Y-66052381D02*
X183000000Y-65576190D01*
X183238095Y-66052381D02*
X183238095Y-65052381D01*
X182857142Y-65052381D01*
X182761904Y-65100000D01*
X182714285Y-65147619D01*
X182666666Y-65242857D01*
X182666666Y-65385714D01*
X182714285Y-65480952D01*
X182761904Y-65528571D01*
X182857142Y-65576190D01*
X183238095Y-65576190D01*
X182333333Y-65052381D02*
X181666666Y-65052381D01*
X182095238Y-66052381D01*
X182666666Y-61552381D02*
X183000000Y-61076190D01*
X183238095Y-61552381D02*
X183238095Y-60552381D01*
X182857142Y-60552381D01*
X182761904Y-60600000D01*
X182714285Y-60647619D01*
X182666666Y-60742857D01*
X182666666Y-60885714D01*
X182714285Y-60980952D01*
X182761904Y-61028571D01*
X182857142Y-61076190D01*
X183238095Y-61076190D01*
X182095238Y-60980952D02*
X182190476Y-60933333D01*
X182238095Y-60885714D01*
X182285714Y-60790476D01*
X182285714Y-60742857D01*
X182238095Y-60647619D01*
X182190476Y-60600000D01*
X182095238Y-60552381D01*
X181904761Y-60552381D01*
X181809523Y-60600000D01*
X181761904Y-60647619D01*
X181714285Y-60742857D01*
X181714285Y-60790476D01*
X181761904Y-60885714D01*
X181809523Y-60933333D01*
X181904761Y-60980952D01*
X182095238Y-60980952D01*
X182190476Y-61028571D01*
X182238095Y-61076190D01*
X182285714Y-61171429D01*
X182285714Y-61361905D01*
X182238095Y-61457143D01*
X182190476Y-61504762D01*
X182095238Y-61552381D01*
X181904761Y-61552381D01*
X181809523Y-61504762D01*
X181761904Y-61457143D01*
X181714285Y-61361905D01*
X181714285Y-61171429D01*
X181761904Y-61076190D01*
X181809523Y-61028571D01*
X181904761Y-60980952D01*
X177652381Y-106533334D02*
X177176190Y-106200000D01*
X177652381Y-105961905D02*
X176652381Y-105961905D01*
X176652381Y-106342858D01*
X176700000Y-106438096D01*
X176747619Y-106485715D01*
X176842857Y-106533334D01*
X176985714Y-106533334D01*
X177080952Y-106485715D01*
X177128571Y-106438096D01*
X177176190Y-106342858D01*
X177176190Y-105961905D01*
X177652381Y-107009524D02*
X177652381Y-107200000D01*
X177604762Y-107295239D01*
X177557143Y-107342858D01*
X177414286Y-107438096D01*
X177223810Y-107485715D01*
X176842857Y-107485715D01*
X176747619Y-107438096D01*
X176700000Y-107390477D01*
X176652381Y-107295239D01*
X176652381Y-107104762D01*
X176700000Y-107009524D01*
X176747619Y-106961905D01*
X176842857Y-106914286D01*
X177080952Y-106914286D01*
X177176190Y-106961905D01*
X177223810Y-107009524D01*
X177271429Y-107104762D01*
X177271429Y-107295239D01*
X177223810Y-107390477D01*
X177176190Y-107438096D01*
X177080952Y-107485715D01*
X182666667Y-76952381D02*
X183000001Y-76476190D01*
X183238096Y-76952381D02*
X183238096Y-75952381D01*
X182857143Y-75952381D01*
X182761905Y-76000000D01*
X182714286Y-76047619D01*
X182666667Y-76142857D01*
X182666667Y-76285714D01*
X182714286Y-76380952D01*
X182761905Y-76428571D01*
X182857143Y-76476190D01*
X183238096Y-76476190D01*
X181714286Y-76952381D02*
X182285715Y-76952381D01*
X182000001Y-76952381D02*
X182000001Y-75952381D01*
X182095239Y-76095238D01*
X182190477Y-76190476D01*
X182285715Y-76238095D01*
X181095239Y-75952381D02*
X181000000Y-75952381D01*
X180904762Y-76000000D01*
X180857143Y-76047619D01*
X180809524Y-76142857D01*
X180761905Y-76333333D01*
X180761905Y-76571429D01*
X180809524Y-76761905D01*
X180857143Y-76857143D01*
X180904762Y-76904762D01*
X181000000Y-76952381D01*
X181095239Y-76952381D01*
X181190477Y-76904762D01*
X181238096Y-76857143D01*
X181285715Y-76761905D01*
X181333334Y-76571429D01*
X181333334Y-76333333D01*
X181285715Y-76142857D01*
X181238096Y-76047619D01*
X181190477Y-76000000D01*
X181095239Y-75952381D01*
X177652381Y-90407143D02*
X177176190Y-90073809D01*
X177652381Y-89835714D02*
X176652381Y-89835714D01*
X176652381Y-90216667D01*
X176700000Y-90311905D01*
X176747619Y-90359524D01*
X176842857Y-90407143D01*
X176985714Y-90407143D01*
X177080952Y-90359524D01*
X177128571Y-90311905D01*
X177176190Y-90216667D01*
X177176190Y-89835714D01*
X177652381Y-91359524D02*
X177652381Y-90788095D01*
X177652381Y-91073809D02*
X176652381Y-91073809D01*
X176795238Y-90978571D01*
X176890476Y-90883333D01*
X176938095Y-90788095D01*
X177652381Y-92311905D02*
X177652381Y-91740476D01*
X177652381Y-92026190D02*
X176652381Y-92026190D01*
X176795238Y-91930952D01*
X176890476Y-91835714D01*
X176938095Y-91740476D01*
X177652381Y-95357143D02*
X177176190Y-95023809D01*
X177652381Y-94785714D02*
X176652381Y-94785714D01*
X176652381Y-95166667D01*
X176700000Y-95261905D01*
X176747619Y-95309524D01*
X176842857Y-95357143D01*
X176985714Y-95357143D01*
X177080952Y-95309524D01*
X177128571Y-95261905D01*
X177176190Y-95166667D01*
X177176190Y-94785714D01*
X177652381Y-96309524D02*
X177652381Y-95738095D01*
X177652381Y-96023809D02*
X176652381Y-96023809D01*
X176795238Y-95928571D01*
X176890476Y-95833333D01*
X176938095Y-95738095D01*
X176747619Y-96690476D02*
X176700000Y-96738095D01*
X176652381Y-96833333D01*
X176652381Y-97071429D01*
X176700000Y-97166667D01*
X176747619Y-97214286D01*
X176842857Y-97261905D01*
X176938095Y-97261905D01*
X177080952Y-97214286D01*
X177652381Y-96642857D01*
X177652381Y-97261905D01*
X177652381Y-100607143D02*
X177176190Y-100273809D01*
X177652381Y-100035714D02*
X176652381Y-100035714D01*
X176652381Y-100416667D01*
X176700000Y-100511905D01*
X176747619Y-100559524D01*
X176842857Y-100607143D01*
X176985714Y-100607143D01*
X177080952Y-100559524D01*
X177128571Y-100511905D01*
X177176190Y-100416667D01*
X177176190Y-100035714D01*
X177652381Y-101559524D02*
X177652381Y-100988095D01*
X177652381Y-101273809D02*
X176652381Y-101273809D01*
X176795238Y-101178571D01*
X176890476Y-101083333D01*
X176938095Y-100988095D01*
X176652381Y-101892857D02*
X176652381Y-102511905D01*
X177033333Y-102178571D01*
X177033333Y-102321429D01*
X177080952Y-102416667D01*
X177128571Y-102464286D01*
X177223810Y-102511905D01*
X177461905Y-102511905D01*
X177557143Y-102464286D01*
X177604762Y-102416667D01*
X177652381Y-102321429D01*
X177652381Y-102035714D01*
X177604762Y-101940476D01*
X177557143Y-101892857D01*
X200842857Y-94252381D02*
X201176191Y-93776190D01*
X201414286Y-94252381D02*
X201414286Y-93252381D01*
X201033333Y-93252381D01*
X200938095Y-93300000D01*
X200890476Y-93347619D01*
X200842857Y-93442857D01*
X200842857Y-93585714D01*
X200890476Y-93680952D01*
X200938095Y-93728571D01*
X201033333Y-93776190D01*
X201414286Y-93776190D01*
X199890476Y-94252381D02*
X200461905Y-94252381D01*
X200176191Y-94252381D02*
X200176191Y-93252381D01*
X200271429Y-93395238D01*
X200366667Y-93490476D01*
X200461905Y-93538095D01*
X199033333Y-93585714D02*
X199033333Y-94252381D01*
X199271429Y-93204762D02*
X199509524Y-93919048D01*
X198890476Y-93919048D01*
X182666667Y-74852381D02*
X183000001Y-74376190D01*
X183238096Y-74852381D02*
X183238096Y-73852381D01*
X182857143Y-73852381D01*
X182761905Y-73900000D01*
X182714286Y-73947619D01*
X182666667Y-74042857D01*
X182666667Y-74185714D01*
X182714286Y-74280952D01*
X182761905Y-74328571D01*
X182857143Y-74376190D01*
X183238096Y-74376190D01*
X181714286Y-74852381D02*
X182285715Y-74852381D01*
X182000001Y-74852381D02*
X182000001Y-73852381D01*
X182095239Y-73995238D01*
X182190477Y-74090476D01*
X182285715Y-74138095D01*
X180809524Y-73852381D02*
X181285715Y-73852381D01*
X181333334Y-74328571D01*
X181285715Y-74280952D01*
X181190477Y-74233333D01*
X180952381Y-74233333D01*
X180857143Y-74280952D01*
X180809524Y-74328571D01*
X180761905Y-74423810D01*
X180761905Y-74661905D01*
X180809524Y-74757143D01*
X180857143Y-74804762D01*
X180952381Y-74852381D01*
X181190477Y-74852381D01*
X181285715Y-74804762D01*
X181333334Y-74757143D01*
X175952381Y-105907143D02*
X175476190Y-105573809D01*
X175952381Y-105335714D02*
X174952381Y-105335714D01*
X174952381Y-105716667D01*
X175000000Y-105811905D01*
X175047619Y-105859524D01*
X175142857Y-105907143D01*
X175285714Y-105907143D01*
X175380952Y-105859524D01*
X175428571Y-105811905D01*
X175476190Y-105716667D01*
X175476190Y-105335714D01*
X175952381Y-106859524D02*
X175952381Y-106288095D01*
X175952381Y-106573809D02*
X174952381Y-106573809D01*
X175095238Y-106478571D01*
X175190476Y-106383333D01*
X175238095Y-106288095D01*
X174952381Y-107716667D02*
X174952381Y-107526190D01*
X175000000Y-107430952D01*
X175047619Y-107383333D01*
X175190476Y-107288095D01*
X175380952Y-107240476D01*
X175761905Y-107240476D01*
X175857143Y-107288095D01*
X175904762Y-107335714D01*
X175952381Y-107430952D01*
X175952381Y-107621429D01*
X175904762Y-107716667D01*
X175857143Y-107764286D01*
X175761905Y-107811905D01*
X175523810Y-107811905D01*
X175428571Y-107764286D01*
X175380952Y-107716667D01*
X175333333Y-107621429D01*
X175333333Y-107430952D01*
X175380952Y-107335714D01*
X175428571Y-107288095D01*
X175523810Y-107240476D01*
X175952381Y-90357143D02*
X175476190Y-90023809D01*
X175952381Y-89785714D02*
X174952381Y-89785714D01*
X174952381Y-90166667D01*
X175000000Y-90261905D01*
X175047619Y-90309524D01*
X175142857Y-90357143D01*
X175285714Y-90357143D01*
X175380952Y-90309524D01*
X175428571Y-90261905D01*
X175476190Y-90166667D01*
X175476190Y-89785714D01*
X175952381Y-91309524D02*
X175952381Y-90738095D01*
X175952381Y-91023809D02*
X174952381Y-91023809D01*
X175095238Y-90928571D01*
X175190476Y-90833333D01*
X175238095Y-90738095D01*
X174952381Y-91642857D02*
X174952381Y-92309524D01*
X175952381Y-91880952D01*
X175952381Y-95157143D02*
X175476190Y-94823809D01*
X175952381Y-94585714D02*
X174952381Y-94585714D01*
X174952381Y-94966667D01*
X175000000Y-95061905D01*
X175047619Y-95109524D01*
X175142857Y-95157143D01*
X175285714Y-95157143D01*
X175380952Y-95109524D01*
X175428571Y-95061905D01*
X175476190Y-94966667D01*
X175476190Y-94585714D01*
X175952381Y-96109524D02*
X175952381Y-95538095D01*
X175952381Y-95823809D02*
X174952381Y-95823809D01*
X175095238Y-95728571D01*
X175190476Y-95633333D01*
X175238095Y-95538095D01*
X175380952Y-96680952D02*
X175333333Y-96585714D01*
X175285714Y-96538095D01*
X175190476Y-96490476D01*
X175142857Y-96490476D01*
X175047619Y-96538095D01*
X175000000Y-96585714D01*
X174952381Y-96680952D01*
X174952381Y-96871429D01*
X175000000Y-96966667D01*
X175047619Y-97014286D01*
X175142857Y-97061905D01*
X175190476Y-97061905D01*
X175285714Y-97014286D01*
X175333333Y-96966667D01*
X175380952Y-96871429D01*
X175380952Y-96680952D01*
X175428571Y-96585714D01*
X175476190Y-96538095D01*
X175571429Y-96490476D01*
X175761905Y-96490476D01*
X175857143Y-96538095D01*
X175904762Y-96585714D01*
X175952381Y-96680952D01*
X175952381Y-96871429D01*
X175904762Y-96966667D01*
X175857143Y-97014286D01*
X175761905Y-97061905D01*
X175571429Y-97061905D01*
X175476190Y-97014286D01*
X175428571Y-96966667D01*
X175380952Y-96871429D01*
X175952381Y-100707143D02*
X175476190Y-100373809D01*
X175952381Y-100135714D02*
X174952381Y-100135714D01*
X174952381Y-100516667D01*
X175000000Y-100611905D01*
X175047619Y-100659524D01*
X175142857Y-100707143D01*
X175285714Y-100707143D01*
X175380952Y-100659524D01*
X175428571Y-100611905D01*
X175476190Y-100516667D01*
X175476190Y-100135714D01*
X175952381Y-101659524D02*
X175952381Y-101088095D01*
X175952381Y-101373809D02*
X174952381Y-101373809D01*
X175095238Y-101278571D01*
X175190476Y-101183333D01*
X175238095Y-101088095D01*
X175952381Y-102135714D02*
X175952381Y-102326190D01*
X175904762Y-102421429D01*
X175857143Y-102469048D01*
X175714286Y-102564286D01*
X175523810Y-102611905D01*
X175142857Y-102611905D01*
X175047619Y-102564286D01*
X175000000Y-102516667D01*
X174952381Y-102421429D01*
X174952381Y-102230952D01*
X175000000Y-102135714D01*
X175047619Y-102088095D01*
X175142857Y-102040476D01*
X175380952Y-102040476D01*
X175476190Y-102088095D01*
X175523810Y-102135714D01*
X175571429Y-102230952D01*
X175571429Y-102421429D01*
X175523810Y-102516667D01*
X175476190Y-102564286D01*
X175380952Y-102611905D01*
X151392857Y-75002381D02*
X151726191Y-74526190D01*
X151964286Y-75002381D02*
X151964286Y-74002381D01*
X151583333Y-74002381D01*
X151488095Y-74050000D01*
X151440476Y-74097619D01*
X151392857Y-74192857D01*
X151392857Y-74335714D01*
X151440476Y-74430952D01*
X151488095Y-74478571D01*
X151583333Y-74526190D01*
X151964286Y-74526190D01*
X151011905Y-74097619D02*
X150964286Y-74050000D01*
X150869048Y-74002381D01*
X150630952Y-74002381D01*
X150535714Y-74050000D01*
X150488095Y-74097619D01*
X150440476Y-74192857D01*
X150440476Y-74288095D01*
X150488095Y-74430952D01*
X151059524Y-75002381D01*
X150440476Y-75002381D01*
X149821429Y-74002381D02*
X149726190Y-74002381D01*
X149630952Y-74050000D01*
X149583333Y-74097619D01*
X149535714Y-74192857D01*
X149488095Y-74383333D01*
X149488095Y-74621429D01*
X149535714Y-74811905D01*
X149583333Y-74907143D01*
X149630952Y-74954762D01*
X149726190Y-75002381D01*
X149821429Y-75002381D01*
X149916667Y-74954762D01*
X149964286Y-74907143D01*
X150011905Y-74811905D01*
X150059524Y-74621429D01*
X150059524Y-74383333D01*
X150011905Y-74192857D01*
X149964286Y-74097619D01*
X149916667Y-74050000D01*
X149821429Y-74002381D01*
X192502381Y-113357143D02*
X192026190Y-113023809D01*
X192502381Y-112785714D02*
X191502381Y-112785714D01*
X191502381Y-113166667D01*
X191550000Y-113261905D01*
X191597619Y-113309524D01*
X191692857Y-113357143D01*
X191835714Y-113357143D01*
X191930952Y-113309524D01*
X191978571Y-113261905D01*
X192026190Y-113166667D01*
X192026190Y-112785714D01*
X191597619Y-113738095D02*
X191550000Y-113785714D01*
X191502381Y-113880952D01*
X191502381Y-114119048D01*
X191550000Y-114214286D01*
X191597619Y-114261905D01*
X191692857Y-114309524D01*
X191788095Y-114309524D01*
X191930952Y-114261905D01*
X192502381Y-113690476D01*
X192502381Y-114309524D01*
X192502381Y-115261905D02*
X192502381Y-114690476D01*
X192502381Y-114976190D02*
X191502381Y-114976190D01*
X191645238Y-114880952D01*
X191740476Y-114785714D01*
X191788095Y-114690476D01*
X194102381Y-90357143D02*
X193626190Y-90023809D01*
X194102381Y-89785714D02*
X193102381Y-89785714D01*
X193102381Y-90166667D01*
X193150000Y-90261905D01*
X193197619Y-90309524D01*
X193292857Y-90357143D01*
X193435714Y-90357143D01*
X193530952Y-90309524D01*
X193578571Y-90261905D01*
X193626190Y-90166667D01*
X193626190Y-89785714D01*
X193197619Y-90738095D02*
X193150000Y-90785714D01*
X193102381Y-90880952D01*
X193102381Y-91119048D01*
X193150000Y-91214286D01*
X193197619Y-91261905D01*
X193292857Y-91309524D01*
X193388095Y-91309524D01*
X193530952Y-91261905D01*
X194102381Y-90690476D01*
X194102381Y-91309524D01*
X193197619Y-91690476D02*
X193150000Y-91738095D01*
X193102381Y-91833333D01*
X193102381Y-92071429D01*
X193150000Y-92166667D01*
X193197619Y-92214286D01*
X193292857Y-92261905D01*
X193388095Y-92261905D01*
X193530952Y-92214286D01*
X194102381Y-91642857D01*
X194102381Y-92261905D01*
X194402381Y-95907143D02*
X193926190Y-95573809D01*
X194402381Y-95335714D02*
X193402381Y-95335714D01*
X193402381Y-95716667D01*
X193450000Y-95811905D01*
X193497619Y-95859524D01*
X193592857Y-95907143D01*
X193735714Y-95907143D01*
X193830952Y-95859524D01*
X193878571Y-95811905D01*
X193926190Y-95716667D01*
X193926190Y-95335714D01*
X193497619Y-96288095D02*
X193450000Y-96335714D01*
X193402381Y-96430952D01*
X193402381Y-96669048D01*
X193450000Y-96764286D01*
X193497619Y-96811905D01*
X193592857Y-96859524D01*
X193688095Y-96859524D01*
X193830952Y-96811905D01*
X194402381Y-96240476D01*
X194402381Y-96859524D01*
X193402381Y-97192857D02*
X193402381Y-97811905D01*
X193783333Y-97478571D01*
X193783333Y-97621429D01*
X193830952Y-97716667D01*
X193878571Y-97764286D01*
X193973810Y-97811905D01*
X194211905Y-97811905D01*
X194307143Y-97764286D01*
X194354762Y-97716667D01*
X194402381Y-97621429D01*
X194402381Y-97335714D01*
X194354762Y-97240476D01*
X194307143Y-97192857D01*
X192502381Y-110107143D02*
X192026190Y-109773809D01*
X192502381Y-109535714D02*
X191502381Y-109535714D01*
X191502381Y-109916667D01*
X191550000Y-110011905D01*
X191597619Y-110059524D01*
X191692857Y-110107143D01*
X191835714Y-110107143D01*
X191930952Y-110059524D01*
X191978571Y-110011905D01*
X192026190Y-109916667D01*
X192026190Y-109535714D01*
X191597619Y-110488095D02*
X191550000Y-110535714D01*
X191502381Y-110630952D01*
X191502381Y-110869048D01*
X191550000Y-110964286D01*
X191597619Y-111011905D01*
X191692857Y-111059524D01*
X191788095Y-111059524D01*
X191930952Y-111011905D01*
X192502381Y-110440476D01*
X192502381Y-111059524D01*
X191835714Y-111916667D02*
X192502381Y-111916667D01*
X191454762Y-111678571D02*
X192169048Y-111440476D01*
X192169048Y-112059524D01*
X182666667Y-68152381D02*
X183000001Y-67676190D01*
X183238096Y-68152381D02*
X183238096Y-67152381D01*
X182857143Y-67152381D01*
X182761905Y-67200000D01*
X182714286Y-67247619D01*
X182666667Y-67342857D01*
X182666667Y-67485714D01*
X182714286Y-67580952D01*
X182761905Y-67628571D01*
X182857143Y-67676190D01*
X183238096Y-67676190D01*
X182285715Y-67247619D02*
X182238096Y-67200000D01*
X182142858Y-67152381D01*
X181904762Y-67152381D01*
X181809524Y-67200000D01*
X181761905Y-67247619D01*
X181714286Y-67342857D01*
X181714286Y-67438095D01*
X181761905Y-67580952D01*
X182333334Y-68152381D01*
X181714286Y-68152381D01*
X180809524Y-67152381D02*
X181285715Y-67152381D01*
X181333334Y-67628571D01*
X181285715Y-67580952D01*
X181190477Y-67533333D01*
X180952381Y-67533333D01*
X180857143Y-67580952D01*
X180809524Y-67628571D01*
X180761905Y-67723810D01*
X180761905Y-67961905D01*
X180809524Y-68057143D01*
X180857143Y-68104762D01*
X180952381Y-68152381D01*
X181190477Y-68152381D01*
X181285715Y-68104762D01*
X181333334Y-68057143D01*
X182666667Y-70402381D02*
X183000001Y-69926190D01*
X183238096Y-70402381D02*
X183238096Y-69402381D01*
X182857143Y-69402381D01*
X182761905Y-69450000D01*
X182714286Y-69497619D01*
X182666667Y-69592857D01*
X182666667Y-69735714D01*
X182714286Y-69830952D01*
X182761905Y-69878571D01*
X182857143Y-69926190D01*
X183238096Y-69926190D01*
X182285715Y-69497619D02*
X182238096Y-69450000D01*
X182142858Y-69402381D01*
X181904762Y-69402381D01*
X181809524Y-69450000D01*
X181761905Y-69497619D01*
X181714286Y-69592857D01*
X181714286Y-69688095D01*
X181761905Y-69830952D01*
X182333334Y-70402381D01*
X181714286Y-70402381D01*
X180857143Y-69402381D02*
X181047620Y-69402381D01*
X181142858Y-69450000D01*
X181190477Y-69497619D01*
X181285715Y-69640476D01*
X181333334Y-69830952D01*
X181333334Y-70211905D01*
X181285715Y-70307143D01*
X181238096Y-70354762D01*
X181142858Y-70402381D01*
X180952381Y-70402381D01*
X180857143Y-70354762D01*
X180809524Y-70307143D01*
X180761905Y-70211905D01*
X180761905Y-69973810D01*
X180809524Y-69878571D01*
X180857143Y-69830952D01*
X180952381Y-69783333D01*
X181142858Y-69783333D01*
X181238096Y-69830952D01*
X181285715Y-69878571D01*
X181333334Y-69973810D01*
X237652381Y-99107143D02*
X237176190Y-98773809D01*
X237652381Y-98535714D02*
X236652381Y-98535714D01*
X236652381Y-98916667D01*
X236700000Y-99011905D01*
X236747619Y-99059524D01*
X236842857Y-99107143D01*
X236985714Y-99107143D01*
X237080952Y-99059524D01*
X237128571Y-99011905D01*
X237176190Y-98916667D01*
X237176190Y-98535714D01*
X236747619Y-99488095D02*
X236700000Y-99535714D01*
X236652381Y-99630952D01*
X236652381Y-99869048D01*
X236700000Y-99964286D01*
X236747619Y-100011905D01*
X236842857Y-100059524D01*
X236938095Y-100059524D01*
X237080952Y-100011905D01*
X237652381Y-99440476D01*
X237652381Y-100059524D01*
X236652381Y-100392857D02*
X236652381Y-101059524D01*
X237652381Y-100630952D01*
X182666667Y-72552381D02*
X183000001Y-72076190D01*
X183238096Y-72552381D02*
X183238096Y-71552381D01*
X182857143Y-71552381D01*
X182761905Y-71600000D01*
X182714286Y-71647619D01*
X182666667Y-71742857D01*
X182666667Y-71885714D01*
X182714286Y-71980952D01*
X182761905Y-72028571D01*
X182857143Y-72076190D01*
X183238096Y-72076190D01*
X182285715Y-71647619D02*
X182238096Y-71600000D01*
X182142858Y-71552381D01*
X181904762Y-71552381D01*
X181809524Y-71600000D01*
X181761905Y-71647619D01*
X181714286Y-71742857D01*
X181714286Y-71838095D01*
X181761905Y-71980952D01*
X182333334Y-72552381D01*
X181714286Y-72552381D01*
X181142858Y-71980952D02*
X181238096Y-71933333D01*
X181285715Y-71885714D01*
X181333334Y-71790476D01*
X181333334Y-71742857D01*
X181285715Y-71647619D01*
X181238096Y-71600000D01*
X181142858Y-71552381D01*
X180952381Y-71552381D01*
X180857143Y-71600000D01*
X180809524Y-71647619D01*
X180761905Y-71742857D01*
X180761905Y-71790476D01*
X180809524Y-71885714D01*
X180857143Y-71933333D01*
X180952381Y-71980952D01*
X181142858Y-71980952D01*
X181238096Y-72028571D01*
X181285715Y-72076190D01*
X181333334Y-72171429D01*
X181333334Y-72361905D01*
X181285715Y-72457143D01*
X181238096Y-72504762D01*
X181142858Y-72552381D01*
X180952381Y-72552381D01*
X180857143Y-72504762D01*
X180809524Y-72457143D01*
X180761905Y-72361905D01*
X180761905Y-72171429D01*
X180809524Y-72076190D01*
X180857143Y-72028571D01*
X180952381Y-71980952D01*
X237502381Y-84657143D02*
X237026190Y-84323809D01*
X237502381Y-84085714D02*
X236502381Y-84085714D01*
X236502381Y-84466667D01*
X236550000Y-84561905D01*
X236597619Y-84609524D01*
X236692857Y-84657143D01*
X236835714Y-84657143D01*
X236930952Y-84609524D01*
X236978571Y-84561905D01*
X237026190Y-84466667D01*
X237026190Y-84085714D01*
X236597619Y-85038095D02*
X236550000Y-85085714D01*
X236502381Y-85180952D01*
X236502381Y-85419048D01*
X236550000Y-85514286D01*
X236597619Y-85561905D01*
X236692857Y-85609524D01*
X236788095Y-85609524D01*
X236930952Y-85561905D01*
X237502381Y-84990476D01*
X237502381Y-85609524D01*
X237502381Y-86085714D02*
X237502381Y-86276190D01*
X237454762Y-86371429D01*
X237407143Y-86419048D01*
X237264286Y-86514286D01*
X237073810Y-86561905D01*
X236692857Y-86561905D01*
X236597619Y-86514286D01*
X236550000Y-86466667D01*
X236502381Y-86371429D01*
X236502381Y-86180952D01*
X236550000Y-86085714D01*
X236597619Y-86038095D01*
X236692857Y-85990476D01*
X236930952Y-85990476D01*
X237026190Y-86038095D01*
X237073810Y-86085714D01*
X237121429Y-86180952D01*
X237121429Y-86371429D01*
X237073810Y-86466667D01*
X237026190Y-86514286D01*
X236930952Y-86561905D01*
X187092857Y-83652381D02*
X187426191Y-83176190D01*
X187664286Y-83652381D02*
X187664286Y-82652381D01*
X187283333Y-82652381D01*
X187188095Y-82700000D01*
X187140476Y-82747619D01*
X187092857Y-82842857D01*
X187092857Y-82985714D01*
X187140476Y-83080952D01*
X187188095Y-83128571D01*
X187283333Y-83176190D01*
X187664286Y-83176190D01*
X186759524Y-82652381D02*
X186140476Y-82652381D01*
X186473810Y-83033333D01*
X186330952Y-83033333D01*
X186235714Y-83080952D01*
X186188095Y-83128571D01*
X186140476Y-83223810D01*
X186140476Y-83461905D01*
X186188095Y-83557143D01*
X186235714Y-83604762D01*
X186330952Y-83652381D01*
X186616667Y-83652381D01*
X186711905Y-83604762D01*
X186759524Y-83557143D01*
X185521429Y-82652381D02*
X185426190Y-82652381D01*
X185330952Y-82700000D01*
X185283333Y-82747619D01*
X185235714Y-82842857D01*
X185188095Y-83033333D01*
X185188095Y-83271429D01*
X185235714Y-83461905D01*
X185283333Y-83557143D01*
X185330952Y-83604762D01*
X185426190Y-83652381D01*
X185521429Y-83652381D01*
X185616667Y-83604762D01*
X185664286Y-83557143D01*
X185711905Y-83461905D01*
X185759524Y-83271429D01*
X185759524Y-83033333D01*
X185711905Y-82842857D01*
X185664286Y-82747619D01*
X185616667Y-82700000D01*
X185521429Y-82652381D01*
X237502381Y-69457143D02*
X237026190Y-69123809D01*
X237502381Y-68885714D02*
X236502381Y-68885714D01*
X236502381Y-69266667D01*
X236550000Y-69361905D01*
X236597619Y-69409524D01*
X236692857Y-69457143D01*
X236835714Y-69457143D01*
X236930952Y-69409524D01*
X236978571Y-69361905D01*
X237026190Y-69266667D01*
X237026190Y-68885714D01*
X236502381Y-69790476D02*
X236502381Y-70409524D01*
X236883333Y-70076190D01*
X236883333Y-70219048D01*
X236930952Y-70314286D01*
X236978571Y-70361905D01*
X237073810Y-70409524D01*
X237311905Y-70409524D01*
X237407143Y-70361905D01*
X237454762Y-70314286D01*
X237502381Y-70219048D01*
X237502381Y-69933333D01*
X237454762Y-69838095D01*
X237407143Y-69790476D01*
X237502381Y-71361905D02*
X237502381Y-70790476D01*
X237502381Y-71076190D02*
X236502381Y-71076190D01*
X236645238Y-70980952D01*
X236740476Y-70885714D01*
X236788095Y-70790476D01*
X220452381Y-77957143D02*
X219976190Y-77623809D01*
X220452381Y-77385714D02*
X219452381Y-77385714D01*
X219452381Y-77766667D01*
X219500000Y-77861905D01*
X219547619Y-77909524D01*
X219642857Y-77957143D01*
X219785714Y-77957143D01*
X219880952Y-77909524D01*
X219928571Y-77861905D01*
X219976190Y-77766667D01*
X219976190Y-77385714D01*
X219452381Y-78290476D02*
X219452381Y-78909524D01*
X219833333Y-78576190D01*
X219833333Y-78719048D01*
X219880952Y-78814286D01*
X219928571Y-78861905D01*
X220023810Y-78909524D01*
X220261905Y-78909524D01*
X220357143Y-78861905D01*
X220404762Y-78814286D01*
X220452381Y-78719048D01*
X220452381Y-78433333D01*
X220404762Y-78338095D01*
X220357143Y-78290476D01*
X219547619Y-79290476D02*
X219500000Y-79338095D01*
X219452381Y-79433333D01*
X219452381Y-79671429D01*
X219500000Y-79766667D01*
X219547619Y-79814286D01*
X219642857Y-79861905D01*
X219738095Y-79861905D01*
X219880952Y-79814286D01*
X220452381Y-79242857D01*
X220452381Y-79861905D01*
X187042857Y-81752381D02*
X187376191Y-81276190D01*
X187614286Y-81752381D02*
X187614286Y-80752381D01*
X187233333Y-80752381D01*
X187138095Y-80800000D01*
X187090476Y-80847619D01*
X187042857Y-80942857D01*
X187042857Y-81085714D01*
X187090476Y-81180952D01*
X187138095Y-81228571D01*
X187233333Y-81276190D01*
X187614286Y-81276190D01*
X186709524Y-80752381D02*
X186090476Y-80752381D01*
X186423810Y-81133333D01*
X186280952Y-81133333D01*
X186185714Y-81180952D01*
X186138095Y-81228571D01*
X186090476Y-81323810D01*
X186090476Y-81561905D01*
X186138095Y-81657143D01*
X186185714Y-81704762D01*
X186280952Y-81752381D01*
X186566667Y-81752381D01*
X186661905Y-81704762D01*
X186709524Y-81657143D01*
X185757143Y-80752381D02*
X185138095Y-80752381D01*
X185471429Y-81133333D01*
X185328571Y-81133333D01*
X185233333Y-81180952D01*
X185185714Y-81228571D01*
X185138095Y-81323810D01*
X185138095Y-81561905D01*
X185185714Y-81657143D01*
X185233333Y-81704762D01*
X185328571Y-81752381D01*
X185614286Y-81752381D01*
X185709524Y-81704762D01*
X185757143Y-81657143D01*
X218052381Y-77957143D02*
X217576190Y-77623809D01*
X218052381Y-77385714D02*
X217052381Y-77385714D01*
X217052381Y-77766667D01*
X217100000Y-77861905D01*
X217147619Y-77909524D01*
X217242857Y-77957143D01*
X217385714Y-77957143D01*
X217480952Y-77909524D01*
X217528571Y-77861905D01*
X217576190Y-77766667D01*
X217576190Y-77385714D01*
X217052381Y-78290476D02*
X217052381Y-78909524D01*
X217433333Y-78576190D01*
X217433333Y-78719048D01*
X217480952Y-78814286D01*
X217528571Y-78861905D01*
X217623810Y-78909524D01*
X217861905Y-78909524D01*
X217957143Y-78861905D01*
X218004762Y-78814286D01*
X218052381Y-78719048D01*
X218052381Y-78433333D01*
X218004762Y-78338095D01*
X217957143Y-78290476D01*
X217385714Y-79766667D02*
X218052381Y-79766667D01*
X217004762Y-79528571D02*
X217719048Y-79290476D01*
X217719048Y-79909524D01*
X215752381Y-77957143D02*
X215276190Y-77623809D01*
X215752381Y-77385714D02*
X214752381Y-77385714D01*
X214752381Y-77766667D01*
X214800000Y-77861905D01*
X214847619Y-77909524D01*
X214942857Y-77957143D01*
X215085714Y-77957143D01*
X215180952Y-77909524D01*
X215228571Y-77861905D01*
X215276190Y-77766667D01*
X215276190Y-77385714D01*
X214752381Y-78290476D02*
X214752381Y-78909524D01*
X215133333Y-78576190D01*
X215133333Y-78719048D01*
X215180952Y-78814286D01*
X215228571Y-78861905D01*
X215323810Y-78909524D01*
X215561905Y-78909524D01*
X215657143Y-78861905D01*
X215704762Y-78814286D01*
X215752381Y-78719048D01*
X215752381Y-78433333D01*
X215704762Y-78338095D01*
X215657143Y-78290476D01*
X214752381Y-79814286D02*
X214752381Y-79338095D01*
X215228571Y-79290476D01*
X215180952Y-79338095D01*
X215133333Y-79433333D01*
X215133333Y-79671429D01*
X215180952Y-79766667D01*
X215228571Y-79814286D01*
X215323810Y-79861905D01*
X215561905Y-79861905D01*
X215657143Y-79814286D01*
X215704762Y-79766667D01*
X215752381Y-79671429D01*
X215752381Y-79433333D01*
X215704762Y-79338095D01*
X215657143Y-79290476D01*
X240202381Y-54257143D02*
X239726190Y-53923809D01*
X240202381Y-53685714D02*
X239202381Y-53685714D01*
X239202381Y-54066667D01*
X239250000Y-54161905D01*
X239297619Y-54209524D01*
X239392857Y-54257143D01*
X239535714Y-54257143D01*
X239630952Y-54209524D01*
X239678571Y-54161905D01*
X239726190Y-54066667D01*
X239726190Y-53685714D01*
X239202381Y-54590476D02*
X239202381Y-55209524D01*
X239583333Y-54876190D01*
X239583333Y-55019048D01*
X239630952Y-55114286D01*
X239678571Y-55161905D01*
X239773810Y-55209524D01*
X240011905Y-55209524D01*
X240107143Y-55161905D01*
X240154762Y-55114286D01*
X240202381Y-55019048D01*
X240202381Y-54733333D01*
X240154762Y-54638095D01*
X240107143Y-54590476D01*
X239202381Y-56066667D02*
X239202381Y-55876190D01*
X239250000Y-55780952D01*
X239297619Y-55733333D01*
X239440476Y-55638095D01*
X239630952Y-55590476D01*
X240011905Y-55590476D01*
X240107143Y-55638095D01*
X240154762Y-55685714D01*
X240202381Y-55780952D01*
X240202381Y-55971429D01*
X240154762Y-56066667D01*
X240107143Y-56114286D01*
X240011905Y-56161905D01*
X239773810Y-56161905D01*
X239678571Y-56114286D01*
X239630952Y-56066667D01*
X239583333Y-55971429D01*
X239583333Y-55780952D01*
X239630952Y-55685714D01*
X239678571Y-55638095D01*
X239773810Y-55590476D01*
X246883333Y-103654762D02*
X246740476Y-103702381D01*
X246502380Y-103702381D01*
X246407142Y-103654762D01*
X246359523Y-103607143D01*
X246311904Y-103511905D01*
X246311904Y-103416667D01*
X246359523Y-103321429D01*
X246407142Y-103273810D01*
X246502380Y-103226190D01*
X246692857Y-103178571D01*
X246788095Y-103130952D01*
X246835714Y-103083333D01*
X246883333Y-102988095D01*
X246883333Y-102892857D01*
X246835714Y-102797619D01*
X246788095Y-102750000D01*
X246692857Y-102702381D01*
X246454761Y-102702381D01*
X246311904Y-102750000D01*
X245978571Y-102702381D02*
X245740476Y-103702381D01*
X245549999Y-102988095D01*
X245359523Y-103702381D01*
X245121428Y-102702381D01*
X244216666Y-103702381D02*
X244788095Y-103702381D01*
X244502381Y-103702381D02*
X244502381Y-102702381D01*
X244597619Y-102845238D01*
X244692857Y-102940476D01*
X244788095Y-102988095D01*
X245933333Y-89204762D02*
X245790476Y-89252381D01*
X245552380Y-89252381D01*
X245457142Y-89204762D01*
X245409523Y-89157143D01*
X245361904Y-89061905D01*
X245361904Y-88966667D01*
X245409523Y-88871429D01*
X245457142Y-88823810D01*
X245552380Y-88776190D01*
X245742857Y-88728571D01*
X245838095Y-88680952D01*
X245885714Y-88633333D01*
X245933333Y-88538095D01*
X245933333Y-88442857D01*
X245885714Y-88347619D01*
X245838095Y-88300000D01*
X245742857Y-88252381D01*
X245504761Y-88252381D01*
X245361904Y-88300000D01*
X245028571Y-88252381D02*
X244790476Y-89252381D01*
X244599999Y-88538095D01*
X244409523Y-89252381D01*
X244171428Y-88252381D01*
X243838095Y-88347619D02*
X243790476Y-88300000D01*
X243695238Y-88252381D01*
X243457142Y-88252381D01*
X243361904Y-88300000D01*
X243314285Y-88347619D01*
X243266666Y-88442857D01*
X243266666Y-88538095D01*
X243314285Y-88680952D01*
X243885714Y-89252381D01*
X243266666Y-89252381D01*
X245983333Y-74504762D02*
X245840476Y-74552381D01*
X245602380Y-74552381D01*
X245507142Y-74504762D01*
X245459523Y-74457143D01*
X245411904Y-74361905D01*
X245411904Y-74266667D01*
X245459523Y-74171429D01*
X245507142Y-74123810D01*
X245602380Y-74076190D01*
X245792857Y-74028571D01*
X245888095Y-73980952D01*
X245935714Y-73933333D01*
X245983333Y-73838095D01*
X245983333Y-73742857D01*
X245935714Y-73647619D01*
X245888095Y-73600000D01*
X245792857Y-73552381D01*
X245554761Y-73552381D01*
X245411904Y-73600000D01*
X245078571Y-73552381D02*
X244840476Y-74552381D01*
X244649999Y-73838095D01*
X244459523Y-74552381D01*
X244221428Y-73552381D01*
X243935714Y-73552381D02*
X243316666Y-73552381D01*
X243650000Y-73933333D01*
X243507142Y-73933333D01*
X243411904Y-73980952D01*
X243364285Y-74028571D01*
X243316666Y-74123810D01*
X243316666Y-74361905D01*
X243364285Y-74457143D01*
X243411904Y-74504762D01*
X243507142Y-74552381D01*
X243792857Y-74552381D01*
X243888095Y-74504762D01*
X243935714Y-74457143D01*
X198061905Y-61877381D02*
X198061905Y-62686905D01*
X198014286Y-62782143D01*
X197966667Y-62829762D01*
X197871429Y-62877381D01*
X197680952Y-62877381D01*
X197585714Y-62829762D01*
X197538095Y-62782143D01*
X197490476Y-62686905D01*
X197490476Y-61877381D01*
X196490476Y-62877381D02*
X197061905Y-62877381D01*
X196776191Y-62877381D02*
X196776191Y-61877381D01*
X196871429Y-62020238D01*
X196966667Y-62115476D01*
X197061905Y-62163095D01*
X216552381Y-101738095D02*
X217361905Y-101738095D01*
X217457143Y-101785714D01*
X217504762Y-101833333D01*
X217552381Y-101928571D01*
X217552381Y-102119048D01*
X217504762Y-102214286D01*
X217457143Y-102261905D01*
X217361905Y-102309524D01*
X216552381Y-102309524D01*
X216647619Y-102738095D02*
X216600000Y-102785714D01*
X216552381Y-102880952D01*
X216552381Y-103119048D01*
X216600000Y-103214286D01*
X216647619Y-103261905D01*
X216742857Y-103309524D01*
X216838095Y-103309524D01*
X216980952Y-103261905D01*
X217552381Y-102690476D01*
X217552381Y-103309524D01*
X211711905Y-60552381D02*
X211711905Y-61361905D01*
X211664286Y-61457143D01*
X211616667Y-61504762D01*
X211521429Y-61552381D01*
X211330952Y-61552381D01*
X211235714Y-61504762D01*
X211188095Y-61457143D01*
X211140476Y-61361905D01*
X211140476Y-60552381D01*
X210759524Y-60552381D02*
X210140476Y-60552381D01*
X210473810Y-60933333D01*
X210330952Y-60933333D01*
X210235714Y-60980952D01*
X210188095Y-61028571D01*
X210140476Y-61123810D01*
X210140476Y-61361905D01*
X210188095Y-61457143D01*
X210235714Y-61504762D01*
X210330952Y-61552381D01*
X210616667Y-61552381D01*
X210711905Y-61504762D01*
X210759524Y-61457143D01*
X224411905Y-87852381D02*
X224411905Y-88661905D01*
X224364286Y-88757143D01*
X224316667Y-88804762D01*
X224221429Y-88852381D01*
X224030952Y-88852381D01*
X223935714Y-88804762D01*
X223888095Y-88757143D01*
X223840476Y-88661905D01*
X223840476Y-87852381D01*
X222935714Y-88185714D02*
X222935714Y-88852381D01*
X223173810Y-87804762D02*
X223411905Y-88519048D01*
X222792857Y-88519048D01*
X195507143Y-97057143D02*
X195554762Y-97009524D01*
X195602381Y-96866667D01*
X195602381Y-96771429D01*
X195554762Y-96628571D01*
X195459524Y-96533333D01*
X195364286Y-96485714D01*
X195173810Y-96438095D01*
X195030952Y-96438095D01*
X194840476Y-96485714D01*
X194745238Y-96533333D01*
X194650000Y-96628571D01*
X194602381Y-96771429D01*
X194602381Y-96866667D01*
X194650000Y-97009524D01*
X194697619Y-97057143D01*
X195602381Y-98009524D02*
X195602381Y-97438095D01*
X195602381Y-97723809D02*
X194602381Y-97723809D01*
X194745238Y-97628571D01*
X194840476Y-97533333D01*
X194888095Y-97438095D01*
X195030952Y-98580952D02*
X194983333Y-98485714D01*
X194935714Y-98438095D01*
X194840476Y-98390476D01*
X194792857Y-98390476D01*
X194697619Y-98438095D01*
X194650000Y-98485714D01*
X194602381Y-98580952D01*
X194602381Y-98771429D01*
X194650000Y-98866667D01*
X194697619Y-98914286D01*
X194792857Y-98961905D01*
X194840476Y-98961905D01*
X194935714Y-98914286D01*
X194983333Y-98866667D01*
X195030952Y-98771429D01*
X195030952Y-98580952D01*
X195078571Y-98485714D01*
X195126190Y-98438095D01*
X195221429Y-98390476D01*
X195411905Y-98390476D01*
X195507143Y-98438095D01*
X195554762Y-98485714D01*
X195602381Y-98580952D01*
X195602381Y-98771429D01*
X195554762Y-98866667D01*
X195507143Y-98914286D01*
X195411905Y-98961905D01*
X195221429Y-98961905D01*
X195126190Y-98914286D01*
X195078571Y-98866667D01*
X195030952Y-98771429D01*
X174147619Y-106483334D02*
X174100000Y-106388096D01*
X174004762Y-106292858D01*
X173861905Y-106150001D01*
X173814286Y-106054762D01*
X173814286Y-105959524D01*
X174052381Y-106007143D02*
X174004762Y-105911905D01*
X173909524Y-105816667D01*
X173719048Y-105769048D01*
X173385714Y-105769048D01*
X173195238Y-105816667D01*
X173100000Y-105911905D01*
X173052381Y-106007143D01*
X173052381Y-106197620D01*
X173100000Y-106292858D01*
X173195238Y-106388096D01*
X173385714Y-106435715D01*
X173719048Y-106435715D01*
X173909524Y-106388096D01*
X174004762Y-106292858D01*
X174052381Y-106197620D01*
X174052381Y-106007143D01*
X174052381Y-107388096D02*
X174052381Y-106816667D01*
X174052381Y-107102381D02*
X173052381Y-107102381D01*
X173195238Y-107007143D01*
X173290476Y-106911905D01*
X173338095Y-106816667D01*
X174147619Y-90954762D02*
X174100000Y-90859524D01*
X174004762Y-90764286D01*
X173861905Y-90621429D01*
X173814286Y-90526190D01*
X173814286Y-90430952D01*
X174052381Y-90478571D02*
X174004762Y-90383333D01*
X173909524Y-90288095D01*
X173719048Y-90240476D01*
X173385714Y-90240476D01*
X173195238Y-90288095D01*
X173100000Y-90383333D01*
X173052381Y-90478571D01*
X173052381Y-90669048D01*
X173100000Y-90764286D01*
X173195238Y-90859524D01*
X173385714Y-90907143D01*
X173719048Y-90907143D01*
X173909524Y-90859524D01*
X174004762Y-90764286D01*
X174052381Y-90669048D01*
X174052381Y-90478571D01*
X173147619Y-91288095D02*
X173100000Y-91335714D01*
X173052381Y-91430952D01*
X173052381Y-91669048D01*
X173100000Y-91764286D01*
X173147619Y-91811905D01*
X173242857Y-91859524D01*
X173338095Y-91859524D01*
X173480952Y-91811905D01*
X174052381Y-91240476D01*
X174052381Y-91859524D01*
X174147619Y-95954762D02*
X174100000Y-95859524D01*
X174004762Y-95764286D01*
X173861905Y-95621429D01*
X173814286Y-95526190D01*
X173814286Y-95430952D01*
X174052381Y-95478571D02*
X174004762Y-95383333D01*
X173909524Y-95288095D01*
X173719048Y-95240476D01*
X173385714Y-95240476D01*
X173195238Y-95288095D01*
X173100000Y-95383333D01*
X173052381Y-95478571D01*
X173052381Y-95669048D01*
X173100000Y-95764286D01*
X173195238Y-95859524D01*
X173385714Y-95907143D01*
X173719048Y-95907143D01*
X173909524Y-95859524D01*
X174004762Y-95764286D01*
X174052381Y-95669048D01*
X174052381Y-95478571D01*
X173052381Y-96240476D02*
X173052381Y-96859524D01*
X173433333Y-96526190D01*
X173433333Y-96669048D01*
X173480952Y-96764286D01*
X173528571Y-96811905D01*
X173623810Y-96859524D01*
X173861905Y-96859524D01*
X173957143Y-96811905D01*
X174004762Y-96764286D01*
X174052381Y-96669048D01*
X174052381Y-96383333D01*
X174004762Y-96288095D01*
X173957143Y-96240476D01*
X174147619Y-101283334D02*
X174100000Y-101188096D01*
X174004762Y-101092858D01*
X173861905Y-100950001D01*
X173814286Y-100854762D01*
X173814286Y-100759524D01*
X174052381Y-100807143D02*
X174004762Y-100711905D01*
X173909524Y-100616667D01*
X173719048Y-100569048D01*
X173385714Y-100569048D01*
X173195238Y-100616667D01*
X173100000Y-100711905D01*
X173052381Y-100807143D01*
X173052381Y-100997620D01*
X173100000Y-101092858D01*
X173195238Y-101188096D01*
X173385714Y-101235715D01*
X173719048Y-101235715D01*
X173909524Y-101188096D01*
X174004762Y-101092858D01*
X174052381Y-100997620D01*
X174052381Y-100807143D01*
X173385714Y-102092858D02*
X174052381Y-102092858D01*
X173004762Y-101854762D02*
X173719048Y-101616667D01*
X173719048Y-102235715D01*
X229276190Y-88673809D02*
X229752381Y-88673809D01*
X228752381Y-88340476D02*
X229276190Y-88673809D01*
X228752381Y-89007143D01*
X229752381Y-89864286D02*
X229752381Y-89292857D01*
X229752381Y-89578571D02*
X228752381Y-89578571D01*
X228895238Y-89483333D01*
X228990476Y-89388095D01*
X229038095Y-89292857D01*
X214472381Y-91866667D02*
X215186667Y-91866667D01*
X215329524Y-91819047D01*
X215424762Y-91723809D01*
X215472381Y-91580952D01*
X215472381Y-91485714D01*
X214805714Y-92771429D02*
X215472381Y-92771429D01*
X214424762Y-92533333D02*
X215139048Y-92295238D01*
X215139048Y-92914286D01*
M02*
