G04 #@! TF.FileFunction,Copper,L2,Bot,Signal*
%FSLAX46Y46*%
G04 Gerber Fmt 4.6, Leading zero omitted, Abs format (unit mm)*
G04 Created by KiCad (PCBNEW 4.0.6) date 01/08/18 11:05:27*
%MOMM*%
%LPD*%
G01*
G04 APERTURE LIST*
%ADD10C,0.100000*%
%ADD11C,4.000000*%
%ADD12R,1.624000X2.724000*%
%ADD13O,1.624000X2.724000*%
%ADD14C,1.524000*%
%ADD15R,1.250000X1.500000*%
%ADD16R,2.500000X4.500000*%
%ADD17R,1.500000X1.250000*%
%ADD18R,2.500000X4.000000*%
%ADD19R,2.000000X1.600000*%
%ADD20R,2.500000X1.800000*%
%ADD21R,1.200000X1.200000*%
%ADD22R,3.500000X2.300000*%
%ADD23R,1.800000X1.800000*%
%ADD24C,1.800000*%
%ADD25R,1.450000X0.450000*%
%ADD26R,3.500120X3.500120*%
%ADD27C,1.520000*%
%ADD28R,1.520000X1.520000*%
%ADD29R,2.624000X6.000000*%
%ADD30R,2.000000X2.000000*%
%ADD31C,2.000000*%
%ADD32R,1.254000X0.800100*%
%ADD33R,2.000000X1.700000*%
%ADD34R,1.300000X1.500000*%
%ADD35R,1.500000X1.300000*%
%ADD36O,1.624000X1.924000*%
%ADD37O,1.824000X2.324000*%
%ADD38R,2.224000X0.674000*%
%ADD39R,2.224000X0.674400*%
%ADD40R,0.700000X1.700000*%
%ADD41R,1.724000X0.654000*%
%ADD42R,1.700000X0.700000*%
%ADD43R,0.750000X2.500000*%
%ADD44R,3.000000X2.000000*%
%ADD45R,1.824000X2.524000*%
%ADD46O,1.824000X2.524000*%
%ADD47C,1.100000*%
%ADD48C,0.700000*%
%ADD49C,0.300000*%
%ADD50C,0.600000*%
%ADD51C,0.500000*%
%ADD52C,1.000000*%
%ADD53C,0.400000*%
%ADD54C,2.000000*%
%ADD55C,1.500000*%
%ADD56C,0.350000*%
%ADD57C,0.800000*%
%ADD58C,0.254000*%
G04 APERTURE END LIST*
D10*
D11*
X145000000Y-55000000D03*
D12*
X59000000Y-115000000D03*
D13*
X61540000Y-115000000D03*
X64080000Y-115000000D03*
X66620000Y-115000000D03*
X69160000Y-115000000D03*
X69160000Y-54800000D03*
X66620000Y-54800000D03*
X64080000Y-54800000D03*
X61540000Y-54800000D03*
X59000000Y-54800000D03*
D12*
X106910000Y-115000000D03*
D13*
X109450000Y-115000000D03*
X111990000Y-115000000D03*
X114530000Y-115000000D03*
X117070000Y-115000000D03*
X117070000Y-54800000D03*
X114530000Y-54800000D03*
X111990000Y-54800000D03*
X109450000Y-54800000D03*
X106910000Y-54800000D03*
D12*
X172920000Y-115000000D03*
D13*
X175460000Y-115000000D03*
X178000000Y-115000000D03*
X180540000Y-115000000D03*
X183080000Y-115000000D03*
X183080000Y-54800000D03*
X180540000Y-54800000D03*
X178000000Y-54800000D03*
X175460000Y-54800000D03*
X172920000Y-54800000D03*
D12*
X220840000Y-115000000D03*
D13*
X223380000Y-115000000D03*
X225920000Y-115000000D03*
X228460000Y-115000000D03*
X231000000Y-115000000D03*
X231000000Y-54800000D03*
X228460000Y-54800000D03*
X225920000Y-54800000D03*
X223380000Y-54800000D03*
X220840000Y-54800000D03*
D10*
G36*
X222431296Y-76490806D02*
X220899208Y-75205230D01*
X224113146Y-71375008D01*
X225645234Y-72660584D01*
X222431296Y-76490806D01*
X222431296Y-76490806D01*
G37*
G36*
X232715898Y-64234095D02*
X231183810Y-62948519D01*
X234397748Y-59118297D01*
X235929836Y-60403873D01*
X232715898Y-64234095D01*
X232715898Y-64234095D01*
G37*
D14*
X225843371Y-70868729D03*
X230600000Y-65200000D03*
D15*
X225400000Y-105550000D03*
X225400000Y-103050000D03*
D16*
X231600000Y-104800000D03*
X231600000Y-97800000D03*
D15*
X238950000Y-95250000D03*
X238950000Y-92750000D03*
X238950000Y-80750000D03*
X238950000Y-78250000D03*
D17*
X196150000Y-76700000D03*
X198650000Y-76700000D03*
X212250000Y-74200000D03*
X209750000Y-74200000D03*
D18*
X201100000Y-100300000D03*
X201100000Y-106400000D03*
D15*
X225400000Y-97750000D03*
X225400000Y-100250000D03*
D19*
X205800000Y-77400000D03*
X209800000Y-77400000D03*
D15*
X238950000Y-66000000D03*
X238950000Y-63500000D03*
X199800000Y-83150000D03*
X199800000Y-80650000D03*
X202200000Y-83050000D03*
X202200000Y-80550000D03*
X234500000Y-85750000D03*
X234500000Y-83250000D03*
X228700000Y-85750000D03*
X228700000Y-83250000D03*
D10*
G36*
X223666168Y-77089717D02*
X224469653Y-76132162D01*
X225618720Y-77096343D01*
X224815235Y-78053898D01*
X223666168Y-77089717D01*
X223666168Y-77089717D01*
G37*
G36*
X225581280Y-78696687D02*
X226384765Y-77739132D01*
X227533832Y-78703313D01*
X226730347Y-79660868D01*
X225581280Y-78696687D01*
X225581280Y-78696687D01*
G37*
D17*
X206550000Y-79800000D03*
X209050000Y-79800000D03*
X221050000Y-81100000D03*
X223550000Y-81100000D03*
D20*
X229000000Y-109900000D03*
X233000000Y-109900000D03*
D21*
X195100000Y-110500000D03*
X195100000Y-112700000D03*
D22*
X214300000Y-107900000D03*
X208900000Y-107900000D03*
D23*
X146500000Y-71500000D03*
D24*
X143960000Y-71500000D03*
D21*
X198850000Y-94750000D03*
X201050000Y-94750000D03*
D23*
X146500000Y-98500000D03*
D24*
X143960000Y-98500000D03*
D25*
X204750000Y-87625000D03*
X204750000Y-86975000D03*
X204750000Y-86325000D03*
X204750000Y-85675000D03*
X204750000Y-85025000D03*
X204750000Y-84375000D03*
X204750000Y-83725000D03*
X204750000Y-83075000D03*
X204750000Y-82425000D03*
X204750000Y-81775000D03*
X210650000Y-81775000D03*
X210650000Y-82425000D03*
X210650000Y-83075000D03*
X210650000Y-83725000D03*
X210650000Y-84375000D03*
X210650000Y-85025000D03*
X210650000Y-85675000D03*
X210650000Y-86325000D03*
X210650000Y-86975000D03*
X210650000Y-87625000D03*
D26*
X238299860Y-110500000D03*
X244299340Y-110500000D03*
X241299600Y-115199000D03*
D27*
X245500000Y-56210000D03*
X245500000Y-53670000D03*
D28*
X245500000Y-58750000D03*
D29*
X209100000Y-100200000D03*
X213500000Y-100200000D03*
D30*
X170300000Y-85800000D03*
D31*
X170300000Y-78200000D03*
D32*
X189500000Y-105700000D03*
X189500000Y-107600000D03*
X187499240Y-106650000D03*
X189400760Y-90050000D03*
X189400760Y-91950000D03*
X187400000Y-91000000D03*
X189400000Y-95300000D03*
X189400000Y-97200000D03*
X187399240Y-96250000D03*
X189500000Y-100500000D03*
X189500000Y-102400000D03*
X187499240Y-101450000D03*
X180600760Y-84850000D03*
X180600760Y-86750000D03*
X178600000Y-85800000D03*
X180600760Y-79600000D03*
X180600760Y-81500000D03*
X178600000Y-80550000D03*
D33*
X222700000Y-108600000D03*
X218700000Y-108600000D03*
D34*
X195100000Y-108100000D03*
X195100000Y-105400000D03*
D35*
X220050000Y-95100000D03*
X217350000Y-95100000D03*
X225550000Y-95100000D03*
X222850000Y-95100000D03*
X187700000Y-63300000D03*
X185000000Y-63300000D03*
D34*
X199800000Y-88450000D03*
X199800000Y-85750000D03*
D35*
X187700000Y-65500000D03*
X185000000Y-65500000D03*
X187700000Y-61100000D03*
X185000000Y-61100000D03*
D34*
X185200000Y-108100000D03*
X185200000Y-105400000D03*
D35*
X187700000Y-76500000D03*
X185000000Y-76500000D03*
D34*
X185200000Y-92350000D03*
X185200000Y-89650000D03*
X185200000Y-97600000D03*
X185200000Y-94900000D03*
X185200000Y-102850000D03*
X185200000Y-100150000D03*
D35*
X198850000Y-92100000D03*
X201550000Y-92100000D03*
X187700000Y-74300000D03*
X185000000Y-74300000D03*
D34*
X183000000Y-108100000D03*
X183000000Y-105400000D03*
X183000000Y-92350000D03*
X183000000Y-89650000D03*
X183000000Y-97600000D03*
X183000000Y-94900000D03*
X183000000Y-102850000D03*
X183000000Y-100150000D03*
D35*
X152100000Y-76250000D03*
X149400000Y-76250000D03*
D34*
X192100000Y-108100000D03*
X192100000Y-105400000D03*
X191900000Y-92350000D03*
X191900000Y-89650000D03*
X192000000Y-97600000D03*
X192000000Y-94900000D03*
X192050000Y-102850000D03*
X192050000Y-100150000D03*
D35*
X187700000Y-67700000D03*
X185000000Y-67700000D03*
X187700000Y-69900000D03*
X185000000Y-69900000D03*
D34*
X238950000Y-101100000D03*
X238950000Y-98400000D03*
D35*
X187700000Y-72100000D03*
X185000000Y-72100000D03*
D34*
X238950000Y-86600000D03*
X238950000Y-83900000D03*
D35*
X185150000Y-84800000D03*
X187850000Y-84800000D03*
D34*
X238950000Y-72100000D03*
X238950000Y-69400000D03*
X218300000Y-79950000D03*
X218300000Y-77250000D03*
D35*
X187750000Y-79600000D03*
X185050000Y-79600000D03*
D34*
X215900000Y-79950000D03*
X215900000Y-77250000D03*
X213600000Y-79950000D03*
X213600000Y-77250000D03*
X241500000Y-56350000D03*
X241500000Y-53650000D03*
D36*
X245500000Y-94750000D03*
X245500000Y-99250000D03*
D37*
X243000000Y-93500000D03*
X243000000Y-100500000D03*
D36*
X245500000Y-80125000D03*
X245500000Y-84625000D03*
D37*
X243000000Y-78875000D03*
X243000000Y-85875000D03*
D36*
X245500000Y-65500000D03*
X245500000Y-70000000D03*
D37*
X243000000Y-64250000D03*
X243000000Y-71250000D03*
D38*
X202000000Y-64220000D03*
X202000000Y-65490000D03*
X202000000Y-66760000D03*
X202000000Y-68030000D03*
X202000000Y-69300000D03*
X202000000Y-70570000D03*
X202000000Y-71840000D03*
X202000000Y-73110000D03*
X202000000Y-74380000D03*
X192600000Y-74380000D03*
X192600000Y-73110000D03*
X192600000Y-71840000D03*
X192600000Y-70570000D03*
X192600000Y-69300000D03*
X192600000Y-68030000D03*
X192600000Y-66760000D03*
X192600000Y-65490000D03*
D39*
X192600000Y-64220000D03*
D40*
X218695000Y-99800000D03*
X219965000Y-99800000D03*
X221235000Y-99800000D03*
X222505000Y-99800000D03*
X222505000Y-105200000D03*
X221235000Y-105200000D03*
X219965000Y-105200000D03*
X218695000Y-105200000D03*
D41*
X207450000Y-71820000D03*
X207450000Y-70550000D03*
X207450000Y-69280000D03*
X207450000Y-68010000D03*
X207450000Y-66740000D03*
X207450000Y-65470000D03*
X207450000Y-64200000D03*
X207450000Y-62930000D03*
X214550000Y-62930000D03*
X214550000Y-64200000D03*
X214550000Y-65470000D03*
X214550000Y-66740000D03*
X214550000Y-68010000D03*
X214550000Y-69280000D03*
X214550000Y-70550000D03*
X214550000Y-71820000D03*
D42*
X224900000Y-82995000D03*
X224900000Y-84265000D03*
X224900000Y-85535000D03*
X224900000Y-86805000D03*
X219500000Y-86805000D03*
X219500000Y-85535000D03*
X219500000Y-84265000D03*
X219500000Y-82995000D03*
D15*
X195100000Y-100350000D03*
X195100000Y-102850000D03*
D32*
X180600760Y-105628572D03*
X180600760Y-107528572D03*
X178600000Y-106578572D03*
X180600760Y-89978572D03*
X180600760Y-91878572D03*
X178600000Y-90928572D03*
X180600760Y-95228572D03*
X180600760Y-97128572D03*
X178600000Y-96178572D03*
X180600760Y-100428572D03*
X180600760Y-102328572D03*
X178600000Y-101378572D03*
D43*
X230850000Y-83200000D03*
X232350000Y-83200000D03*
D44*
X231600000Y-92400000D03*
D45*
X212690000Y-92200000D03*
D46*
X210150000Y-92200000D03*
X207610000Y-92200000D03*
X205070000Y-92200000D03*
D11*
X145000000Y-115000000D03*
D47*
X225678937Y-85507155D03*
X224654249Y-76251122D03*
X226450000Y-85450000D03*
X224642444Y-77093030D03*
X202350000Y-76450000D03*
X201550000Y-76450000D03*
X155293855Y-55067955D03*
X156129475Y-55008268D03*
X166650000Y-57450000D03*
X167350000Y-57450000D03*
X168965116Y-62990325D03*
X168721982Y-62131251D03*
X127700000Y-54900000D03*
X128600000Y-54900000D03*
X129400000Y-54950000D03*
X130350000Y-54950000D03*
X131250000Y-55000000D03*
X132200000Y-54950000D03*
X156900000Y-55050000D03*
X157700000Y-55050000D03*
X158450000Y-55100000D03*
X159250000Y-55100000D03*
X160000000Y-55050000D03*
X160850000Y-55050000D03*
X161650000Y-55050000D03*
X75800000Y-54550000D03*
X76500000Y-54550000D03*
X77300000Y-54500000D03*
X78150000Y-54450000D03*
X86800000Y-56900000D03*
X87450000Y-56350000D03*
X88100000Y-55800000D03*
X195950000Y-54500000D03*
X195200000Y-54550000D03*
X194400000Y-54550000D03*
X193600000Y-54550000D03*
X192699999Y-54600001D03*
X192150000Y-60000000D03*
X192950000Y-60200000D03*
X193700000Y-60300000D03*
X160550000Y-115450000D03*
X159750000Y-115450000D03*
X159000000Y-115450000D03*
X158150000Y-115450000D03*
X157300000Y-115450000D03*
X156450000Y-115500000D03*
X137350000Y-96550000D03*
X137250000Y-97350000D03*
X136300000Y-82550000D03*
X136300000Y-83250000D03*
X95000000Y-57050000D03*
X95750000Y-57050000D03*
X96600000Y-57050000D03*
X97400000Y-57000000D03*
X98250000Y-57000000D03*
X99000000Y-56950000D03*
X92250000Y-101100000D03*
X93050000Y-101100000D03*
X93900000Y-101100000D03*
X94750000Y-101100000D03*
X95550000Y-101100000D03*
X96300000Y-101100000D03*
X97100000Y-101100000D03*
X92950000Y-78150000D03*
X93800000Y-78200000D03*
X50600000Y-84450000D03*
X50700000Y-110299997D03*
X50700000Y-109421426D03*
X50700000Y-108542855D03*
X50700000Y-107664284D03*
X50700000Y-106785713D03*
X50700000Y-105907142D03*
X50700000Y-105028571D03*
X50700000Y-104150000D03*
X50550000Y-58200000D03*
X50550000Y-59058333D03*
X50550000Y-59916666D03*
X50550000Y-60774999D03*
X50550000Y-61633332D03*
X50550000Y-62491665D03*
X50550000Y-63349998D03*
X50600000Y-79050000D03*
X50600000Y-79950000D03*
X50600000Y-80850000D03*
X50600000Y-81750000D03*
X50600000Y-82650000D03*
X50600000Y-83550000D03*
X94700000Y-78100000D03*
X95550000Y-78100000D03*
X96250000Y-78100000D03*
X97100000Y-78100000D03*
X137350000Y-100750000D03*
X137300000Y-99900000D03*
X137300000Y-99000000D03*
X137300000Y-98200000D03*
X136300000Y-83900000D03*
X136300000Y-84800000D03*
X136300000Y-85600000D03*
X160950000Y-85000000D03*
X160350000Y-85600000D03*
X181350000Y-86750000D03*
X180600760Y-82600000D03*
X180615599Y-83317142D03*
X190144950Y-87644949D03*
X189719949Y-88069949D03*
X180600760Y-86750000D03*
X201100000Y-106400000D03*
X189400760Y-91950000D03*
X189400000Y-97200000D03*
X189500000Y-102400000D03*
X189500000Y-107600000D03*
X225400000Y-103050000D03*
X208900000Y-107900000D03*
X227500000Y-109931169D03*
X228187987Y-109931169D03*
X180600760Y-108300000D03*
X180600760Y-103100000D03*
X180600760Y-97928622D03*
X180600760Y-92678622D03*
X194671285Y-81277669D03*
X193571287Y-82377667D03*
X194121286Y-81827668D03*
X229000000Y-109900000D03*
X180600760Y-91878572D03*
X180600760Y-97128572D03*
X180600760Y-107528572D03*
X180600760Y-102328572D03*
X238250000Y-95250000D03*
X207329016Y-88875771D03*
X238950000Y-95250000D03*
X238200000Y-83900000D03*
X216930889Y-89795230D03*
X217708706Y-89795230D03*
X238950000Y-83900000D03*
X212600000Y-75000000D03*
X174900000Y-78816133D03*
X174100000Y-78816133D03*
X173350000Y-78816133D03*
X211850000Y-95100000D03*
X213400000Y-95100000D03*
X212650000Y-95100000D03*
X238496355Y-100721620D03*
X239172908Y-101406325D03*
X238900000Y-87350000D03*
X237600000Y-72100000D03*
X238300000Y-72100000D03*
X206550000Y-78250000D03*
X206550000Y-78900000D03*
X201105184Y-99406180D03*
X201112961Y-101211171D03*
X197300000Y-85700000D03*
X197350000Y-86450000D03*
X213012752Y-74254661D03*
X201100000Y-100300000D03*
X212250000Y-74200000D03*
X206550000Y-79800000D03*
X238950000Y-72100000D03*
X238950000Y-86600000D03*
X195100000Y-105400000D03*
X238250000Y-69400000D03*
X221182774Y-88604536D03*
X221960591Y-88604536D03*
X238950000Y-69400000D03*
X191900000Y-88750000D03*
X204199672Y-81133094D03*
X204906739Y-81271058D03*
X191900000Y-89650000D03*
X192750000Y-94900000D03*
X202468313Y-84901045D03*
X201561264Y-84917047D03*
X192000000Y-94900000D03*
X192750000Y-100150000D03*
X207169361Y-84323968D03*
X206500000Y-84600000D03*
X192050000Y-100150000D03*
X215673626Y-79900000D03*
X212500000Y-82300000D03*
X192571407Y-105142868D03*
X191929473Y-105629182D03*
X208802073Y-83950078D03*
X208802073Y-84727895D03*
X215900000Y-64200000D03*
X213037287Y-83731986D03*
X216650000Y-64300000D03*
X218047785Y-65509425D03*
X218611322Y-65660387D03*
X214307107Y-85076604D03*
X215317025Y-86234262D03*
X219290447Y-70466537D03*
X219290447Y-69688720D03*
X220942252Y-66805781D03*
X220150792Y-66549290D03*
X216400000Y-87450000D03*
X222095581Y-95091286D03*
X222850000Y-95100000D03*
X222762590Y-104972268D03*
X222850000Y-95100000D03*
X222745571Y-104101677D03*
X111464935Y-58157413D03*
X112093552Y-58145879D03*
X130465030Y-58162177D03*
X131085270Y-58652262D03*
X184709653Y-63315121D03*
X185532729Y-63329561D03*
X184729549Y-65538074D03*
X185502178Y-65545509D03*
X184250000Y-76600000D03*
X185000000Y-76500000D03*
X184350000Y-74300000D03*
X185000000Y-74300000D03*
X203317875Y-117543491D03*
X204095692Y-117543491D03*
X110250000Y-62550000D03*
X151000000Y-62550000D03*
X150300000Y-62550000D03*
X109450000Y-62550000D03*
X112850000Y-65400000D03*
X154300000Y-65400000D03*
X153550000Y-65400000D03*
X112150000Y-65400000D03*
X212050000Y-114850000D03*
X211350000Y-114850000D03*
X114450000Y-73000000D03*
X156850000Y-67700000D03*
X156150000Y-67700000D03*
X114450000Y-73700000D03*
X192117112Y-76058949D03*
X221500000Y-86650000D03*
X191350000Y-76450000D03*
X202350000Y-92750000D03*
X202171301Y-92010160D03*
X205472595Y-89037846D03*
X211804711Y-65546388D03*
X211804711Y-66324205D03*
X146500000Y-76300000D03*
D48*
X225736092Y-85450000D02*
X225678937Y-85507155D01*
X226450000Y-85450000D02*
X225736092Y-85450000D01*
X224039379Y-76489379D02*
X223272221Y-75722221D01*
X223272221Y-75722221D02*
X223272221Y-73932907D01*
X224642444Y-77093030D02*
X224039379Y-76489965D01*
X224039379Y-76489965D02*
X224039379Y-76489379D01*
D49*
X198650000Y-76700000D02*
X201300000Y-76700000D01*
X201300000Y-76700000D02*
X201550000Y-76450000D01*
D48*
X155293855Y-55066071D02*
X155293855Y-55067955D01*
X155351658Y-55008268D02*
X155293855Y-55066071D01*
X156129475Y-55008268D02*
X155351658Y-55008268D01*
X168721982Y-60621982D02*
X168721982Y-58821982D01*
X168721982Y-58821982D02*
X167350000Y-57450000D01*
D49*
X168803239Y-62990325D02*
X168965116Y-62990325D01*
X168721982Y-62909068D02*
X168803239Y-62990325D01*
X168721982Y-62131251D02*
X168721982Y-62909068D01*
D48*
X168721982Y-61353434D02*
X168721982Y-62131251D01*
X168721982Y-60621982D02*
X168721982Y-61353434D01*
D49*
X129400000Y-54950000D02*
X128650000Y-54950000D01*
X128650000Y-54950000D02*
X128600000Y-54900000D01*
X131250000Y-55000000D02*
X130400000Y-55000000D01*
X130400000Y-55000000D02*
X130350000Y-54950000D01*
X135500000Y-55200000D02*
X132450000Y-55200000D01*
X132450000Y-55200000D02*
X132200000Y-54950000D01*
X138950000Y-58650000D02*
X135500000Y-55200000D01*
X148900000Y-58650000D02*
X138950000Y-58650000D01*
X152500000Y-55050000D02*
X148900000Y-58650000D01*
X156900000Y-55050000D02*
X152500000Y-55050000D01*
D48*
X158450000Y-55100000D02*
X157750000Y-55100000D01*
X157750000Y-55100000D02*
X157700000Y-55050000D01*
X160000000Y-55050000D02*
X159300000Y-55050000D01*
X159300000Y-55050000D02*
X159250000Y-55100000D01*
X161650000Y-55050000D02*
X160850000Y-55050000D01*
D49*
X76500000Y-54550000D02*
X75800000Y-54550000D01*
X78150000Y-54450000D02*
X77350000Y-54450000D01*
X77350000Y-54450000D02*
X77300000Y-54500000D01*
X87450000Y-56350000D02*
X87350000Y-56350000D01*
X87350000Y-56350000D02*
X86800000Y-56900000D01*
X89350000Y-57050000D02*
X88100000Y-55800000D01*
X95000000Y-57050000D02*
X89350000Y-57050000D01*
D50*
X195200000Y-54500000D02*
X195900000Y-54500000D01*
X195900000Y-54550000D02*
X195950000Y-54500000D01*
X193600000Y-54500000D02*
X194400000Y-54500000D01*
X192950000Y-60200000D02*
X192350000Y-60200000D01*
X192350000Y-60200000D02*
X192150000Y-60000000D01*
X196330000Y-62930000D02*
X193700000Y-60300000D01*
X199491269Y-62930000D02*
X196330000Y-62930000D01*
D49*
X159750000Y-115450000D02*
X160550000Y-115450000D01*
X158150000Y-115450000D02*
X159000000Y-115450000D01*
X156450000Y-115500000D02*
X157250000Y-115500000D01*
X157250000Y-115500000D02*
X157300000Y-115450000D01*
X137250000Y-97350000D02*
X137250000Y-96650000D01*
X137250000Y-96650000D02*
X137350000Y-96550000D01*
X95750000Y-57050000D02*
X95000000Y-57050000D01*
X97400000Y-57000000D02*
X96650000Y-57000000D01*
X96650000Y-57000000D02*
X96600000Y-57050000D01*
X99000000Y-56950000D02*
X98300000Y-56950000D01*
X98300000Y-56950000D02*
X98250000Y-57000000D01*
X50700000Y-84450000D02*
X50700000Y-104150000D01*
X137300000Y-99900000D02*
X137300000Y-100700000D01*
X137300000Y-100700000D02*
X137350000Y-100750000D01*
X137300000Y-98200000D02*
X137300000Y-99000000D01*
D51*
X136300000Y-85600000D02*
X136300000Y-84800000D01*
X160350000Y-85600000D02*
X136300000Y-85600000D01*
X160350000Y-85600000D02*
X160950000Y-85000000D01*
X214550000Y-68010000D02*
X211011288Y-68010000D01*
X211011288Y-68010000D02*
X209700000Y-66698712D01*
X209700000Y-66698712D02*
X209700000Y-63500000D01*
X209700000Y-63500000D02*
X209130000Y-62930000D01*
X209130000Y-62930000D02*
X207450000Y-62930000D01*
D50*
X214550000Y-68010000D02*
X222040000Y-68010000D01*
X222040000Y-68010000D02*
X228373804Y-61676196D01*
X228373804Y-61676196D02*
X233556823Y-61676196D01*
D51*
X180600760Y-81500000D02*
X180600760Y-82600000D01*
X180600760Y-82600000D02*
X180600760Y-83302303D01*
X180600760Y-83302303D02*
X180615599Y-83317142D01*
X201050000Y-94750000D02*
X206555961Y-94750000D01*
X206555961Y-94750000D02*
X207610000Y-93695961D01*
X207610000Y-93695961D02*
X207610000Y-92200000D01*
D48*
X224900000Y-86805000D02*
X223734141Y-86805000D01*
X223734141Y-86805000D02*
X222609605Y-85680464D01*
X222609605Y-85680464D02*
X222609605Y-82422883D01*
X222609605Y-82422883D02*
X223550000Y-81482488D01*
X223550000Y-81482488D02*
X223550000Y-81100000D01*
D52*
X188400000Y-86750000D02*
X189169950Y-87519950D01*
X189169950Y-87519950D02*
X189719949Y-88069949D01*
X180600760Y-86750000D02*
X188400000Y-86750000D01*
D50*
X202000000Y-74380000D02*
X209570000Y-74380000D01*
X209570000Y-74380000D02*
X209750000Y-74200000D01*
X207450000Y-62930000D02*
X199491269Y-62930000D01*
X199491269Y-62930000D02*
X198650000Y-63771269D01*
X198650000Y-63771269D02*
X198650000Y-75277003D01*
X202000000Y-74380000D02*
X198650000Y-74380000D01*
X198650000Y-74380000D02*
X198650000Y-75277003D01*
D53*
X204750000Y-83725000D02*
X205765455Y-83725000D01*
X205765455Y-83725000D02*
X208496097Y-80994358D01*
X208496097Y-80994358D02*
X208496097Y-80350343D01*
X208496097Y-80350343D02*
X209046440Y-79800000D01*
X209046440Y-79800000D02*
X209050000Y-79800000D01*
X199800000Y-80650000D02*
X199800000Y-77725000D01*
X199800000Y-77725000D02*
X198775000Y-76700000D01*
X198775000Y-76700000D02*
X198650000Y-76700000D01*
X202200000Y-80550000D02*
X199900000Y-80550000D01*
X199900000Y-80550000D02*
X199800000Y-80650000D01*
D48*
X209800000Y-77400000D02*
X209800000Y-79050000D01*
X209800000Y-79050000D02*
X209050000Y-79800000D01*
X209750000Y-74200000D02*
X209750000Y-77350000D01*
X209750000Y-77350000D02*
X209800000Y-77400000D01*
D50*
X198650000Y-75277003D02*
X198650000Y-76700000D01*
D48*
X238950000Y-63500000D02*
X235380627Y-63500000D01*
X235380627Y-63500000D02*
X233556823Y-61676196D01*
X228700000Y-85750000D02*
X231600000Y-85750000D01*
X231600000Y-85750000D02*
X234500000Y-85750000D01*
X231600000Y-92400000D02*
X231600000Y-85750000D01*
X226043217Y-80356783D02*
X225300000Y-81100000D01*
X225300000Y-81100000D02*
X223550000Y-81100000D01*
X226557556Y-78700000D02*
X226043217Y-79214339D01*
X226043217Y-79214339D02*
X226043217Y-80356783D01*
X224900000Y-86805000D02*
X227645000Y-86805000D01*
X227645000Y-86805000D02*
X228700000Y-85750000D01*
X231600000Y-97800000D02*
X231600000Y-95100000D01*
X231600000Y-95100000D02*
X225550000Y-95100000D01*
D54*
X231600000Y-97800000D02*
X231600000Y-92400000D01*
X208900000Y-107900000D02*
X205782442Y-107900000D01*
X205782442Y-107900000D02*
X204336235Y-106453793D01*
X204336235Y-106453793D02*
X201153793Y-106453793D01*
X201153793Y-106453793D02*
X201100000Y-106400000D01*
D52*
X199000000Y-112700000D02*
X201100000Y-110600000D01*
X201100000Y-110600000D02*
X201100000Y-106400000D01*
X195100000Y-112700000D02*
X199000000Y-112700000D01*
X195100000Y-102850000D02*
X197111311Y-102850000D01*
X197111311Y-102850000D02*
X200661311Y-106400000D01*
X200661311Y-106400000D02*
X201100000Y-106400000D01*
D50*
X234900000Y-93600000D02*
X235750000Y-92750000D01*
X235750000Y-92750000D02*
X237725000Y-92750000D01*
X237725000Y-92750000D02*
X238950000Y-92750000D01*
X234900000Y-96350000D02*
X234900000Y-93600000D01*
X231600000Y-97800000D02*
X233450000Y-97800000D01*
X233450000Y-97800000D02*
X234900000Y-96350000D01*
D52*
X225400000Y-100250000D02*
X225400000Y-101800000D01*
X225400000Y-101800000D02*
X225400000Y-103050000D01*
D50*
X222505000Y-101405000D02*
X222900000Y-101800000D01*
X222900000Y-101800000D02*
X225400000Y-101800000D01*
X222505000Y-99800000D02*
X222505000Y-101405000D01*
D48*
X226950000Y-100250000D02*
X229400000Y-97800000D01*
X229400000Y-97800000D02*
X231600000Y-97800000D01*
X225400000Y-100250000D02*
X226950000Y-100250000D01*
D52*
X248600000Y-90600000D02*
X248600000Y-94900000D01*
X248600000Y-94900000D02*
X248600000Y-108949400D01*
X245500000Y-94750000D02*
X248450000Y-94750000D01*
X248450000Y-94750000D02*
X248600000Y-94900000D01*
X248600000Y-108949400D02*
X247049400Y-110500000D01*
X247049400Y-110500000D02*
X244299340Y-110500000D01*
X248600000Y-90600000D02*
X248600000Y-91609430D01*
X248600000Y-89500000D02*
X248600000Y-90600000D01*
D54*
X243501000Y-115199000D02*
X244299340Y-114400660D01*
X244299340Y-114400660D02*
X244299340Y-110500000D01*
X241299600Y-115199000D02*
X243501000Y-115199000D01*
D52*
X248600000Y-80100000D02*
X248600000Y-89500000D01*
X238950000Y-90950000D02*
X240400000Y-89500000D01*
X240400000Y-89500000D02*
X248600000Y-89500000D01*
X238950000Y-92750000D02*
X238950000Y-90950000D01*
X248600000Y-75200000D02*
X248600000Y-80100000D01*
X245500000Y-80125000D02*
X248575000Y-80125000D01*
X248575000Y-80125000D02*
X248600000Y-80100000D01*
X248600000Y-66700000D02*
X248600000Y-75200000D01*
X244600000Y-75200000D02*
X248600000Y-75200000D01*
X245500000Y-65500000D02*
X247400000Y-65500000D01*
X247400000Y-65500000D02*
X248600000Y-66700000D01*
X245500000Y-94709430D02*
X245500000Y-94750000D01*
X240250000Y-75200000D02*
X244600000Y-75200000D01*
X238950000Y-78250000D02*
X238950000Y-76500000D01*
X238950000Y-76500000D02*
X240250000Y-75200000D01*
X245500000Y-58750000D02*
X245500000Y-61500000D01*
X245500000Y-61500000D02*
X245500000Y-65500000D01*
D48*
X239500000Y-61500000D02*
X245500000Y-61500000D01*
X238950000Y-63500000D02*
X238950000Y-62050000D01*
X238950000Y-62050000D02*
X239500000Y-61500000D01*
D53*
X180600760Y-108300000D02*
X180600760Y-108825689D01*
X185200000Y-109250000D02*
X185200000Y-108100000D01*
X180600760Y-108825689D02*
X181362273Y-109587202D01*
X181362273Y-109587202D02*
X184862798Y-109587202D01*
X184862798Y-109587202D02*
X185200000Y-109250000D01*
D49*
X180600760Y-107528572D02*
X180600760Y-108300000D01*
D53*
X180600760Y-103100000D02*
X180600760Y-103400760D01*
D49*
X180600760Y-102328572D02*
X180600760Y-103100000D01*
X180600760Y-97128572D02*
X180600760Y-97928622D01*
X180600760Y-91878572D02*
X180600760Y-92678622D01*
D52*
X194121286Y-81827668D02*
X193571287Y-82377667D01*
X196150000Y-79798954D02*
X194671285Y-81277669D01*
X194671285Y-81277669D02*
X194121286Y-81827668D01*
X196150000Y-76700000D02*
X196150000Y-79798954D01*
D55*
X229000000Y-109900000D02*
X226641389Y-109900000D01*
X226641389Y-109900000D02*
X225303123Y-108561734D01*
X225303123Y-108561734D02*
X222738266Y-108561734D01*
X222738266Y-108561734D02*
X222700000Y-108600000D01*
D50*
X195080000Y-74380000D02*
X196150000Y-75450000D01*
X196150000Y-75450000D02*
X196150000Y-76700000D01*
X192600000Y-74380000D02*
X195080000Y-74380000D01*
D53*
X180600760Y-92678622D02*
X181522138Y-93600000D01*
X181522138Y-93600000D02*
X184889575Y-93600000D01*
X184889575Y-93600000D02*
X185200000Y-93289575D01*
X185200000Y-93289575D02*
X185200000Y-92350000D01*
X180600760Y-97928622D02*
X181472138Y-98800000D01*
X181472138Y-98800000D02*
X184826756Y-98800000D01*
X184826756Y-98800000D02*
X185200000Y-98426756D01*
X185200000Y-98426756D02*
X185200000Y-97600000D01*
X180600760Y-103400760D02*
X181300000Y-104100000D01*
X181300000Y-104100000D02*
X184846442Y-104100000D01*
X184846442Y-104100000D02*
X185200000Y-103746442D01*
X185200000Y-103746442D02*
X185200000Y-102850000D01*
D49*
X185200000Y-102850000D02*
X185200000Y-103400000D01*
D52*
X225400000Y-105550000D02*
X228600000Y-105550000D01*
X228600000Y-105550000D02*
X230850000Y-105550000D01*
D48*
X222700000Y-108600000D02*
X224400000Y-108600000D01*
X224400000Y-108600000D02*
X225400000Y-107600000D01*
X225400000Y-107600000D02*
X225400000Y-105550000D01*
D50*
X221235000Y-105200000D02*
X221235000Y-107135000D01*
X221235000Y-107135000D02*
X222700000Y-108600000D01*
D52*
X230850000Y-105550000D02*
X231600000Y-104800000D01*
D56*
X207000881Y-86325000D02*
X207879015Y-87203134D01*
X207879015Y-88325772D02*
X207329016Y-88875771D01*
X204750000Y-86325000D02*
X207000881Y-86325000D01*
X207879015Y-87203134D02*
X207879015Y-88325772D01*
D52*
X238950000Y-95250000D02*
X238950000Y-96900000D01*
X238950000Y-96900000D02*
X238950000Y-98400000D01*
D48*
X245500000Y-99250000D02*
X245500000Y-99100000D01*
X245500000Y-99100000D02*
X243300000Y-96900000D01*
X243300000Y-96900000D02*
X238950000Y-96900000D01*
D49*
X216930889Y-89795230D02*
X217708706Y-89795230D01*
X213845230Y-89795230D02*
X216930889Y-89795230D01*
X211675000Y-87625000D02*
X213845230Y-89795230D01*
X210650000Y-87625000D02*
X211675000Y-87625000D01*
D48*
X245500000Y-84625000D02*
X245500000Y-83228757D01*
X245500000Y-83228757D02*
X244771243Y-82500000D01*
X244771243Y-82500000D02*
X238950000Y-82500000D01*
D52*
X238950000Y-80750000D02*
X238950000Y-82500000D01*
X238950000Y-82500000D02*
X238950000Y-83900000D01*
X218300000Y-77250000D02*
X218300000Y-74349690D01*
X218300000Y-74349690D02*
X224799944Y-67849746D01*
X234150000Y-72100000D02*
X238950000Y-72100000D01*
X224799944Y-67849746D02*
X229899746Y-67849746D01*
X229899746Y-67849746D02*
X234150000Y-72100000D01*
X173350000Y-78816133D02*
X174900000Y-78816133D01*
D49*
X174100000Y-78816133D02*
X174900000Y-78816133D01*
D55*
X152100000Y-76250000D02*
X160602394Y-76250000D01*
X162552394Y-78200000D02*
X170300000Y-78200000D01*
X160602394Y-76250000D02*
X162552394Y-78200000D01*
D52*
X170300000Y-78200000D02*
X170916133Y-78816133D01*
X170916133Y-78816133D02*
X173283867Y-78816133D01*
X173283867Y-78816133D02*
X173350000Y-78816133D01*
D50*
X214550000Y-71820000D02*
X213619135Y-71820000D01*
X213619135Y-71820000D02*
X212250000Y-73189135D01*
X212250000Y-73189135D02*
X212250000Y-74200000D01*
D48*
X197350000Y-87350000D02*
X197350000Y-86450000D01*
X199800000Y-88450000D02*
X198450000Y-88450000D01*
X198450000Y-88450000D02*
X197350000Y-87350000D01*
D52*
X201050000Y-100350000D02*
X201100000Y-100300000D01*
X195100000Y-100350000D02*
X201050000Y-100350000D01*
D54*
X201100000Y-100300000D02*
X204850000Y-100300000D01*
D52*
X217350000Y-95100000D02*
X212650000Y-95100000D01*
X212650000Y-95100000D02*
X210100000Y-95100000D01*
X212690000Y-92200000D02*
X212690000Y-95060000D01*
X212690000Y-95060000D02*
X212650000Y-95100000D01*
D54*
X204850000Y-100300000D02*
X209000000Y-100300000D01*
D52*
X205120000Y-100030000D02*
X204850000Y-100300000D01*
D53*
X204750000Y-82425000D02*
X205875000Y-82425000D01*
X205875000Y-82425000D02*
X206550000Y-81750000D01*
X206550000Y-81750000D02*
X206550000Y-79800000D01*
D48*
X205800000Y-77400000D02*
X205800000Y-79050000D01*
X205800000Y-79050000D02*
X206550000Y-79800000D01*
D50*
X212250000Y-74200000D02*
X212252296Y-74200000D01*
X212252296Y-74200000D02*
X213600000Y-75547704D01*
X213600000Y-75547704D02*
X213600000Y-77250000D01*
D52*
X221050000Y-78150000D02*
X220150000Y-77250000D01*
X220150000Y-77250000D02*
X218300000Y-77250000D01*
X221050000Y-81100000D02*
X221050000Y-78150000D01*
X215900000Y-77250000D02*
X218300000Y-77250000D01*
X213600000Y-77250000D02*
X215900000Y-77250000D01*
D48*
X219500000Y-82995000D02*
X220480000Y-82995000D01*
X220480000Y-82995000D02*
X221050000Y-82425000D01*
X221050000Y-82425000D02*
X221050000Y-81100000D01*
D54*
X209000000Y-100300000D02*
X209100000Y-100200000D01*
D52*
X210100000Y-95100000D02*
X209100000Y-96100000D01*
X209100000Y-96100000D02*
X209100000Y-100200000D01*
X245500000Y-53670000D02*
X241520000Y-53670000D01*
X241520000Y-53670000D02*
X241500000Y-53650000D01*
D50*
X225400000Y-97750000D02*
X221835000Y-97750000D01*
X221835000Y-97750000D02*
X221235000Y-98350000D01*
X221235000Y-99800000D02*
X221235000Y-98350000D01*
D49*
X221182774Y-88604536D02*
X221960591Y-88604536D01*
X213677096Y-88604536D02*
X221182774Y-88604536D01*
X212047560Y-86975000D02*
X213677096Y-88604536D01*
X210650000Y-86975000D02*
X212047560Y-86975000D01*
D52*
X238950000Y-66000000D02*
X238950000Y-67750000D01*
X238950000Y-67750000D02*
X238950000Y-69400000D01*
D48*
X245500000Y-70000000D02*
X245500000Y-68338000D01*
X245500000Y-68338000D02*
X244912000Y-67750000D01*
X244912000Y-67750000D02*
X238950000Y-67750000D01*
D53*
X204750000Y-85675000D02*
X203632713Y-85675000D01*
X203632713Y-85675000D02*
X203003485Y-86304228D01*
X203003485Y-86304228D02*
X200554228Y-86304228D01*
X200554228Y-86304228D02*
X200000000Y-85750000D01*
X200000000Y-85750000D02*
X199800000Y-85750000D01*
X205070000Y-92200000D02*
X205070000Y-90783326D01*
X205070000Y-90783326D02*
X205720005Y-90133321D01*
X205720005Y-90133321D02*
X207946926Y-90133321D01*
X207946926Y-90133321D02*
X208697879Y-89382368D01*
X208697879Y-89382368D02*
X208697879Y-86472523D01*
X208697879Y-86472523D02*
X207900356Y-85675000D01*
X207900356Y-85675000D02*
X205875000Y-85675000D01*
X205875000Y-85675000D02*
X204750000Y-85675000D01*
D52*
X199800000Y-83150000D02*
X199800000Y-85750000D01*
D53*
X204750000Y-83075000D02*
X202225000Y-83075000D01*
X202225000Y-83075000D02*
X202200000Y-83050000D01*
D50*
X224900000Y-82995000D02*
X226040312Y-82995000D01*
X226040312Y-82995000D02*
X228569413Y-80465899D01*
X228569413Y-80465899D02*
X231673983Y-80465899D01*
X231673983Y-80465899D02*
X232350000Y-81141916D01*
X232350000Y-81141916D02*
X232350000Y-83200000D01*
D48*
X234500000Y-83250000D02*
X232400000Y-83250000D01*
X232400000Y-83250000D02*
X232350000Y-83200000D01*
D50*
X224900000Y-84265000D02*
X226100000Y-84265000D01*
X228700000Y-83250000D02*
X227475000Y-83250000D01*
X227475000Y-83250000D02*
X226460000Y-84265000D01*
X226460000Y-84265000D02*
X226100000Y-84265000D01*
D48*
X228700000Y-83250000D02*
X230800000Y-83250000D01*
X230800000Y-83250000D02*
X230850000Y-83200000D01*
D55*
X233000000Y-109900000D02*
X237699860Y-109900000D01*
X237699860Y-109900000D02*
X238299860Y-110500000D01*
D52*
X195100000Y-108100000D02*
X195100000Y-110500000D01*
X214300000Y-107900000D02*
X214300000Y-101000000D01*
X214300000Y-101000000D02*
X213500000Y-100200000D01*
D50*
X219965000Y-99800000D02*
X219965000Y-97965000D01*
X219965000Y-97965000D02*
X219400000Y-97400000D01*
X219400000Y-97400000D02*
X214580094Y-97400000D01*
X214580094Y-97400000D02*
X213500000Y-98480094D01*
X213500000Y-98480094D02*
X213500000Y-100200000D01*
D52*
X198850000Y-94750000D02*
X198850000Y-92100000D01*
D53*
X187850000Y-84800000D02*
X194079766Y-84800000D01*
X194079766Y-84800000D02*
X195351599Y-86071833D01*
X195351599Y-86071833D02*
X195351599Y-89198650D01*
X195351599Y-89198650D02*
X196494031Y-90341082D01*
X202600000Y-88150000D02*
X203125000Y-87625000D01*
X196494031Y-90341082D02*
X201508918Y-90341082D01*
X201508918Y-90341082D02*
X202600000Y-89250000D01*
X202600000Y-89250000D02*
X202600000Y-88150000D01*
X203125000Y-87625000D02*
X204750000Y-87625000D01*
D56*
X204750000Y-87625000D02*
X204155493Y-87625000D01*
D51*
X204768775Y-81133094D02*
X204199672Y-81133094D01*
X204906739Y-81271058D02*
X204768775Y-81133094D01*
X204745392Y-81432405D02*
X204906739Y-81271058D01*
X204745392Y-81729606D02*
X204745392Y-81432405D01*
X204724999Y-81749999D02*
X204745392Y-81729606D01*
D49*
X204750000Y-84375000D02*
X203250000Y-84375000D01*
X201561264Y-84917047D02*
X202707953Y-84917047D01*
X202707953Y-84917047D02*
X203250000Y-84375000D01*
X206893329Y-84600000D02*
X207169361Y-84323968D01*
X206500000Y-84600000D02*
X206893329Y-84600000D01*
D56*
X204750000Y-85025000D02*
X206075000Y-85025000D01*
X206075000Y-85025000D02*
X206500000Y-84600000D01*
D51*
X219500000Y-86805000D02*
X218092034Y-86805000D01*
X218092034Y-86805000D02*
X213917592Y-82630558D01*
X213917592Y-82630558D02*
X213917592Y-80267592D01*
X213917592Y-80267592D02*
X213600000Y-79950000D01*
D53*
X210650000Y-81775000D02*
X211542173Y-81775000D01*
X211542173Y-81775000D02*
X212000000Y-81317173D01*
X212000000Y-81317173D02*
X212000000Y-80509020D01*
X212000000Y-80509020D02*
X212559020Y-79950000D01*
X212559020Y-79950000D02*
X213600000Y-79950000D01*
D51*
X219500000Y-85535000D02*
X218178744Y-85535000D01*
X218178744Y-85535000D02*
X215900000Y-83256256D01*
X215900000Y-83256256D02*
X215900000Y-79950000D01*
D53*
X210650000Y-82425000D02*
X212375000Y-82425000D01*
X212375000Y-82425000D02*
X212500000Y-82300000D01*
D56*
X210650000Y-83075000D02*
X209359677Y-83075000D01*
X209359677Y-83075000D02*
X208802073Y-83632604D01*
X208802073Y-83632604D02*
X208802073Y-83950078D01*
X208802073Y-83950078D02*
X208802073Y-84727895D01*
D53*
X214550000Y-64200000D02*
X215900000Y-64200000D01*
D49*
X213030301Y-83725000D02*
X213037287Y-83731986D01*
X210650000Y-83725000D02*
X213030301Y-83725000D01*
D50*
X218008360Y-65470000D02*
X218047785Y-65509425D01*
X214550000Y-65470000D02*
X218008360Y-65470000D01*
D56*
X210650000Y-84375000D02*
X212279653Y-84375000D01*
X212279653Y-84375000D02*
X212981257Y-85076604D01*
X212981257Y-85076604D02*
X214307107Y-85076604D01*
X213236274Y-86234262D02*
X214539208Y-86234262D01*
X212027012Y-85025000D02*
X213236274Y-86234262D01*
X210650000Y-85025000D02*
X212027012Y-85025000D01*
X214539208Y-86234262D02*
X215317025Y-86234262D01*
D53*
X218881727Y-69280000D02*
X219290447Y-69688720D01*
X214550000Y-69280000D02*
X218881727Y-69280000D01*
X219960082Y-66740000D02*
X220150792Y-66549290D01*
X214550000Y-66740000D02*
X219960082Y-66740000D01*
D56*
X213500000Y-87450000D02*
X216400000Y-87450000D01*
X210650000Y-85675000D02*
X211725000Y-85675000D01*
X211725000Y-85675000D02*
X213500000Y-87450000D01*
X210150000Y-92200000D02*
X210150000Y-90807419D01*
X210150000Y-90807419D02*
X209386738Y-90044157D01*
X209386738Y-90044157D02*
X209386738Y-86513262D01*
X209386738Y-86513262D02*
X209575000Y-86325000D01*
X209575000Y-86325000D02*
X210650000Y-86325000D01*
D52*
X178600000Y-106578572D02*
X178600000Y-109483929D01*
X178600000Y-109483929D02*
X180026795Y-110910724D01*
X200256978Y-115193022D02*
X203250000Y-112200000D01*
X180026795Y-110910724D02*
X186816492Y-110910724D01*
X186816492Y-110910724D02*
X191098790Y-115193022D01*
X191098790Y-115193022D02*
X200256978Y-115193022D01*
X203250000Y-112200000D02*
X221846589Y-112200000D01*
X220840000Y-115000000D02*
X220840000Y-112200000D01*
X220840000Y-112200000D02*
X221846589Y-112200000D01*
X221846589Y-112200000D02*
X229908807Y-112200000D01*
X229908807Y-112200000D02*
X231000000Y-113291193D01*
X231000000Y-113291193D02*
X231000000Y-115000000D01*
D53*
X180600760Y-105628572D02*
X180718706Y-105628572D01*
X180718706Y-105628572D02*
X183000000Y-107909866D01*
X183000000Y-107909866D02*
X183000000Y-108100000D01*
D52*
X68400000Y-118150000D02*
X69160000Y-117390000D01*
X69160000Y-117390000D02*
X69160000Y-115000000D01*
X59788000Y-118150000D02*
X68400000Y-118150000D01*
X59000000Y-115000000D02*
X59000000Y-117362000D01*
X59000000Y-117362000D02*
X59788000Y-118150000D01*
D55*
X76571428Y-90928572D02*
X69160000Y-98340000D01*
X69160000Y-98340000D02*
X69160000Y-115000000D01*
X178600000Y-90928572D02*
X76571428Y-90928572D01*
D53*
X180600760Y-89978572D02*
X180812025Y-89978572D01*
X180812025Y-89978572D02*
X183000000Y-92166547D01*
X183000000Y-92166547D02*
X183000000Y-92350000D01*
D55*
X117070000Y-115000000D02*
X129039950Y-115000000D01*
X129039950Y-115000000D02*
X138313628Y-105726322D01*
X138313628Y-105726322D02*
X153773678Y-105726322D01*
X153773678Y-105726322D02*
X163321428Y-96178572D01*
X163321428Y-96178572D02*
X165500000Y-96178572D01*
X165500000Y-96178572D02*
X178600000Y-96178572D01*
D52*
X106910000Y-115000000D02*
X106910000Y-117362000D01*
X106910000Y-117362000D02*
X107598000Y-118050000D01*
X116382000Y-118050000D02*
X117070000Y-117362000D01*
X107598000Y-118050000D02*
X116382000Y-118050000D01*
X117070000Y-117362000D02*
X117070000Y-115000000D01*
D53*
X180600760Y-95228572D02*
X180931494Y-95228572D01*
X180931494Y-95228572D02*
X183000000Y-97297078D01*
X183000000Y-97297078D02*
X183000000Y-97600000D01*
D55*
X175521428Y-101378572D02*
X178600000Y-101378572D01*
X172920000Y-115000000D02*
X172920000Y-103980000D01*
X172920000Y-103980000D02*
X175521428Y-101378572D01*
D48*
X183080000Y-115000000D02*
X183080000Y-113294998D01*
X183080000Y-113294998D02*
X182169373Y-112384371D01*
X182169373Y-112384371D02*
X172935629Y-112384371D01*
X172935629Y-112384371D02*
X172920000Y-112400000D01*
D52*
X172920000Y-103980000D02*
X172920000Y-112400000D01*
X172920000Y-112400000D02*
X172920000Y-115000000D01*
D53*
X183000000Y-102850000D02*
X183000000Y-102600134D01*
X183000000Y-102600134D02*
X180828438Y-100428572D01*
X180828438Y-100428572D02*
X180600760Y-100428572D01*
X189500000Y-105700000D02*
X189700000Y-105700000D01*
X189700000Y-105700000D02*
X192100000Y-108100000D01*
D52*
X185200000Y-105400000D02*
X186249240Y-105400000D01*
X186249240Y-105400000D02*
X187499240Y-106650000D01*
X183000000Y-105400000D02*
X185200000Y-105400000D01*
D53*
X189400760Y-90050000D02*
X189600000Y-90050000D01*
X189600000Y-90050000D02*
X191900000Y-92350000D01*
D52*
X185200000Y-89650000D02*
X186050000Y-89650000D01*
X186050000Y-89650000D02*
X187400000Y-91000000D01*
X183000000Y-89650000D02*
X185200000Y-89650000D01*
D53*
X189400000Y-95300000D02*
X189700000Y-95300000D01*
X189700000Y-95300000D02*
X192000000Y-97600000D01*
D52*
X185200000Y-94900000D02*
X186049240Y-94900000D01*
X186049240Y-94900000D02*
X187399240Y-96250000D01*
X183000000Y-94900000D02*
X185200000Y-94900000D01*
D53*
X189500000Y-100500000D02*
X189700000Y-100500000D01*
X189700000Y-100500000D02*
X192050000Y-102850000D01*
D52*
X185200000Y-100150000D02*
X186199240Y-100150000D01*
X186199240Y-100150000D02*
X187499240Y-101450000D01*
X183000000Y-100150000D02*
X185200000Y-100150000D01*
X180600760Y-84850000D02*
X185100000Y-84850000D01*
X185100000Y-84850000D02*
X185150000Y-84800000D01*
D55*
X178600000Y-85800000D02*
X170300000Y-85800000D01*
D52*
X180600760Y-79600000D02*
X185050000Y-79600000D01*
X143960000Y-71500000D02*
X143960000Y-78532631D01*
X143960000Y-78532631D02*
X147121261Y-81693892D01*
X147121261Y-81693892D02*
X175751270Y-81693892D01*
X175751270Y-81693892D02*
X176895162Y-80550000D01*
X176895162Y-80550000D02*
X178600000Y-80550000D01*
D51*
X218700000Y-108600000D02*
X218700000Y-105205000D01*
X218700000Y-105205000D02*
X218695000Y-105200000D01*
X218695000Y-105200000D02*
X219965000Y-105200000D01*
X218695000Y-105200000D02*
X218695000Y-99800000D01*
D52*
X220050000Y-95100000D02*
X222850000Y-95100000D01*
D50*
X222745571Y-104955249D02*
X222762590Y-104972268D01*
X222745571Y-104101677D02*
X222745571Y-104955249D01*
X187700000Y-63300000D02*
X189041545Y-63300000D01*
X189041545Y-63300000D02*
X191231545Y-65490000D01*
X191231545Y-65490000D02*
X192600000Y-65490000D01*
D48*
X172920000Y-54800000D02*
X172920000Y-58610517D01*
X184754912Y-63329561D02*
X185532729Y-63329561D01*
X172920000Y-58610517D02*
X177639044Y-63329561D01*
X177639044Y-63329561D02*
X184754912Y-63329561D01*
D52*
X111476469Y-58145879D02*
X111464935Y-58157413D01*
X112093552Y-58145879D02*
X111476469Y-58145879D01*
D48*
X112109850Y-58162177D02*
X112093552Y-58145879D01*
X130465030Y-58162177D02*
X112109850Y-58162177D01*
D52*
X131085270Y-58652262D02*
X130955115Y-58652262D01*
X130955115Y-58652262D02*
X130465030Y-58162177D01*
D50*
X190860000Y-66760000D02*
X189600000Y-65500000D01*
X189600000Y-65500000D02*
X187700000Y-65500000D01*
X192600000Y-66760000D02*
X190860000Y-66760000D01*
D48*
X61540000Y-54800000D02*
X61540000Y-57846734D01*
X110628671Y-60328671D02*
X160029072Y-60328671D01*
X61540000Y-57846734D02*
X62893266Y-59200000D01*
X170600000Y-53754374D02*
X170600000Y-57550000D01*
X62893266Y-59200000D02*
X109500000Y-59200000D01*
X109500000Y-59200000D02*
X110628671Y-60328671D01*
X160029072Y-60328671D02*
X166603369Y-53754374D01*
X166603369Y-53754374D02*
X170600000Y-53754374D01*
X170600000Y-57550000D02*
X170600000Y-56900000D01*
X170600000Y-56900000D02*
X170600000Y-53605358D01*
X170600000Y-53605358D02*
X171861723Y-52343635D01*
X171861723Y-52343635D02*
X174881338Y-52343635D01*
X175460000Y-52922297D02*
X175460000Y-54800000D01*
X174881338Y-52343635D02*
X175460000Y-52922297D01*
X170600000Y-56900000D02*
X170600000Y-59590826D01*
X170600000Y-59590826D02*
X176554683Y-65545509D01*
X176554683Y-65545509D02*
X184724361Y-65545509D01*
X184724361Y-65545509D02*
X185502178Y-65545509D01*
X109450000Y-59200000D02*
X109450000Y-54800000D01*
D50*
X192600000Y-64220000D02*
X191720000Y-64220000D01*
X191720000Y-64220000D02*
X191000000Y-63500000D01*
X191000000Y-63500000D02*
X191000000Y-62626232D01*
X191000000Y-62626232D02*
X189473768Y-61100000D01*
X189473768Y-61100000D02*
X187700000Y-61100000D01*
D48*
X185000000Y-61100000D02*
X180331845Y-61100000D01*
X178000000Y-58768155D02*
X178000000Y-54800000D01*
X180331845Y-61100000D02*
X178000000Y-58768155D01*
D50*
X192600000Y-73110000D02*
X191278004Y-73110000D01*
X191278004Y-73110000D02*
X189700000Y-74688004D01*
X189700000Y-75762561D02*
X188962561Y-76500000D01*
X189700000Y-74688004D02*
X189700000Y-75762561D01*
X188962561Y-76500000D02*
X187700000Y-76500000D01*
D48*
X66620000Y-54800000D02*
X66620000Y-56862000D01*
X66620000Y-56862000D02*
X67358000Y-57600000D01*
X67358000Y-57600000D02*
X83409284Y-57600000D01*
X83409284Y-57600000D02*
X88809284Y-52200000D01*
X113843064Y-52200000D02*
X114530000Y-52886936D01*
X88809284Y-52200000D02*
X113843064Y-52200000D01*
X114530000Y-52886936D02*
X114530000Y-54800000D01*
D57*
X228460000Y-54800000D02*
X228460000Y-57204694D01*
X228460000Y-57204694D02*
X227464694Y-58200000D01*
X227464694Y-58200000D02*
X181588735Y-58200000D01*
X181588735Y-58200000D02*
X180540000Y-57151265D01*
X180540000Y-57151265D02*
X180540000Y-54800000D01*
D52*
X228460000Y-54800000D02*
X228460000Y-55350000D01*
X228460000Y-55350000D02*
X228450000Y-55360000D01*
D50*
X192600000Y-71840000D02*
X190891010Y-71840000D01*
X190891010Y-71840000D02*
X188431010Y-74300000D01*
X188431010Y-74300000D02*
X187700000Y-74300000D01*
D57*
X231000000Y-54800000D02*
X231000000Y-52635923D01*
X231000000Y-52635923D02*
X229964077Y-51600000D01*
X229964077Y-51600000D02*
X183080000Y-51600000D01*
X183080000Y-51600000D02*
X183080000Y-54800000D01*
D48*
X183080000Y-54800000D02*
X183080000Y-51703721D01*
X183080000Y-51703721D02*
X182369751Y-50993472D01*
X182369751Y-50993472D02*
X117070000Y-50993472D01*
X117070000Y-50993472D02*
X70227431Y-50993472D01*
X70227431Y-50993472D02*
X69160000Y-52060903D01*
X69160000Y-52060903D02*
X69160000Y-54800000D01*
X117070000Y-50993472D02*
X117070000Y-54800000D01*
D50*
X190230000Y-68030000D02*
X189900000Y-67700000D01*
X189900000Y-67700000D02*
X187700000Y-67700000D01*
X192600000Y-68030000D02*
X190230000Y-68030000D01*
D48*
X175460000Y-115000000D02*
X175460000Y-116978006D01*
X175460000Y-116978006D02*
X176025485Y-117543491D01*
X176025485Y-117543491D02*
X203317875Y-117543491D01*
D52*
X204095692Y-117543491D02*
X203317875Y-117543491D01*
X110250000Y-62550000D02*
X87898989Y-62550000D01*
X87898989Y-62550000D02*
X61540000Y-88908989D01*
X61540000Y-88908989D02*
X61540000Y-115000000D01*
X150300000Y-62550000D02*
X110250000Y-62550000D01*
X109450000Y-62550000D02*
X110250000Y-62550000D01*
X151000000Y-62550000D02*
X150300000Y-62550000D01*
X162550000Y-62550000D02*
X151000000Y-62550000D01*
X185000000Y-67700000D02*
X167700000Y-67700000D01*
X167700000Y-67700000D02*
X162550000Y-62550000D01*
D50*
X192600000Y-69300000D02*
X190068615Y-69300000D01*
X190068615Y-69300000D02*
X189468615Y-69900000D01*
X189468615Y-69900000D02*
X187700000Y-69900000D01*
D52*
X64080000Y-115000000D02*
X64080000Y-91673240D01*
X64080000Y-91673240D02*
X90353240Y-65400000D01*
X90353240Y-65400000D02*
X112150000Y-65400000D01*
X112850000Y-65400000D02*
X153550000Y-65400000D01*
X153550000Y-65400000D02*
X160700000Y-65400000D01*
X160700000Y-65400000D02*
X165200000Y-69900000D01*
X173500000Y-69900000D02*
X185000000Y-69900000D01*
X165200000Y-69900000D02*
X173500000Y-69900000D01*
D50*
X187700000Y-72100000D02*
X189050000Y-72100000D01*
X189050000Y-72100000D02*
X190580000Y-70570000D01*
X190580000Y-70570000D02*
X190888000Y-70570000D01*
X190888000Y-70570000D02*
X192600000Y-70570000D01*
D48*
X228460000Y-115000000D02*
X228460000Y-116861190D01*
X228460000Y-116861190D02*
X227086752Y-118234438D01*
X227086752Y-118234438D02*
X217457224Y-118234438D01*
X217457224Y-118234438D02*
X214072786Y-114850000D01*
X214072786Y-114850000D02*
X211350000Y-114850000D01*
D52*
X114400000Y-67700000D02*
X93635138Y-67700000D01*
X93635138Y-67700000D02*
X66620000Y-94715138D01*
X66620000Y-94715138D02*
X66620000Y-115000000D01*
X114450000Y-73000000D02*
X114450000Y-73700000D01*
X114450000Y-73000000D02*
X114450000Y-67750000D01*
X159700000Y-67700000D02*
X156850000Y-67700000D01*
X156150000Y-67700000D02*
X156850000Y-67700000D01*
X156150000Y-67700000D02*
X114400000Y-67700000D01*
X114450000Y-67750000D02*
X114400000Y-67700000D01*
X185000000Y-72100000D02*
X164100000Y-72100000D01*
X164100000Y-72100000D02*
X159700000Y-67700000D01*
D53*
X219500000Y-84265000D02*
X218350249Y-84265000D01*
X218350249Y-84265000D02*
X217681613Y-83596364D01*
X217681613Y-83596364D02*
X217681613Y-82118387D01*
X217681613Y-82118387D02*
X218300000Y-81500000D01*
X218300000Y-81500000D02*
X218300000Y-79950000D01*
D51*
X219500000Y-84265000D02*
X220850000Y-84265000D01*
X220850000Y-84265000D02*
X221500000Y-84915000D01*
X221500000Y-84915000D02*
X221500000Y-85872183D01*
X221500000Y-85872183D02*
X221500000Y-86650000D01*
D52*
X191350000Y-77750000D02*
X191350000Y-76450000D01*
X187750000Y-79600000D02*
X189500000Y-79600000D01*
X189500000Y-79600000D02*
X191350000Y-77750000D01*
D51*
X202081461Y-92100000D02*
X202171301Y-92010160D01*
X201550000Y-92100000D02*
X202081461Y-92100000D01*
D56*
X206186634Y-88323807D02*
X206022594Y-88487847D01*
X206022594Y-88487847D02*
X205472595Y-89037846D01*
X206186634Y-87336634D02*
X206186634Y-88323807D01*
X205825000Y-86975000D02*
X206186634Y-87336634D01*
X204750000Y-86975000D02*
X205825000Y-86975000D01*
D48*
X241500000Y-56350000D02*
X233919056Y-56350000D01*
X233919056Y-56350000D02*
X230136248Y-60132808D01*
X230136248Y-60132808D02*
X213181658Y-60132808D01*
X213181658Y-60132808D02*
X211804711Y-61509755D01*
X211804711Y-61509755D02*
X211804711Y-65546388D01*
D52*
X245500000Y-56210000D02*
X241640000Y-56210000D01*
X241640000Y-56210000D02*
X241500000Y-56350000D01*
X149400000Y-76250000D02*
X146500000Y-76250000D01*
X146500000Y-76250000D02*
X146500000Y-71500000D01*
D51*
X202000000Y-64220000D02*
X207430000Y-64220000D01*
X207430000Y-64220000D02*
X207450000Y-64200000D01*
X202000000Y-65490000D02*
X207430000Y-65490000D01*
X207430000Y-65490000D02*
X207450000Y-65470000D01*
X202000000Y-66760000D02*
X207430000Y-66760000D01*
X207430000Y-66760000D02*
X207450000Y-66740000D01*
X202000000Y-68030000D02*
X207430000Y-68030000D01*
X207430000Y-68030000D02*
X207450000Y-68010000D01*
X207450000Y-69280000D02*
X202020000Y-69280000D01*
X202020000Y-69280000D02*
X202000000Y-69300000D01*
X202000000Y-70570000D02*
X207430000Y-70570000D01*
X207430000Y-70570000D02*
X207450000Y-70550000D01*
X207450000Y-71820000D02*
X202020000Y-71820000D01*
X202020000Y-71820000D02*
X202000000Y-71840000D01*
D53*
X202000000Y-73110000D02*
X208376318Y-73110000D01*
X208376318Y-73110000D02*
X210936318Y-70550000D01*
X210936318Y-70550000D02*
X214550000Y-70550000D01*
D10*
G36*
X207100302Y-78555744D02*
X207245782Y-80350000D01*
X205832872Y-80350000D01*
X204899679Y-78188922D01*
X204851468Y-76646189D01*
X205451924Y-76600000D01*
X206806940Y-76600000D01*
X207100302Y-78555744D01*
X207100302Y-78555744D01*
G37*
X207100302Y-78555744D02*
X207245782Y-80350000D01*
X205832872Y-80350000D01*
X204899679Y-78188922D01*
X204851468Y-76646189D01*
X205451924Y-76600000D01*
X206806940Y-76600000D01*
X207100302Y-78555744D01*
G36*
X220558610Y-71498718D02*
X219208100Y-73572716D01*
X219200000Y-73600000D01*
X219200000Y-77950000D01*
X212903329Y-77950000D01*
X212999896Y-76453219D01*
X212997218Y-76433553D01*
X212984771Y-76414070D01*
X211450762Y-74929545D01*
X211499521Y-73564302D01*
X212728766Y-71450000D01*
X217099651Y-71450000D01*
X220558610Y-71498718D01*
X220558610Y-71498718D01*
G37*
X220558610Y-71498718D02*
X219208100Y-73572716D01*
X219200000Y-73600000D01*
X219200000Y-77950000D01*
X212903329Y-77950000D01*
X212999896Y-76453219D01*
X212997218Y-76433553D01*
X212984771Y-76414070D01*
X211450762Y-74929545D01*
X211499521Y-73564302D01*
X212728766Y-71450000D01*
X217099651Y-71450000D01*
X220558610Y-71498718D01*
G36*
X239550000Y-72800000D02*
X238303458Y-72800000D01*
X236550000Y-72556464D01*
X236550000Y-71643536D01*
X238303458Y-71400000D01*
X239550000Y-71400000D01*
X239550000Y-72800000D01*
X239550000Y-72800000D01*
G37*
X239550000Y-72800000D02*
X238303458Y-72800000D01*
X236550000Y-72556464D01*
X236550000Y-71643536D01*
X238303458Y-71400000D01*
X239550000Y-71400000D01*
X239550000Y-72800000D01*
G36*
X239553511Y-100390888D02*
X239649060Y-101441931D01*
X239512888Y-101759666D01*
X239241887Y-101850000D01*
X238333567Y-101850000D01*
X237907167Y-100807689D01*
X238374620Y-100200000D01*
X238694512Y-100200000D01*
X239553511Y-100390888D01*
X239553511Y-100390888D01*
G37*
X239553511Y-100390888D02*
X239649060Y-101441931D01*
X239512888Y-101759666D01*
X239241887Y-101850000D01*
X238333567Y-101850000D01*
X237907167Y-100807689D01*
X238374620Y-100200000D01*
X238694512Y-100200000D01*
X239553511Y-100390888D01*
G36*
X213950000Y-94400000D02*
X213953939Y-94419453D01*
X213965136Y-94435840D01*
X213981827Y-94446581D01*
X214000000Y-94450000D01*
X218050000Y-94450000D01*
X218050000Y-95800000D01*
X211000000Y-95800000D01*
X210980547Y-95803939D01*
X210960369Y-95819514D01*
X210460369Y-96469514D01*
X210451631Y-96487335D01*
X210450001Y-96499664D01*
X210400334Y-103900000D01*
X206501694Y-103900000D01*
X206549972Y-102451666D01*
X206546683Y-102432093D01*
X206536038Y-102415341D01*
X206519715Y-102404051D01*
X206499643Y-102400001D01*
X199550000Y-102449641D01*
X199550000Y-101500000D01*
X199546061Y-101480547D01*
X199540000Y-101470000D01*
X199240000Y-101070000D01*
X199225177Y-101056801D01*
X199199474Y-101050003D01*
X194500000Y-101099471D01*
X194500000Y-98000000D01*
X195849976Y-98000000D01*
X206449764Y-98049999D01*
X206469235Y-98046152D01*
X206488411Y-98032009D01*
X207737775Y-96532772D01*
X209572228Y-94500000D01*
X211000000Y-94500000D01*
X211022361Y-94494721D01*
X211622361Y-94194721D01*
X211637998Y-94182498D01*
X211647648Y-94165155D01*
X211650000Y-94150000D01*
X211650000Y-90850000D01*
X213950000Y-90850000D01*
X213950000Y-94400000D01*
X213950000Y-94400000D01*
G37*
X213950000Y-94400000D02*
X213953939Y-94419453D01*
X213965136Y-94435840D01*
X213981827Y-94446581D01*
X214000000Y-94450000D01*
X218050000Y-94450000D01*
X218050000Y-95800000D01*
X211000000Y-95800000D01*
X210980547Y-95803939D01*
X210960369Y-95819514D01*
X210460369Y-96469514D01*
X210451631Y-96487335D01*
X210450001Y-96499664D01*
X210400334Y-103900000D01*
X206501694Y-103900000D01*
X206549972Y-102451666D01*
X206546683Y-102432093D01*
X206536038Y-102415341D01*
X206519715Y-102404051D01*
X206499643Y-102400001D01*
X199550000Y-102449641D01*
X199550000Y-101500000D01*
X199546061Y-101480547D01*
X199540000Y-101470000D01*
X199240000Y-101070000D01*
X199225177Y-101056801D01*
X199199474Y-101050003D01*
X194500000Y-101099471D01*
X194500000Y-98000000D01*
X195849976Y-98000000D01*
X206449764Y-98049999D01*
X206469235Y-98046152D01*
X206488411Y-98032009D01*
X207737775Y-96532772D01*
X209572228Y-94500000D01*
X211000000Y-94500000D01*
X211022361Y-94494721D01*
X211622361Y-94194721D01*
X211637998Y-94182498D01*
X211647648Y-94165155D01*
X211650000Y-94150000D01*
X211650000Y-90850000D01*
X213950000Y-90850000D01*
X213950000Y-94400000D01*
G36*
X212447964Y-114813173D02*
X212405652Y-115151669D01*
X211178371Y-115198872D01*
X211004503Y-114894603D01*
X211136038Y-114500000D01*
X212224269Y-114500000D01*
X212447964Y-114813173D01*
X212447964Y-114813173D01*
G37*
X212447964Y-114813173D02*
X212405652Y-115151669D01*
X211178371Y-115198872D01*
X211004503Y-114894603D01*
X211136038Y-114500000D01*
X212224269Y-114500000D01*
X212447964Y-114813173D01*
D58*
G36*
X225622215Y-72673924D02*
X223948930Y-74873099D01*
X223926974Y-74918479D01*
X223924403Y-74968827D01*
X223941623Y-75016208D01*
X223966728Y-75045889D01*
X225772771Y-76614295D01*
X224436376Y-78217969D01*
X221026901Y-75187325D01*
X224118985Y-71524395D01*
X225622215Y-72673924D01*
X225622215Y-72673924D01*
G37*
X225622215Y-72673924D02*
X223948930Y-74873099D01*
X223926974Y-74918479D01*
X223924403Y-74968827D01*
X223941623Y-75016208D01*
X223966728Y-75045889D01*
X225772771Y-76614295D01*
X224436376Y-78217969D01*
X221026901Y-75187325D01*
X224118985Y-71524395D01*
X225622215Y-72673924D01*
G36*
X218973000Y-104250000D02*
X218983006Y-104299410D01*
X219011447Y-104341035D01*
X219053841Y-104368315D01*
X219100000Y-104377000D01*
X220223000Y-104377000D01*
X220223000Y-109373000D01*
X217676400Y-109373000D01*
X217627604Y-99077000D01*
X218973000Y-99077000D01*
X218973000Y-104250000D01*
X218973000Y-104250000D01*
G37*
X218973000Y-104250000D02*
X218983006Y-104299410D01*
X219011447Y-104341035D01*
X219053841Y-104368315D01*
X219100000Y-104377000D01*
X220223000Y-104377000D01*
X220223000Y-109373000D01*
X217676400Y-109373000D01*
X217627604Y-99077000D01*
X218973000Y-99077000D01*
X218973000Y-104250000D01*
G36*
X220223000Y-97002606D02*
X220223000Y-100564251D01*
X219727000Y-100531184D01*
X219727000Y-98600000D01*
X219716994Y-98550590D01*
X219699170Y-98520664D01*
X219499170Y-98270664D01*
X219460491Y-98238331D01*
X219400000Y-98223000D01*
X216500000Y-98223000D01*
X216450590Y-98233006D01*
X216410197Y-98260197D01*
X216110197Y-98560197D01*
X216082334Y-98602211D01*
X216073000Y-98650000D01*
X216073000Y-108923000D01*
X212077000Y-108923000D01*
X212077000Y-103950000D01*
X212076997Y-103949118D01*
X212027366Y-96802240D01*
X212102606Y-96727000D01*
X219947394Y-96727000D01*
X220223000Y-97002606D01*
X220223000Y-97002606D01*
G37*
X220223000Y-97002606D02*
X220223000Y-100564251D01*
X219727000Y-100531184D01*
X219727000Y-98600000D01*
X219716994Y-98550590D01*
X219699170Y-98520664D01*
X219499170Y-98270664D01*
X219460491Y-98238331D01*
X219400000Y-98223000D01*
X216500000Y-98223000D01*
X216450590Y-98233006D01*
X216410197Y-98260197D01*
X216110197Y-98560197D01*
X216082334Y-98602211D01*
X216073000Y-98650000D01*
X216073000Y-108923000D01*
X212077000Y-108923000D01*
X212077000Y-103950000D01*
X212076997Y-103949118D01*
X212027366Y-96802240D01*
X212102606Y-96727000D01*
X219947394Y-96727000D01*
X220223000Y-97002606D01*
G36*
X223173000Y-105923000D02*
X222277000Y-105923000D01*
X222277000Y-104127000D01*
X223173000Y-104127000D01*
X223173000Y-105923000D01*
X223173000Y-105923000D01*
G37*
X223173000Y-105923000D02*
X222277000Y-105923000D01*
X222277000Y-104127000D01*
X223173000Y-104127000D01*
X223173000Y-105923000D01*
G36*
X234823793Y-102662731D02*
X234872506Y-106462290D01*
X234532032Y-106973000D01*
X230450000Y-106973000D01*
X230400590Y-106983006D01*
X230358965Y-107011447D01*
X230331685Y-107053841D01*
X230323000Y-107100000D01*
X230323000Y-110623000D01*
X222114355Y-110623000D01*
X221627000Y-109958425D01*
X221627000Y-108000000D01*
X221616994Y-107950590D01*
X221589803Y-107910197D01*
X220927000Y-107247394D01*
X220927000Y-104377000D01*
X221523000Y-104377000D01*
X221523000Y-106750000D01*
X221533006Y-106799410D01*
X221560197Y-106839803D01*
X221860197Y-107139803D01*
X221902211Y-107167666D01*
X221950000Y-107177000D01*
X223900000Y-107177000D01*
X223949410Y-107166994D01*
X223985429Y-107143972D01*
X224535429Y-106643972D01*
X224565259Y-106603332D01*
X224577000Y-106550000D01*
X224577000Y-104923473D01*
X228003576Y-104826950D01*
X228052685Y-104815557D01*
X228097564Y-104781303D01*
X228597564Y-104181303D01*
X228621509Y-104136940D01*
X228627000Y-104100000D01*
X228627000Y-102752606D01*
X228953075Y-102426531D01*
X234456926Y-102377390D01*
X234823793Y-102662731D01*
X234823793Y-102662731D01*
G37*
X234823793Y-102662731D02*
X234872506Y-106462290D01*
X234532032Y-106973000D01*
X230450000Y-106973000D01*
X230400590Y-106983006D01*
X230358965Y-107011447D01*
X230331685Y-107053841D01*
X230323000Y-107100000D01*
X230323000Y-110623000D01*
X222114355Y-110623000D01*
X221627000Y-109958425D01*
X221627000Y-108000000D01*
X221616994Y-107950590D01*
X221589803Y-107910197D01*
X220927000Y-107247394D01*
X220927000Y-104377000D01*
X221523000Y-104377000D01*
X221523000Y-106750000D01*
X221533006Y-106799410D01*
X221560197Y-106839803D01*
X221860197Y-107139803D01*
X221902211Y-107167666D01*
X221950000Y-107177000D01*
X223900000Y-107177000D01*
X223949410Y-107166994D01*
X223985429Y-107143972D01*
X224535429Y-106643972D01*
X224565259Y-106603332D01*
X224577000Y-106550000D01*
X224577000Y-104923473D01*
X228003576Y-104826950D01*
X228052685Y-104815557D01*
X228097564Y-104781303D01*
X228597564Y-104181303D01*
X228621509Y-104136940D01*
X228627000Y-104100000D01*
X228627000Y-102752606D01*
X228953075Y-102426531D01*
X234456926Y-102377390D01*
X234823793Y-102662731D01*
G36*
X240373000Y-112373000D02*
X233052606Y-112373000D01*
X231627000Y-110947394D01*
X231627000Y-108852606D01*
X231852606Y-108627000D01*
X240373000Y-108627000D01*
X240373000Y-112373000D01*
X240373000Y-112373000D01*
G37*
X240373000Y-112373000D02*
X233052606Y-112373000D01*
X231627000Y-110947394D01*
X231627000Y-108852606D01*
X231852606Y-108627000D01*
X240373000Y-108627000D01*
X240373000Y-112373000D01*
G36*
X181024741Y-107104347D02*
X181070866Y-108488101D01*
X180757667Y-108723000D01*
X180438452Y-108723000D01*
X180077000Y-108482032D01*
X180077000Y-107163500D01*
X180192333Y-107077000D01*
X180997394Y-107077000D01*
X181024741Y-107104347D01*
X181024741Y-107104347D01*
G37*
X181024741Y-107104347D02*
X181070866Y-108488101D01*
X180757667Y-108723000D01*
X180438452Y-108723000D01*
X180077000Y-108482032D01*
X180077000Y-107163500D01*
X180192333Y-107077000D01*
X180997394Y-107077000D01*
X181024741Y-107104347D01*
G36*
X181073000Y-102017968D02*
X181073000Y-103297394D01*
X180935070Y-103435324D01*
X180584366Y-103523000D01*
X180357628Y-103523000D01*
X180077000Y-103202282D01*
X180077000Y-102032534D01*
X180426952Y-101877000D01*
X180861548Y-101877000D01*
X181073000Y-102017968D01*
X181073000Y-102017968D01*
G37*
X181073000Y-102017968D02*
X181073000Y-103297394D01*
X180935070Y-103435324D01*
X180584366Y-103523000D01*
X180357628Y-103523000D01*
X180077000Y-103202282D01*
X180077000Y-102032534D01*
X180426952Y-101877000D01*
X180861548Y-101877000D01*
X181073000Y-102017968D01*
G36*
X181073000Y-96802606D02*
X181073000Y-98141587D01*
X180803019Y-98373000D01*
X180357628Y-98373000D01*
X180077000Y-98052282D01*
X180077000Y-96817968D01*
X180288452Y-96677000D01*
X180947394Y-96677000D01*
X181073000Y-96802606D01*
X181073000Y-96802606D01*
G37*
X181073000Y-96802606D02*
X181073000Y-98141587D01*
X180803019Y-98373000D01*
X180357628Y-98373000D01*
X180077000Y-98052282D01*
X180077000Y-96817968D01*
X180288452Y-96677000D01*
X180947394Y-96677000D01*
X181073000Y-96802606D01*
G36*
X181073000Y-91513500D02*
X181073000Y-92929610D01*
X180763576Y-93123000D01*
X180362114Y-93123000D01*
X180077000Y-92756425D01*
X180077000Y-91547002D01*
X180517008Y-91427000D01*
X180957667Y-91427000D01*
X181073000Y-91513500D01*
X181073000Y-91513500D01*
G37*
X181073000Y-91513500D02*
X181073000Y-92929610D01*
X180763576Y-93123000D01*
X180362114Y-93123000D01*
X180077000Y-92756425D01*
X180077000Y-91547002D01*
X180517008Y-91427000D01*
X180957667Y-91427000D01*
X181073000Y-91513500D01*
G36*
X226773000Y-85376067D02*
X226773000Y-85632032D01*
X226561548Y-85773000D01*
X224127000Y-85773000D01*
X224127000Y-85277000D01*
X225250000Y-85277000D01*
X225300028Y-85266731D01*
X225626067Y-85127000D01*
X226666257Y-85127000D01*
X226773000Y-85376067D01*
X226773000Y-85376067D01*
G37*
X226773000Y-85376067D02*
X226773000Y-85632032D01*
X226561548Y-85773000D01*
X224127000Y-85773000D01*
X224127000Y-85277000D01*
X225250000Y-85277000D01*
X225300028Y-85266731D01*
X225626067Y-85127000D01*
X226666257Y-85127000D01*
X226773000Y-85376067D01*
G36*
X205373000Y-81302606D02*
X205373000Y-81866594D01*
X204025000Y-81866594D01*
X203990954Y-81873000D01*
X203877000Y-81873000D01*
X203877000Y-80877000D01*
X204947394Y-80877000D01*
X205373000Y-81302606D01*
X205373000Y-81302606D01*
G37*
X205373000Y-81302606D02*
X205373000Y-81866594D01*
X204025000Y-81866594D01*
X203990954Y-81873000D01*
X203877000Y-81873000D01*
X203877000Y-80877000D01*
X204947394Y-80877000D01*
X205373000Y-81302606D01*
G36*
X192373000Y-88779980D02*
X192373000Y-90123000D01*
X191377000Y-90123000D01*
X191377000Y-88779980D01*
X191578490Y-88377000D01*
X192171510Y-88377000D01*
X192373000Y-88779980D01*
X192373000Y-88779980D01*
G37*
X192373000Y-88779980D02*
X192373000Y-90123000D01*
X191377000Y-90123000D01*
X191377000Y-88779980D01*
X191578490Y-88377000D01*
X192171510Y-88377000D01*
X192373000Y-88779980D01*
G36*
X193173000Y-94566123D02*
X193173000Y-95188961D01*
X192755452Y-95523000D01*
X191477000Y-95523000D01*
X191477000Y-94277000D01*
X192759967Y-94277000D01*
X193173000Y-94566123D01*
X193173000Y-94566123D01*
G37*
X193173000Y-94566123D02*
X193173000Y-95188961D01*
X192755452Y-95523000D01*
X191477000Y-95523000D01*
X191477000Y-94277000D01*
X192759967Y-94277000D01*
X193173000Y-94566123D01*
G36*
X193173000Y-99948735D02*
X193173000Y-100397394D01*
X192797394Y-100773000D01*
X191527000Y-100773000D01*
X191527000Y-99527000D01*
X192793439Y-99527000D01*
X193173000Y-99948735D01*
X193173000Y-99948735D01*
G37*
X193173000Y-99948735D02*
X193173000Y-100397394D01*
X192797394Y-100773000D01*
X191527000Y-100773000D01*
X191527000Y-99527000D01*
X192793439Y-99527000D01*
X193173000Y-99948735D01*
G36*
X192745530Y-104725136D02*
X193023000Y-105002606D01*
X193023000Y-106073000D01*
X191527000Y-106073000D01*
X191527000Y-104681617D01*
X192745530Y-104725136D01*
X192745530Y-104725136D01*
G37*
X192745530Y-104725136D02*
X193023000Y-105002606D01*
X193023000Y-106073000D01*
X191527000Y-106073000D01*
X191527000Y-104681617D01*
X192745530Y-104725136D01*
G36*
X185623000Y-74823000D02*
X184298285Y-74823000D01*
X183927000Y-74492969D01*
X183927000Y-73974727D01*
X184282909Y-73777000D01*
X185623000Y-73777000D01*
X185623000Y-74823000D01*
X185623000Y-74823000D01*
G37*
X185623000Y-74823000D02*
X184298285Y-74823000D01*
X183927000Y-74492969D01*
X183927000Y-73974727D01*
X184282909Y-73777000D01*
X185623000Y-73777000D01*
X185623000Y-74823000D01*
G36*
X185623000Y-77023000D02*
X184138452Y-77023000D01*
X183777000Y-76782032D01*
X183777000Y-76257628D01*
X184097718Y-75977000D01*
X185623000Y-75977000D01*
X185623000Y-77023000D01*
X185623000Y-77023000D01*
G37*
X185623000Y-77023000D02*
X184138452Y-77023000D01*
X183777000Y-76782032D01*
X183777000Y-76257628D01*
X184097718Y-75977000D01*
X185623000Y-75977000D01*
X185623000Y-77023000D01*
G36*
X185923000Y-65233727D02*
X185923000Y-65797394D01*
X185697394Y-66023000D01*
X184277000Y-66023000D01*
X184277000Y-64977000D01*
X185776299Y-64977000D01*
X185923000Y-65233727D01*
X185923000Y-65233727D01*
G37*
X185923000Y-65233727D02*
X185923000Y-65797394D01*
X185697394Y-66023000D01*
X184277000Y-66023000D01*
X184277000Y-64977000D01*
X185776299Y-64977000D01*
X185923000Y-65233727D01*
G36*
X185923000Y-62959483D02*
X185923000Y-63597394D01*
X185697394Y-63823000D01*
X184277000Y-63823000D01*
X184277000Y-62777000D01*
X185704020Y-62777000D01*
X185923000Y-62959483D01*
X185923000Y-62959483D01*
G37*
X185923000Y-62959483D02*
X185923000Y-63597394D01*
X185697394Y-63823000D01*
X184277000Y-63823000D01*
X184277000Y-62777000D01*
X185704020Y-62777000D01*
X185923000Y-62959483D01*
G36*
X179099000Y-92800000D02*
X179127917Y-93019957D01*
X179278261Y-93322463D01*
X179628261Y-93772463D01*
X179893382Y-93975974D01*
X179658398Y-94020189D01*
X179368758Y-94206568D01*
X179174448Y-94490949D01*
X179135343Y-94684058D01*
X178600000Y-94577572D01*
X163321428Y-94577572D01*
X162708752Y-94699441D01*
X162189350Y-95046494D01*
X153110522Y-104125322D01*
X138313628Y-104125322D01*
X137700952Y-104247191D01*
X137181550Y-104594244D01*
X128376794Y-113399000D01*
X118358356Y-113399000D01*
X118245919Y-113230726D01*
X117706403Y-112870233D01*
X117070000Y-112743645D01*
X116433597Y-112870233D01*
X115894081Y-113230726D01*
X115800000Y-113371528D01*
X115705919Y-113230726D01*
X115166403Y-112870233D01*
X114530000Y-112743645D01*
X113893597Y-112870233D01*
X113354081Y-113230726D01*
X113260000Y-113371528D01*
X113165919Y-113230726D01*
X112626403Y-112870233D01*
X111990000Y-112743645D01*
X111353597Y-112870233D01*
X110814081Y-113230726D01*
X110720000Y-113371528D01*
X110625919Y-113230726D01*
X110086403Y-112870233D01*
X109450000Y-112743645D01*
X108813597Y-112870233D01*
X108411922Y-113138623D01*
X108343954Y-113032998D01*
X108059573Y-112838688D01*
X107722000Y-112770328D01*
X106098000Y-112770328D01*
X105782638Y-112829667D01*
X105492998Y-113016046D01*
X105298688Y-113300427D01*
X105230328Y-113638000D01*
X105230328Y-116362000D01*
X105289667Y-116677362D01*
X105476046Y-116967002D01*
X105559000Y-117023682D01*
X105559000Y-117362000D01*
X105661839Y-117879005D01*
X105954699Y-118317301D01*
X106642699Y-119005301D01*
X106745514Y-119074000D01*
X69386602Y-119074000D01*
X70115301Y-118345301D01*
X70408161Y-117907006D01*
X70462665Y-117632994D01*
X70511000Y-117390000D01*
X70511000Y-116507247D01*
X70696412Y-116229758D01*
X70823000Y-115593355D01*
X70823000Y-114406645D01*
X70761000Y-114094949D01*
X70761000Y-99003156D01*
X70917389Y-98846767D01*
X142208697Y-98846767D01*
X142474709Y-99490566D01*
X142966843Y-99983560D01*
X143610177Y-100250695D01*
X144306767Y-100251303D01*
X144950566Y-99985291D01*
X144959575Y-99976298D01*
X144978046Y-100005002D01*
X145262427Y-100199312D01*
X145600000Y-100267672D01*
X147400000Y-100267672D01*
X147715362Y-100208333D01*
X148005002Y-100021954D01*
X148199312Y-99737573D01*
X148267672Y-99400000D01*
X148267672Y-97600000D01*
X148208333Y-97284638D01*
X148021954Y-96994998D01*
X147737573Y-96800688D01*
X147400000Y-96732328D01*
X145600000Y-96732328D01*
X145284638Y-96791667D01*
X144994998Y-96978046D01*
X144962422Y-97025722D01*
X144953157Y-97016440D01*
X144309823Y-96749305D01*
X143613233Y-96748697D01*
X142969434Y-97014709D01*
X142476440Y-97506843D01*
X142209305Y-98150177D01*
X142208697Y-98846767D01*
X70917389Y-98846767D01*
X77234584Y-92529572D01*
X178600000Y-92529572D01*
X179099000Y-92430315D01*
X179099000Y-92800000D01*
X179099000Y-92800000D01*
G37*
X179099000Y-92800000D02*
X179127917Y-93019957D01*
X179278261Y-93322463D01*
X179628261Y-93772463D01*
X179893382Y-93975974D01*
X179658398Y-94020189D01*
X179368758Y-94206568D01*
X179174448Y-94490949D01*
X179135343Y-94684058D01*
X178600000Y-94577572D01*
X163321428Y-94577572D01*
X162708752Y-94699441D01*
X162189350Y-95046494D01*
X153110522Y-104125322D01*
X138313628Y-104125322D01*
X137700952Y-104247191D01*
X137181550Y-104594244D01*
X128376794Y-113399000D01*
X118358356Y-113399000D01*
X118245919Y-113230726D01*
X117706403Y-112870233D01*
X117070000Y-112743645D01*
X116433597Y-112870233D01*
X115894081Y-113230726D01*
X115800000Y-113371528D01*
X115705919Y-113230726D01*
X115166403Y-112870233D01*
X114530000Y-112743645D01*
X113893597Y-112870233D01*
X113354081Y-113230726D01*
X113260000Y-113371528D01*
X113165919Y-113230726D01*
X112626403Y-112870233D01*
X111990000Y-112743645D01*
X111353597Y-112870233D01*
X110814081Y-113230726D01*
X110720000Y-113371528D01*
X110625919Y-113230726D01*
X110086403Y-112870233D01*
X109450000Y-112743645D01*
X108813597Y-112870233D01*
X108411922Y-113138623D01*
X108343954Y-113032998D01*
X108059573Y-112838688D01*
X107722000Y-112770328D01*
X106098000Y-112770328D01*
X105782638Y-112829667D01*
X105492998Y-113016046D01*
X105298688Y-113300427D01*
X105230328Y-113638000D01*
X105230328Y-116362000D01*
X105289667Y-116677362D01*
X105476046Y-116967002D01*
X105559000Y-117023682D01*
X105559000Y-117362000D01*
X105661839Y-117879005D01*
X105954699Y-118317301D01*
X106642699Y-119005301D01*
X106745514Y-119074000D01*
X69386602Y-119074000D01*
X70115301Y-118345301D01*
X70408161Y-117907006D01*
X70462665Y-117632994D01*
X70511000Y-117390000D01*
X70511000Y-116507247D01*
X70696412Y-116229758D01*
X70823000Y-115593355D01*
X70823000Y-114406645D01*
X70761000Y-114094949D01*
X70761000Y-99003156D01*
X70917389Y-98846767D01*
X142208697Y-98846767D01*
X142474709Y-99490566D01*
X142966843Y-99983560D01*
X143610177Y-100250695D01*
X144306767Y-100251303D01*
X144950566Y-99985291D01*
X144959575Y-99976298D01*
X144978046Y-100005002D01*
X145262427Y-100199312D01*
X145600000Y-100267672D01*
X147400000Y-100267672D01*
X147715362Y-100208333D01*
X148005002Y-100021954D01*
X148199312Y-99737573D01*
X148267672Y-99400000D01*
X148267672Y-97600000D01*
X148208333Y-97284638D01*
X148021954Y-96994998D01*
X147737573Y-96800688D01*
X147400000Y-96732328D01*
X145600000Y-96732328D01*
X145284638Y-96791667D01*
X144994998Y-96978046D01*
X144962422Y-97025722D01*
X144953157Y-97016440D01*
X144309823Y-96749305D01*
X143613233Y-96748697D01*
X142969434Y-97014709D01*
X142476440Y-97506843D01*
X142209305Y-98150177D01*
X142208697Y-98846767D01*
X70917389Y-98846767D01*
X77234584Y-92529572D01*
X178600000Y-92529572D01*
X179099000Y-92430315D01*
X179099000Y-92800000D01*
G36*
X68310765Y-51211668D02*
X68050421Y-51601300D01*
X67959000Y-52060903D01*
X67959000Y-53068262D01*
X67890000Y-53171528D01*
X67795919Y-53030726D01*
X67256403Y-52670233D01*
X66620000Y-52543645D01*
X65983597Y-52670233D01*
X65444081Y-53030726D01*
X65350000Y-53171528D01*
X65255919Y-53030726D01*
X64716403Y-52670233D01*
X64080000Y-52543645D01*
X63443597Y-52670233D01*
X62904081Y-53030726D01*
X62810000Y-53171528D01*
X62715919Y-53030726D01*
X62176403Y-52670233D01*
X61540000Y-52543645D01*
X60903597Y-52670233D01*
X60364081Y-53030726D01*
X60270000Y-53171528D01*
X60175919Y-53030726D01*
X59636403Y-52670233D01*
X59000000Y-52543645D01*
X58363597Y-52670233D01*
X57824081Y-53030726D01*
X57463588Y-53570242D01*
X57337000Y-54206645D01*
X57337000Y-55393355D01*
X57463588Y-56029758D01*
X57824081Y-56569274D01*
X58363597Y-56929767D01*
X59000000Y-57056355D01*
X59636403Y-56929767D01*
X60175919Y-56569274D01*
X60270000Y-56428472D01*
X60339000Y-56531738D01*
X60339000Y-57846734D01*
X60430421Y-58306337D01*
X60661561Y-58652262D01*
X60690765Y-58695969D01*
X62044031Y-60049235D01*
X62433663Y-60309579D01*
X62893266Y-60401000D01*
X109002530Y-60401000D01*
X109765597Y-61164067D01*
X109729899Y-61149244D01*
X109172547Y-61148758D01*
X109050952Y-61199000D01*
X87898989Y-61199000D01*
X87381984Y-61301839D01*
X86943688Y-61594699D01*
X60584699Y-87953688D01*
X60291839Y-88391984D01*
X60189000Y-88908989D01*
X60189000Y-112865627D01*
X60149573Y-112838688D01*
X59812000Y-112770328D01*
X58188000Y-112770328D01*
X57872638Y-112829667D01*
X57582998Y-113016046D01*
X57388688Y-113300427D01*
X57320328Y-113638000D01*
X57320328Y-116362000D01*
X57379667Y-116677362D01*
X57566046Y-116967002D01*
X57649000Y-117023682D01*
X57649000Y-117362000D01*
X57751839Y-117879005D01*
X58044699Y-118317301D01*
X58801398Y-119074000D01*
X40926000Y-119074000D01*
X40926000Y-50926000D01*
X68596433Y-50926000D01*
X68310765Y-51211668D01*
X68310765Y-51211668D01*
G37*
X68310765Y-51211668D02*
X68050421Y-51601300D01*
X67959000Y-52060903D01*
X67959000Y-53068262D01*
X67890000Y-53171528D01*
X67795919Y-53030726D01*
X67256403Y-52670233D01*
X66620000Y-52543645D01*
X65983597Y-52670233D01*
X65444081Y-53030726D01*
X65350000Y-53171528D01*
X65255919Y-53030726D01*
X64716403Y-52670233D01*
X64080000Y-52543645D01*
X63443597Y-52670233D01*
X62904081Y-53030726D01*
X62810000Y-53171528D01*
X62715919Y-53030726D01*
X62176403Y-52670233D01*
X61540000Y-52543645D01*
X60903597Y-52670233D01*
X60364081Y-53030726D01*
X60270000Y-53171528D01*
X60175919Y-53030726D01*
X59636403Y-52670233D01*
X59000000Y-52543645D01*
X58363597Y-52670233D01*
X57824081Y-53030726D01*
X57463588Y-53570242D01*
X57337000Y-54206645D01*
X57337000Y-55393355D01*
X57463588Y-56029758D01*
X57824081Y-56569274D01*
X58363597Y-56929767D01*
X59000000Y-57056355D01*
X59636403Y-56929767D01*
X60175919Y-56569274D01*
X60270000Y-56428472D01*
X60339000Y-56531738D01*
X60339000Y-57846734D01*
X60430421Y-58306337D01*
X60661561Y-58652262D01*
X60690765Y-58695969D01*
X62044031Y-60049235D01*
X62433663Y-60309579D01*
X62893266Y-60401000D01*
X109002530Y-60401000D01*
X109765597Y-61164067D01*
X109729899Y-61149244D01*
X109172547Y-61148758D01*
X109050952Y-61199000D01*
X87898989Y-61199000D01*
X87381984Y-61301839D01*
X86943688Y-61594699D01*
X60584699Y-87953688D01*
X60291839Y-88391984D01*
X60189000Y-88908989D01*
X60189000Y-112865627D01*
X60149573Y-112838688D01*
X59812000Y-112770328D01*
X58188000Y-112770328D01*
X57872638Y-112829667D01*
X57582998Y-113016046D01*
X57388688Y-113300427D01*
X57320328Y-113638000D01*
X57320328Y-116362000D01*
X57379667Y-116677362D01*
X57566046Y-116967002D01*
X57649000Y-117023682D01*
X57649000Y-117362000D01*
X57751839Y-117879005D01*
X58044699Y-118317301D01*
X58801398Y-119074000D01*
X40926000Y-119074000D01*
X40926000Y-50926000D01*
X68596433Y-50926000D01*
X68310765Y-51211668D01*
G36*
X249074000Y-119074000D02*
X227945660Y-119074000D01*
X229309235Y-117710425D01*
X229491525Y-117437609D01*
X229569579Y-117320793D01*
X229661000Y-116861190D01*
X229661000Y-116731738D01*
X229730000Y-116628472D01*
X229824081Y-116769274D01*
X230363597Y-117129767D01*
X231000000Y-117256355D01*
X231636403Y-117129767D01*
X232175919Y-116769274D01*
X232536412Y-116229758D01*
X232663000Y-115593355D01*
X232663000Y-114406645D01*
X232536412Y-113770242D01*
X232351000Y-113492753D01*
X232351000Y-113291193D01*
X232292227Y-112995723D01*
X232398252Y-113101748D01*
X232668913Y-113283953D01*
X233000000Y-113351000D01*
X240500000Y-113351000D01*
X240809302Y-113292801D01*
X241093377Y-113110003D01*
X241283953Y-112831087D01*
X241351000Y-112500000D01*
X241351000Y-108500000D01*
X241292801Y-108190698D01*
X241110003Y-107906623D01*
X240831087Y-107716047D01*
X240500000Y-107649000D01*
X235230754Y-107649000D01*
X235308075Y-107572050D01*
X235708075Y-106972050D01*
X235788133Y-106821010D01*
X235850930Y-106489091D01*
X235800930Y-102589091D01*
X235692645Y-102184452D01*
X235472463Y-101928261D01*
X235022463Y-101578261D01*
X234824074Y-101463122D01*
X234492402Y-101399034D01*
X228892402Y-101449034D01*
X228579775Y-101511548D01*
X228298252Y-101698252D01*
X227898252Y-102098252D01*
X227716047Y-102368913D01*
X227649000Y-102700000D01*
X227649000Y-103791896D01*
X227592120Y-103860152D01*
X225029860Y-103932328D01*
X224775000Y-103932328D01*
X224730128Y-103940771D01*
X224426038Y-103949337D01*
X224151000Y-104005110D01*
X224151000Y-104000000D01*
X224146680Y-103977040D01*
X224146813Y-103824224D01*
X224093771Y-103695852D01*
X224092801Y-103690698D01*
X224089561Y-103685662D01*
X223933973Y-103309111D01*
X223540210Y-102914660D01*
X223025470Y-102700921D01*
X222468118Y-102700435D01*
X221953005Y-102913275D01*
X221558554Y-103307038D01*
X221520368Y-103399000D01*
X220800000Y-103399000D01*
X220566739Y-103442891D01*
X220350000Y-103399000D01*
X219951000Y-103399000D01*
X219951000Y-101526289D01*
X220293392Y-101549115D01*
X220659302Y-101492801D01*
X220683929Y-101476954D01*
X220885000Y-101517672D01*
X221585000Y-101517672D01*
X221900362Y-101458333D01*
X222190002Y-101271954D01*
X222384312Y-100987573D01*
X222452672Y-100650000D01*
X222452672Y-98950000D01*
X222443452Y-98901000D01*
X224021774Y-98901000D01*
X224153046Y-99105002D01*
X224437427Y-99299312D01*
X224775000Y-99367672D01*
X226025000Y-99367672D01*
X226340362Y-99308333D01*
X226630002Y-99121954D01*
X226824312Y-98837573D01*
X226892672Y-98500000D01*
X226892672Y-97000000D01*
X226833333Y-96684638D01*
X226646954Y-96394998D01*
X226362573Y-96200688D01*
X226025000Y-96132328D01*
X224775000Y-96132328D01*
X224459638Y-96191667D01*
X224225040Y-96342627D01*
X224399312Y-96087573D01*
X224467672Y-95750000D01*
X224467672Y-95527453D01*
X236848758Y-95527453D01*
X237061598Y-96042566D01*
X237455361Y-96437017D01*
X237599000Y-96496661D01*
X237599000Y-97168543D01*
X237500688Y-97312427D01*
X237432328Y-97650000D01*
X237432328Y-99150000D01*
X237491667Y-99465362D01*
X237601219Y-99635609D01*
X237309338Y-99926981D01*
X237130986Y-100356499D01*
X237069834Y-100460085D01*
X236999054Y-100790394D01*
X237062360Y-101122217D01*
X237512360Y-102222217D01*
X237689997Y-102493377D01*
X237968913Y-102683953D01*
X238300000Y-102751000D01*
X238757951Y-102751000D01*
X238893009Y-102807081D01*
X239450361Y-102807567D01*
X239724719Y-102694205D01*
X239915362Y-102658333D01*
X240205002Y-102471954D01*
X240399312Y-102187573D01*
X240431512Y-102028563D01*
X240573664Y-101686224D01*
X240574150Y-101128872D01*
X240511541Y-100977345D01*
X240467672Y-100494791D01*
X240467672Y-100350000D01*
X240408333Y-100034638D01*
X240324759Y-99904761D01*
X240324199Y-99903081D01*
X240322535Y-99901304D01*
X240222665Y-99746103D01*
X240399312Y-99487573D01*
X240467672Y-99150000D01*
X240467672Y-98101000D01*
X242802530Y-98101000D01*
X243186113Y-98484583D01*
X243000000Y-98447563D01*
X242325329Y-98581763D01*
X241753371Y-98963934D01*
X241371200Y-99535892D01*
X241237000Y-100210563D01*
X241237000Y-100789437D01*
X241371200Y-101464108D01*
X241753371Y-102036066D01*
X242325329Y-102418237D01*
X243000000Y-102552437D01*
X243674671Y-102418237D01*
X244246629Y-102036066D01*
X244628800Y-101464108D01*
X244742760Y-100891190D01*
X244863597Y-100971931D01*
X245500000Y-101098519D01*
X246136403Y-100971931D01*
X246675919Y-100611438D01*
X247036412Y-100071922D01*
X247163000Y-99435519D01*
X247163000Y-99064481D01*
X247036412Y-98428078D01*
X246675919Y-97888562D01*
X246136403Y-97528069D01*
X245500000Y-97401481D01*
X245499959Y-97401489D01*
X244149235Y-96050765D01*
X244129567Y-96037623D01*
X243759603Y-95790421D01*
X243300000Y-95699000D01*
X240442672Y-95699000D01*
X240442672Y-94500000D01*
X240383333Y-94184638D01*
X240196954Y-93894998D01*
X239912573Y-93700688D01*
X239575000Y-93632328D01*
X238325000Y-93632328D01*
X238009638Y-93691667D01*
X237719998Y-93878046D01*
X237648533Y-93982637D01*
X237457434Y-94061598D01*
X237062983Y-94455361D01*
X236849244Y-94970101D01*
X236848758Y-95527453D01*
X224467672Y-95527453D01*
X224467672Y-94450000D01*
X224408333Y-94134638D01*
X224221954Y-93844998D01*
X223937573Y-93650688D01*
X223600000Y-93582328D01*
X222100000Y-93582328D01*
X221784638Y-93641667D01*
X221617838Y-93749000D01*
X221281457Y-93749000D01*
X221137573Y-93650688D01*
X220800000Y-93582328D01*
X219300000Y-93582328D01*
X218984638Y-93641667D01*
X218715358Y-93814945D01*
X218710003Y-93806623D01*
X218431087Y-93616047D01*
X218100000Y-93549000D01*
X214851000Y-93549000D01*
X214851000Y-93210563D01*
X241237000Y-93210563D01*
X241237000Y-93789437D01*
X241371200Y-94464108D01*
X241753371Y-95036066D01*
X242325329Y-95418237D01*
X243000000Y-95552437D01*
X243674671Y-95418237D01*
X244246629Y-95036066D01*
X244628800Y-94464108D01*
X244763000Y-93789437D01*
X244763000Y-93210563D01*
X244628800Y-92535892D01*
X244246629Y-91963934D01*
X243674671Y-91581763D01*
X243000000Y-91447563D01*
X242325329Y-91581763D01*
X241753371Y-91963934D01*
X241371200Y-92535892D01*
X241237000Y-93210563D01*
X214851000Y-93210563D01*
X214851000Y-90800000D01*
X214850291Y-90796230D01*
X215950557Y-90796230D01*
X216136250Y-90982247D01*
X216650990Y-91195986D01*
X217208342Y-91196472D01*
X217319433Y-91150570D01*
X217428807Y-91195986D01*
X217986159Y-91196472D01*
X218501272Y-90983632D01*
X218895723Y-90589869D01*
X219109462Y-90075129D01*
X219109871Y-89605536D01*
X220202442Y-89605536D01*
X220388135Y-89791553D01*
X220902875Y-90005292D01*
X221460227Y-90005778D01*
X221571318Y-89959876D01*
X221680692Y-90005292D01*
X222238044Y-90005778D01*
X222753157Y-89792938D01*
X223147608Y-89399175D01*
X223361347Y-88884435D01*
X223361833Y-88327083D01*
X223148993Y-87811970D01*
X222755230Y-87417519D01*
X222706654Y-87397348D01*
X222900756Y-86929899D01*
X222901242Y-86372547D01*
X222688402Y-85857434D01*
X222601000Y-85769879D01*
X222601000Y-85150000D01*
X223149000Y-85150000D01*
X223149000Y-85900000D01*
X223207199Y-86209302D01*
X223389997Y-86493377D01*
X223668913Y-86683953D01*
X224000000Y-86751000D01*
X224041743Y-86751000D01*
X224050000Y-86752672D01*
X225025181Y-86752672D01*
X225399038Y-86907911D01*
X225956390Y-86908397D01*
X226133088Y-86835387D01*
X226170101Y-86850756D01*
X226727453Y-86851242D01*
X227242566Y-86638402D01*
X227637017Y-86244639D01*
X227850756Y-85729899D01*
X227851242Y-85172547D01*
X227681131Y-84760847D01*
X227737427Y-84799312D01*
X228075000Y-84867672D01*
X229325000Y-84867672D01*
X229640362Y-84808333D01*
X229678519Y-84783780D01*
X229853046Y-85055002D01*
X230137427Y-85249312D01*
X230475000Y-85317672D01*
X231225000Y-85317672D01*
X231540362Y-85258333D01*
X231597149Y-85221791D01*
X231637427Y-85249312D01*
X231975000Y-85317672D01*
X232725000Y-85317672D01*
X233040362Y-85258333D01*
X233330002Y-85071954D01*
X233523018Y-84789467D01*
X233537427Y-84799312D01*
X233875000Y-84867672D01*
X235125000Y-84867672D01*
X235440362Y-84808333D01*
X235730002Y-84621954D01*
X235924312Y-84337573D01*
X235956736Y-84177453D01*
X236798758Y-84177453D01*
X237011598Y-84692566D01*
X237405361Y-85087017D01*
X237629964Y-85180280D01*
X237677335Y-85253897D01*
X237500688Y-85512427D01*
X237432328Y-85850000D01*
X237432328Y-87350000D01*
X237491667Y-87665362D01*
X237555248Y-87764169D01*
X237711598Y-88142566D01*
X238105361Y-88537017D01*
X238620101Y-88750756D01*
X239177453Y-88751242D01*
X239692566Y-88538402D01*
X240087017Y-88144639D01*
X240141847Y-88012593D01*
X240205002Y-87971954D01*
X240399312Y-87687573D01*
X240467672Y-87350000D01*
X240467672Y-85850000D01*
X240408333Y-85534638D01*
X240222665Y-85246103D01*
X240399312Y-84987573D01*
X240467672Y-84650000D01*
X240467672Y-83701000D01*
X244031794Y-83701000D01*
X243963588Y-83803078D01*
X243902710Y-84109134D01*
X243674671Y-83956763D01*
X243000000Y-83822563D01*
X242325329Y-83956763D01*
X241753371Y-84338934D01*
X241371200Y-84910892D01*
X241237000Y-85585563D01*
X241237000Y-86164437D01*
X241371200Y-86839108D01*
X241753371Y-87411066D01*
X242325329Y-87793237D01*
X243000000Y-87927437D01*
X243674671Y-87793237D01*
X244246629Y-87411066D01*
X244628800Y-86839108D01*
X244742760Y-86266190D01*
X244863597Y-86346931D01*
X245500000Y-86473519D01*
X246136403Y-86346931D01*
X246675919Y-85986438D01*
X247036412Y-85446922D01*
X247163000Y-84810519D01*
X247163000Y-84439481D01*
X247036412Y-83803078D01*
X246701000Y-83301098D01*
X246701000Y-83228757D01*
X246609579Y-82769154D01*
X246349235Y-82379522D01*
X245620478Y-81650765D01*
X245563101Y-81612427D01*
X245230846Y-81390421D01*
X244771243Y-81299000D01*
X240442672Y-81299000D01*
X240442672Y-80000000D01*
X240383333Y-79684638D01*
X240196954Y-79394998D01*
X239912573Y-79200688D01*
X239575000Y-79132328D01*
X238325000Y-79132328D01*
X238009638Y-79191667D01*
X237719998Y-79378046D01*
X237525688Y-79662427D01*
X237457328Y-80000000D01*
X237457328Y-81500000D01*
X237516667Y-81815362D01*
X237599000Y-81943311D01*
X237599000Y-82632445D01*
X237407434Y-82711598D01*
X237012983Y-83105361D01*
X236799244Y-83620101D01*
X236798758Y-84177453D01*
X235956736Y-84177453D01*
X235992672Y-84000000D01*
X235992672Y-82500000D01*
X235933333Y-82184638D01*
X235746954Y-81894998D01*
X235462573Y-81700688D01*
X235125000Y-81632328D01*
X233875000Y-81632328D01*
X233559638Y-81691667D01*
X233545746Y-81700606D01*
X233533333Y-81634638D01*
X233501000Y-81584391D01*
X233501000Y-81141916D01*
X233413385Y-80701447D01*
X233163880Y-80328036D01*
X232487863Y-79652019D01*
X232331888Y-79547800D01*
X232114452Y-79402514D01*
X231673983Y-79314899D01*
X228569413Y-79314899D01*
X228128944Y-79402514D01*
X227911508Y-79547800D01*
X227755533Y-79652019D01*
X225630224Y-81777328D01*
X224050000Y-81777328D01*
X223734638Y-81836667D01*
X223444998Y-82023046D01*
X223250688Y-82307427D01*
X223182328Y-82645000D01*
X223182328Y-83345000D01*
X223237923Y-83640463D01*
X223182328Y-83915000D01*
X223182328Y-84615000D01*
X223219693Y-84813577D01*
X223216047Y-84818913D01*
X223149000Y-85150000D01*
X222601000Y-85150000D01*
X222601000Y-84915005D01*
X222601001Y-84915000D01*
X222517191Y-84493666D01*
X222453136Y-84397800D01*
X222278525Y-84136475D01*
X222278522Y-84136473D01*
X221657760Y-83515710D01*
X221899235Y-83274235D01*
X222005173Y-83115688D01*
X222159579Y-82884603D01*
X222246198Y-82449142D01*
X222405002Y-82346954D01*
X222599312Y-82062573D01*
X222667672Y-81725000D01*
X222667672Y-80475000D01*
X222608333Y-80159638D01*
X222421954Y-79869998D01*
X222401000Y-79855681D01*
X222401000Y-78150000D01*
X222308107Y-77682995D01*
X222298161Y-77632994D01*
X222286412Y-77615410D01*
X223884626Y-79036045D01*
X224180074Y-79207057D01*
X224515331Y-79248489D01*
X224840293Y-79156222D01*
X225103756Y-78944797D01*
X225200070Y-78829221D01*
X225210555Y-78826282D01*
X225479910Y-78611627D01*
X225501780Y-78585563D01*
X241237000Y-78585563D01*
X241237000Y-79164437D01*
X241371200Y-79839108D01*
X241753371Y-80411066D01*
X242325329Y-80793237D01*
X243000000Y-80927437D01*
X243674671Y-80793237D01*
X244246629Y-80411066D01*
X244628800Y-79839108D01*
X244763000Y-79164437D01*
X244763000Y-78585563D01*
X244628800Y-77910892D01*
X244246629Y-77338934D01*
X243674671Y-76956763D01*
X243000000Y-76822563D01*
X242325329Y-76956763D01*
X241753371Y-77338934D01*
X241371200Y-77910892D01*
X241237000Y-78585563D01*
X225501780Y-78585563D01*
X226283395Y-77654072D01*
X226440649Y-77374348D01*
X226445718Y-77334442D01*
X226603756Y-77144797D01*
X226751396Y-76886296D01*
X226799642Y-76551951D01*
X226714009Y-76225178D01*
X226507989Y-75957467D01*
X225210257Y-74830489D01*
X226477250Y-73165299D01*
X226617653Y-72885890D01*
X226645008Y-72549193D01*
X226567686Y-72314718D01*
X226755869Y-72236962D01*
X227210009Y-71783613D01*
X227456091Y-71190982D01*
X227456651Y-70549291D01*
X227211604Y-69956231D01*
X226758255Y-69502091D01*
X226165624Y-69256009D01*
X225523933Y-69255449D01*
X225150575Y-69409717D01*
X225359546Y-69200746D01*
X229340144Y-69200746D01*
X233194699Y-73055301D01*
X233632995Y-73348161D01*
X234150000Y-73451000D01*
X236441184Y-73451000D01*
X238166335Y-73690604D01*
X238300000Y-73717672D01*
X239600000Y-73717672D01*
X239915362Y-73658333D01*
X240205002Y-73471954D01*
X240399312Y-73187573D01*
X240467672Y-72850000D01*
X240467672Y-71350000D01*
X240408333Y-71034638D01*
X240222665Y-70746103D01*
X240399312Y-70487573D01*
X240467672Y-70150000D01*
X240467672Y-68951000D01*
X244115317Y-68951000D01*
X243963588Y-69178078D01*
X243902710Y-69484134D01*
X243674671Y-69331763D01*
X243000000Y-69197563D01*
X242325329Y-69331763D01*
X241753371Y-69713934D01*
X241371200Y-70285892D01*
X241237000Y-70960563D01*
X241237000Y-71539437D01*
X241371200Y-72214108D01*
X241753371Y-72786066D01*
X242325329Y-73168237D01*
X243000000Y-73302437D01*
X243674671Y-73168237D01*
X244246629Y-72786066D01*
X244628800Y-72214108D01*
X244742760Y-71641190D01*
X244863597Y-71721931D01*
X245500000Y-71848519D01*
X246136403Y-71721931D01*
X246675919Y-71361438D01*
X247036412Y-70821922D01*
X247163000Y-70185519D01*
X247163000Y-69814481D01*
X247036412Y-69178078D01*
X246701000Y-68676098D01*
X246701000Y-68338000D01*
X246680833Y-68236615D01*
X246609580Y-67878398D01*
X246349236Y-67488765D01*
X245761235Y-66900765D01*
X245683447Y-66848789D01*
X245371603Y-66640421D01*
X244912000Y-66549000D01*
X240442672Y-66549000D01*
X240442672Y-65250000D01*
X240383333Y-64934638D01*
X240196954Y-64644998D01*
X239912573Y-64450688D01*
X239575000Y-64382328D01*
X238325000Y-64382328D01*
X238009638Y-64441667D01*
X237719998Y-64628046D01*
X237525688Y-64912427D01*
X237457328Y-65250000D01*
X237457328Y-66750000D01*
X237516667Y-67065362D01*
X237599000Y-67193311D01*
X237599000Y-68153104D01*
X237457434Y-68211598D01*
X237062983Y-68605361D01*
X236849244Y-69120101D01*
X236848758Y-69677453D01*
X237061598Y-70192566D01*
X237455361Y-70587017D01*
X237493484Y-70602847D01*
X236441184Y-70749000D01*
X234709602Y-70749000D01*
X230855047Y-66894445D01*
X230733332Y-66813118D01*
X230919438Y-66813280D01*
X231512498Y-66568233D01*
X231966638Y-66114884D01*
X232212720Y-65522253D01*
X232213280Y-64880562D01*
X231968233Y-64287502D01*
X231641864Y-63960563D01*
X241237000Y-63960563D01*
X241237000Y-64539437D01*
X241371200Y-65214108D01*
X241753371Y-65786066D01*
X242325329Y-66168237D01*
X243000000Y-66302437D01*
X243674671Y-66168237D01*
X244246629Y-65786066D01*
X244628800Y-65214108D01*
X244763000Y-64539437D01*
X244763000Y-63960563D01*
X244628800Y-63285892D01*
X244246629Y-62713934D01*
X243674671Y-62331763D01*
X243000000Y-62197563D01*
X242325329Y-62331763D01*
X241753371Y-62713934D01*
X241371200Y-63285892D01*
X241237000Y-63960563D01*
X231641864Y-63960563D01*
X231514884Y-63833362D01*
X230922253Y-63587280D01*
X230280562Y-63586720D01*
X229687502Y-63831767D01*
X229233362Y-64285116D01*
X228987280Y-64877747D01*
X228986720Y-65519438D01*
X229231767Y-66112498D01*
X229617342Y-66498746D01*
X224799944Y-66498746D01*
X224282939Y-66601585D01*
X223844643Y-66894445D01*
X220650263Y-70088825D01*
X220645787Y-70077993D01*
X220691203Y-69968619D01*
X220691689Y-69411267D01*
X220478849Y-68896154D01*
X220085086Y-68501703D01*
X219570346Y-68287964D01*
X219176431Y-68287621D01*
X218881727Y-68229000D01*
X215859795Y-68229000D01*
X215749573Y-68153688D01*
X215412000Y-68085328D01*
X213688000Y-68085328D01*
X213372638Y-68144667D01*
X213082998Y-68331046D01*
X212888688Y-68615427D01*
X212820328Y-68953000D01*
X212820328Y-69499000D01*
X210936318Y-69499000D01*
X210534118Y-69579003D01*
X210193149Y-69806831D01*
X209179672Y-70820308D01*
X209179672Y-70223000D01*
X209120333Y-69907638D01*
X209119160Y-69905816D01*
X209179672Y-69607000D01*
X209179672Y-68953000D01*
X209120333Y-68637638D01*
X209119160Y-68635816D01*
X209179672Y-68337000D01*
X209179672Y-67683000D01*
X209120333Y-67367638D01*
X209119160Y-67365816D01*
X209179672Y-67067000D01*
X209179672Y-66413000D01*
X209120333Y-66097638D01*
X209119160Y-66095816D01*
X209179672Y-65797000D01*
X209179672Y-65143000D01*
X209120333Y-64827638D01*
X209119160Y-64825816D01*
X209179672Y-64527000D01*
X209179672Y-63873000D01*
X209120333Y-63557638D01*
X208933954Y-63267998D01*
X208649573Y-63073688D01*
X208312000Y-63005328D01*
X206588000Y-63005328D01*
X206272638Y-63064667D01*
X206188202Y-63119000D01*
X203501254Y-63119000D01*
X203449573Y-63083688D01*
X203112000Y-63015328D01*
X200888000Y-63015328D01*
X200572638Y-63074667D01*
X200282998Y-63261046D01*
X200088688Y-63545427D01*
X200020328Y-63883000D01*
X200020328Y-64557000D01*
X200078459Y-64865941D01*
X200020328Y-65153000D01*
X200020328Y-65827000D01*
X200078459Y-66135941D01*
X200020328Y-66423000D01*
X200020328Y-67097000D01*
X200078459Y-67405941D01*
X200020328Y-67693000D01*
X200020328Y-68367000D01*
X200078459Y-68675941D01*
X200020328Y-68963000D01*
X200020328Y-69637000D01*
X200078459Y-69945941D01*
X200020328Y-70233000D01*
X200020328Y-70907000D01*
X200078459Y-71215941D01*
X200020328Y-71503000D01*
X200020328Y-72177000D01*
X200078459Y-72485941D01*
X200020328Y-72773000D01*
X200020328Y-73447000D01*
X200079667Y-73762362D01*
X200266046Y-74052002D01*
X200550427Y-74246312D01*
X200888000Y-74314672D01*
X203112000Y-74314672D01*
X203427362Y-74255333D01*
X203573959Y-74161000D01*
X208376318Y-74161000D01*
X208778518Y-74080997D01*
X209119487Y-73853169D01*
X211371656Y-71601000D01*
X211598763Y-71601000D01*
X210714304Y-73122270D01*
X210599542Y-73519627D01*
X210549542Y-74919627D01*
X210616903Y-75283106D01*
X210808196Y-75561530D01*
X212075432Y-76787887D01*
X212000766Y-77945211D01*
X212057199Y-78309302D01*
X212239997Y-78593377D01*
X212304438Y-78637408D01*
X212150688Y-78862427D01*
X212122427Y-79001984D01*
X211815851Y-79206831D01*
X211256831Y-79765851D01*
X211029003Y-80106820D01*
X210949000Y-80509020D01*
X210949000Y-80682328D01*
X209925000Y-80682328D01*
X209609638Y-80741667D01*
X209319998Y-80928046D01*
X209125688Y-81212427D01*
X209057328Y-81550000D01*
X209057328Y-82000000D01*
X209076835Y-82103671D01*
X209076500Y-82105328D01*
X208967044Y-82127100D01*
X208634185Y-82349508D01*
X208634183Y-82349511D01*
X208371653Y-82612041D01*
X208009507Y-82761676D01*
X207730644Y-83040053D01*
X207449260Y-82923212D01*
X206891908Y-82922726D01*
X206843688Y-82942650D01*
X207293169Y-82493169D01*
X207520997Y-82152200D01*
X207601000Y-81750000D01*
X207601000Y-81236035D01*
X207615362Y-81233333D01*
X207905002Y-81046954D01*
X208099312Y-80762573D01*
X208167672Y-80425000D01*
X208167672Y-79175000D01*
X208108333Y-78859638D01*
X208017446Y-78718396D01*
X207998216Y-78481226D01*
X207991585Y-78423762D01*
X207951084Y-78153755D01*
X207951242Y-77972547D01*
X207908321Y-77868671D01*
X207691585Y-76423762D01*
X207642801Y-76240698D01*
X207460003Y-75956623D01*
X207181087Y-75766047D01*
X206850000Y-75699000D01*
X205450000Y-75699000D01*
X205384731Y-75701507D01*
X204984058Y-75732328D01*
X204800000Y-75732328D01*
X204484638Y-75791667D01*
X204194998Y-75978046D01*
X204000688Y-76262427D01*
X203932328Y-76600000D01*
X203932328Y-78200000D01*
X203991667Y-78515362D01*
X204178046Y-78805002D01*
X204186916Y-78811062D01*
X204607717Y-79785549D01*
X204479571Y-79732338D01*
X203922219Y-79731852D01*
X203407106Y-79944692D01*
X203310923Y-80040707D01*
X203156623Y-80139997D01*
X203038973Y-80312183D01*
X203012655Y-80338455D01*
X202999693Y-80369670D01*
X202966047Y-80418913D01*
X202953483Y-80480958D01*
X202798916Y-80853195D01*
X202798430Y-81410547D01*
X202807430Y-81432328D01*
X201575000Y-81432328D01*
X201259638Y-81491667D01*
X200969998Y-81678046D01*
X200940014Y-81721929D01*
X200762573Y-81600688D01*
X200425000Y-81532328D01*
X199175000Y-81532328D01*
X198859638Y-81591667D01*
X198569998Y-81778046D01*
X198375688Y-82062427D01*
X198307328Y-82400000D01*
X198307328Y-83900000D01*
X198366667Y-84215362D01*
X198449000Y-84343311D01*
X198449000Y-84518543D01*
X198350688Y-84662427D01*
X198332665Y-84751425D01*
X198094639Y-84512983D01*
X197579899Y-84299244D01*
X197022547Y-84298758D01*
X196507434Y-84511598D01*
X196112983Y-84905361D01*
X195983440Y-85217335D01*
X194822935Y-84056831D01*
X194481966Y-83829003D01*
X194079766Y-83749000D01*
X193921125Y-83749000D01*
X194363853Y-83566069D01*
X194758304Y-83172306D01*
X194804400Y-83061295D01*
X194913852Y-83016070D01*
X195308303Y-82622307D01*
X195354399Y-82511296D01*
X195463851Y-82466071D01*
X195858302Y-82072308D01*
X195908757Y-81950799D01*
X197105301Y-80754255D01*
X197398161Y-80315959D01*
X197501000Y-79798954D01*
X197501000Y-77949529D01*
X197505002Y-77946954D01*
X197699312Y-77662573D01*
X197767672Y-77325000D01*
X197767672Y-76075000D01*
X197708333Y-75759638D01*
X197521954Y-75469998D01*
X197270850Y-75298425D01*
X197268968Y-75288965D01*
X197213386Y-75009532D01*
X196963880Y-74636120D01*
X195893880Y-73566120D01*
X195806050Y-73507434D01*
X195520469Y-73316615D01*
X195080000Y-73229000D01*
X194579672Y-73229000D01*
X194579672Y-72773000D01*
X194521541Y-72464059D01*
X194579672Y-72177000D01*
X194579672Y-71503000D01*
X194521541Y-71194059D01*
X194579672Y-70907000D01*
X194579672Y-70233000D01*
X194521541Y-69924059D01*
X194579672Y-69637000D01*
X194579672Y-68963000D01*
X194521541Y-68654059D01*
X194579672Y-68367000D01*
X194579672Y-67693000D01*
X194521541Y-67384059D01*
X194579672Y-67097000D01*
X194579672Y-66423000D01*
X194521541Y-66114059D01*
X194579672Y-65827000D01*
X194579672Y-65153000D01*
X194521561Y-64844163D01*
X194579672Y-64557200D01*
X194579672Y-63882800D01*
X194520333Y-63567438D01*
X194333954Y-63277798D01*
X194049573Y-63083488D01*
X193712000Y-63015128D01*
X192151000Y-63015128D01*
X192151000Y-62626232D01*
X192063385Y-62185763D01*
X191813880Y-61812352D01*
X190287648Y-60286120D01*
X190234735Y-60250765D01*
X189914237Y-60036615D01*
X189473768Y-59949000D01*
X189138878Y-59949000D01*
X189071954Y-59844998D01*
X188787573Y-59650688D01*
X188450000Y-59582328D01*
X186950000Y-59582328D01*
X186634638Y-59641667D01*
X186346103Y-59827335D01*
X186087573Y-59650688D01*
X185750000Y-59582328D01*
X184250000Y-59582328D01*
X183934638Y-59641667D01*
X183644998Y-59828046D01*
X183596517Y-59899000D01*
X180829315Y-59899000D01*
X179201000Y-58270685D01*
X179201000Y-56531738D01*
X179270000Y-56428472D01*
X179289000Y-56456907D01*
X179289000Y-57151260D01*
X179288999Y-57151265D01*
X179384227Y-57630002D01*
X179655409Y-58035856D01*
X180704142Y-59084588D01*
X180704144Y-59084591D01*
X181001943Y-59283573D01*
X181109998Y-59355773D01*
X181588735Y-59451000D01*
X212164996Y-59451000D01*
X210955476Y-60660520D01*
X210695132Y-61050152D01*
X210603711Y-61509755D01*
X210603711Y-64785424D01*
X210403955Y-65266489D01*
X210403469Y-65823841D01*
X210449371Y-65934932D01*
X210403955Y-66044306D01*
X210403469Y-66601658D01*
X210616309Y-67116771D01*
X211010072Y-67511222D01*
X211524812Y-67724961D01*
X212082164Y-67725447D01*
X212597277Y-67512607D01*
X212855644Y-67254691D01*
X212879667Y-67382362D01*
X213066046Y-67672002D01*
X213350427Y-67866312D01*
X213688000Y-67934672D01*
X215412000Y-67934672D01*
X215727362Y-67875333D01*
X215858419Y-67791000D01*
X219487868Y-67791000D01*
X219870893Y-67950046D01*
X220105139Y-67950250D01*
X220147613Y-67992798D01*
X220662353Y-68206537D01*
X221219705Y-68207023D01*
X221734818Y-67994183D01*
X222129269Y-67600420D01*
X222343008Y-67085680D01*
X222343494Y-66528328D01*
X222130654Y-66013215D01*
X221736891Y-65618764D01*
X221222151Y-65405025D01*
X220987905Y-65404821D01*
X220945431Y-65362273D01*
X220430691Y-65148534D01*
X219915526Y-65148085D01*
X219799724Y-64867821D01*
X219405961Y-64473370D01*
X218891221Y-64259631D01*
X218690820Y-64259456D01*
X218327684Y-64108669D01*
X218051167Y-64108428D01*
X218051242Y-64022547D01*
X217838402Y-63507434D01*
X217444639Y-63112983D01*
X216929899Y-62899244D01*
X216419654Y-62898799D01*
X216279672Y-62840673D01*
X216279672Y-62603000D01*
X216220333Y-62287638D01*
X216033954Y-61997998D01*
X215749573Y-61803688D01*
X215412000Y-61735328D01*
X213688000Y-61735328D01*
X213372638Y-61794667D01*
X213082998Y-61981046D01*
X213005711Y-62094159D01*
X213005711Y-62007225D01*
X213679128Y-61333808D01*
X230136248Y-61333808D01*
X230595851Y-61242387D01*
X230985483Y-60982043D01*
X234416527Y-57551000D01*
X240128948Y-57551000D01*
X240228046Y-57705002D01*
X240512427Y-57899312D01*
X240850000Y-57967672D01*
X242150000Y-57967672D01*
X242465362Y-57908333D01*
X242755002Y-57721954D01*
X242864978Y-57561000D01*
X244572332Y-57561000D01*
X244586251Y-57574943D01*
X245178147Y-57820719D01*
X245819042Y-57821279D01*
X246411366Y-57576535D01*
X246864943Y-57123749D01*
X247110719Y-56531853D01*
X247111279Y-55890958D01*
X246866535Y-55298634D01*
X246508298Y-54939772D01*
X246864943Y-54583749D01*
X247110719Y-53991853D01*
X247111279Y-53350958D01*
X246866535Y-52758634D01*
X246413749Y-52305057D01*
X245821853Y-52059281D01*
X245180958Y-52058721D01*
X244588634Y-52303465D01*
X244573072Y-52319000D01*
X242787399Y-52319000D01*
X242771954Y-52294998D01*
X242487573Y-52100688D01*
X242150000Y-52032328D01*
X240850000Y-52032328D01*
X240534638Y-52091667D01*
X240244998Y-52278046D01*
X240050688Y-52562427D01*
X239982328Y-52900000D01*
X239982328Y-54400000D01*
X240041667Y-54715362D01*
X240227335Y-55003897D01*
X240128190Y-55149000D01*
X233919056Y-55149000D01*
X233459453Y-55240421D01*
X233069820Y-55500765D01*
X232527521Y-56043064D01*
X232536412Y-56029758D01*
X232663000Y-55393355D01*
X232663000Y-54206645D01*
X232536412Y-53570242D01*
X232251000Y-53143093D01*
X232251000Y-52635923D01*
X232155773Y-52157186D01*
X231884591Y-51751332D01*
X231884588Y-51751330D01*
X231059259Y-50926000D01*
X249074000Y-50926000D01*
X249074000Y-119074000D01*
X249074000Y-119074000D01*
G37*
X249074000Y-119074000D02*
X227945660Y-119074000D01*
X229309235Y-117710425D01*
X229491525Y-117437609D01*
X229569579Y-117320793D01*
X229661000Y-116861190D01*
X229661000Y-116731738D01*
X229730000Y-116628472D01*
X229824081Y-116769274D01*
X230363597Y-117129767D01*
X231000000Y-117256355D01*
X231636403Y-117129767D01*
X232175919Y-116769274D01*
X232536412Y-116229758D01*
X232663000Y-115593355D01*
X232663000Y-114406645D01*
X232536412Y-113770242D01*
X232351000Y-113492753D01*
X232351000Y-113291193D01*
X232292227Y-112995723D01*
X232398252Y-113101748D01*
X232668913Y-113283953D01*
X233000000Y-113351000D01*
X240500000Y-113351000D01*
X240809302Y-113292801D01*
X241093377Y-113110003D01*
X241283953Y-112831087D01*
X241351000Y-112500000D01*
X241351000Y-108500000D01*
X241292801Y-108190698D01*
X241110003Y-107906623D01*
X240831087Y-107716047D01*
X240500000Y-107649000D01*
X235230754Y-107649000D01*
X235308075Y-107572050D01*
X235708075Y-106972050D01*
X235788133Y-106821010D01*
X235850930Y-106489091D01*
X235800930Y-102589091D01*
X235692645Y-102184452D01*
X235472463Y-101928261D01*
X235022463Y-101578261D01*
X234824074Y-101463122D01*
X234492402Y-101399034D01*
X228892402Y-101449034D01*
X228579775Y-101511548D01*
X228298252Y-101698252D01*
X227898252Y-102098252D01*
X227716047Y-102368913D01*
X227649000Y-102700000D01*
X227649000Y-103791896D01*
X227592120Y-103860152D01*
X225029860Y-103932328D01*
X224775000Y-103932328D01*
X224730128Y-103940771D01*
X224426038Y-103949337D01*
X224151000Y-104005110D01*
X224151000Y-104000000D01*
X224146680Y-103977040D01*
X224146813Y-103824224D01*
X224093771Y-103695852D01*
X224092801Y-103690698D01*
X224089561Y-103685662D01*
X223933973Y-103309111D01*
X223540210Y-102914660D01*
X223025470Y-102700921D01*
X222468118Y-102700435D01*
X221953005Y-102913275D01*
X221558554Y-103307038D01*
X221520368Y-103399000D01*
X220800000Y-103399000D01*
X220566739Y-103442891D01*
X220350000Y-103399000D01*
X219951000Y-103399000D01*
X219951000Y-101526289D01*
X220293392Y-101549115D01*
X220659302Y-101492801D01*
X220683929Y-101476954D01*
X220885000Y-101517672D01*
X221585000Y-101517672D01*
X221900362Y-101458333D01*
X222190002Y-101271954D01*
X222384312Y-100987573D01*
X222452672Y-100650000D01*
X222452672Y-98950000D01*
X222443452Y-98901000D01*
X224021774Y-98901000D01*
X224153046Y-99105002D01*
X224437427Y-99299312D01*
X224775000Y-99367672D01*
X226025000Y-99367672D01*
X226340362Y-99308333D01*
X226630002Y-99121954D01*
X226824312Y-98837573D01*
X226892672Y-98500000D01*
X226892672Y-97000000D01*
X226833333Y-96684638D01*
X226646954Y-96394998D01*
X226362573Y-96200688D01*
X226025000Y-96132328D01*
X224775000Y-96132328D01*
X224459638Y-96191667D01*
X224225040Y-96342627D01*
X224399312Y-96087573D01*
X224467672Y-95750000D01*
X224467672Y-95527453D01*
X236848758Y-95527453D01*
X237061598Y-96042566D01*
X237455361Y-96437017D01*
X237599000Y-96496661D01*
X237599000Y-97168543D01*
X237500688Y-97312427D01*
X237432328Y-97650000D01*
X237432328Y-99150000D01*
X237491667Y-99465362D01*
X237601219Y-99635609D01*
X237309338Y-99926981D01*
X237130986Y-100356499D01*
X237069834Y-100460085D01*
X236999054Y-100790394D01*
X237062360Y-101122217D01*
X237512360Y-102222217D01*
X237689997Y-102493377D01*
X237968913Y-102683953D01*
X238300000Y-102751000D01*
X238757951Y-102751000D01*
X238893009Y-102807081D01*
X239450361Y-102807567D01*
X239724719Y-102694205D01*
X239915362Y-102658333D01*
X240205002Y-102471954D01*
X240399312Y-102187573D01*
X240431512Y-102028563D01*
X240573664Y-101686224D01*
X240574150Y-101128872D01*
X240511541Y-100977345D01*
X240467672Y-100494791D01*
X240467672Y-100350000D01*
X240408333Y-100034638D01*
X240324759Y-99904761D01*
X240324199Y-99903081D01*
X240322535Y-99901304D01*
X240222665Y-99746103D01*
X240399312Y-99487573D01*
X240467672Y-99150000D01*
X240467672Y-98101000D01*
X242802530Y-98101000D01*
X243186113Y-98484583D01*
X243000000Y-98447563D01*
X242325329Y-98581763D01*
X241753371Y-98963934D01*
X241371200Y-99535892D01*
X241237000Y-100210563D01*
X241237000Y-100789437D01*
X241371200Y-101464108D01*
X241753371Y-102036066D01*
X242325329Y-102418237D01*
X243000000Y-102552437D01*
X243674671Y-102418237D01*
X244246629Y-102036066D01*
X244628800Y-101464108D01*
X244742760Y-100891190D01*
X244863597Y-100971931D01*
X245500000Y-101098519D01*
X246136403Y-100971931D01*
X246675919Y-100611438D01*
X247036412Y-100071922D01*
X247163000Y-99435519D01*
X247163000Y-99064481D01*
X247036412Y-98428078D01*
X246675919Y-97888562D01*
X246136403Y-97528069D01*
X245500000Y-97401481D01*
X245499959Y-97401489D01*
X244149235Y-96050765D01*
X244129567Y-96037623D01*
X243759603Y-95790421D01*
X243300000Y-95699000D01*
X240442672Y-95699000D01*
X240442672Y-94500000D01*
X240383333Y-94184638D01*
X240196954Y-93894998D01*
X239912573Y-93700688D01*
X239575000Y-93632328D01*
X238325000Y-93632328D01*
X238009638Y-93691667D01*
X237719998Y-93878046D01*
X237648533Y-93982637D01*
X237457434Y-94061598D01*
X237062983Y-94455361D01*
X236849244Y-94970101D01*
X236848758Y-95527453D01*
X224467672Y-95527453D01*
X224467672Y-94450000D01*
X224408333Y-94134638D01*
X224221954Y-93844998D01*
X223937573Y-93650688D01*
X223600000Y-93582328D01*
X222100000Y-93582328D01*
X221784638Y-93641667D01*
X221617838Y-93749000D01*
X221281457Y-93749000D01*
X221137573Y-93650688D01*
X220800000Y-93582328D01*
X219300000Y-93582328D01*
X218984638Y-93641667D01*
X218715358Y-93814945D01*
X218710003Y-93806623D01*
X218431087Y-93616047D01*
X218100000Y-93549000D01*
X214851000Y-93549000D01*
X214851000Y-93210563D01*
X241237000Y-93210563D01*
X241237000Y-93789437D01*
X241371200Y-94464108D01*
X241753371Y-95036066D01*
X242325329Y-95418237D01*
X243000000Y-95552437D01*
X243674671Y-95418237D01*
X244246629Y-95036066D01*
X244628800Y-94464108D01*
X244763000Y-93789437D01*
X244763000Y-93210563D01*
X244628800Y-92535892D01*
X244246629Y-91963934D01*
X243674671Y-91581763D01*
X243000000Y-91447563D01*
X242325329Y-91581763D01*
X241753371Y-91963934D01*
X241371200Y-92535892D01*
X241237000Y-93210563D01*
X214851000Y-93210563D01*
X214851000Y-90800000D01*
X214850291Y-90796230D01*
X215950557Y-90796230D01*
X216136250Y-90982247D01*
X216650990Y-91195986D01*
X217208342Y-91196472D01*
X217319433Y-91150570D01*
X217428807Y-91195986D01*
X217986159Y-91196472D01*
X218501272Y-90983632D01*
X218895723Y-90589869D01*
X219109462Y-90075129D01*
X219109871Y-89605536D01*
X220202442Y-89605536D01*
X220388135Y-89791553D01*
X220902875Y-90005292D01*
X221460227Y-90005778D01*
X221571318Y-89959876D01*
X221680692Y-90005292D01*
X222238044Y-90005778D01*
X222753157Y-89792938D01*
X223147608Y-89399175D01*
X223361347Y-88884435D01*
X223361833Y-88327083D01*
X223148993Y-87811970D01*
X222755230Y-87417519D01*
X222706654Y-87397348D01*
X222900756Y-86929899D01*
X222901242Y-86372547D01*
X222688402Y-85857434D01*
X222601000Y-85769879D01*
X222601000Y-85150000D01*
X223149000Y-85150000D01*
X223149000Y-85900000D01*
X223207199Y-86209302D01*
X223389997Y-86493377D01*
X223668913Y-86683953D01*
X224000000Y-86751000D01*
X224041743Y-86751000D01*
X224050000Y-86752672D01*
X225025181Y-86752672D01*
X225399038Y-86907911D01*
X225956390Y-86908397D01*
X226133088Y-86835387D01*
X226170101Y-86850756D01*
X226727453Y-86851242D01*
X227242566Y-86638402D01*
X227637017Y-86244639D01*
X227850756Y-85729899D01*
X227851242Y-85172547D01*
X227681131Y-84760847D01*
X227737427Y-84799312D01*
X228075000Y-84867672D01*
X229325000Y-84867672D01*
X229640362Y-84808333D01*
X229678519Y-84783780D01*
X229853046Y-85055002D01*
X230137427Y-85249312D01*
X230475000Y-85317672D01*
X231225000Y-85317672D01*
X231540362Y-85258333D01*
X231597149Y-85221791D01*
X231637427Y-85249312D01*
X231975000Y-85317672D01*
X232725000Y-85317672D01*
X233040362Y-85258333D01*
X233330002Y-85071954D01*
X233523018Y-84789467D01*
X233537427Y-84799312D01*
X233875000Y-84867672D01*
X235125000Y-84867672D01*
X235440362Y-84808333D01*
X235730002Y-84621954D01*
X235924312Y-84337573D01*
X235956736Y-84177453D01*
X236798758Y-84177453D01*
X237011598Y-84692566D01*
X237405361Y-85087017D01*
X237629964Y-85180280D01*
X237677335Y-85253897D01*
X237500688Y-85512427D01*
X237432328Y-85850000D01*
X237432328Y-87350000D01*
X237491667Y-87665362D01*
X237555248Y-87764169D01*
X237711598Y-88142566D01*
X238105361Y-88537017D01*
X238620101Y-88750756D01*
X239177453Y-88751242D01*
X239692566Y-88538402D01*
X240087017Y-88144639D01*
X240141847Y-88012593D01*
X240205002Y-87971954D01*
X240399312Y-87687573D01*
X240467672Y-87350000D01*
X240467672Y-85850000D01*
X240408333Y-85534638D01*
X240222665Y-85246103D01*
X240399312Y-84987573D01*
X240467672Y-84650000D01*
X240467672Y-83701000D01*
X244031794Y-83701000D01*
X243963588Y-83803078D01*
X243902710Y-84109134D01*
X243674671Y-83956763D01*
X243000000Y-83822563D01*
X242325329Y-83956763D01*
X241753371Y-84338934D01*
X241371200Y-84910892D01*
X241237000Y-85585563D01*
X241237000Y-86164437D01*
X241371200Y-86839108D01*
X241753371Y-87411066D01*
X242325329Y-87793237D01*
X243000000Y-87927437D01*
X243674671Y-87793237D01*
X244246629Y-87411066D01*
X244628800Y-86839108D01*
X244742760Y-86266190D01*
X244863597Y-86346931D01*
X245500000Y-86473519D01*
X246136403Y-86346931D01*
X246675919Y-85986438D01*
X247036412Y-85446922D01*
X247163000Y-84810519D01*
X247163000Y-84439481D01*
X247036412Y-83803078D01*
X246701000Y-83301098D01*
X246701000Y-83228757D01*
X246609579Y-82769154D01*
X246349235Y-82379522D01*
X245620478Y-81650765D01*
X245563101Y-81612427D01*
X245230846Y-81390421D01*
X244771243Y-81299000D01*
X240442672Y-81299000D01*
X240442672Y-80000000D01*
X240383333Y-79684638D01*
X240196954Y-79394998D01*
X239912573Y-79200688D01*
X239575000Y-79132328D01*
X238325000Y-79132328D01*
X238009638Y-79191667D01*
X237719998Y-79378046D01*
X237525688Y-79662427D01*
X237457328Y-80000000D01*
X237457328Y-81500000D01*
X237516667Y-81815362D01*
X237599000Y-81943311D01*
X237599000Y-82632445D01*
X237407434Y-82711598D01*
X237012983Y-83105361D01*
X236799244Y-83620101D01*
X236798758Y-84177453D01*
X235956736Y-84177453D01*
X235992672Y-84000000D01*
X235992672Y-82500000D01*
X235933333Y-82184638D01*
X235746954Y-81894998D01*
X235462573Y-81700688D01*
X235125000Y-81632328D01*
X233875000Y-81632328D01*
X233559638Y-81691667D01*
X233545746Y-81700606D01*
X233533333Y-81634638D01*
X233501000Y-81584391D01*
X233501000Y-81141916D01*
X233413385Y-80701447D01*
X233163880Y-80328036D01*
X232487863Y-79652019D01*
X232331888Y-79547800D01*
X232114452Y-79402514D01*
X231673983Y-79314899D01*
X228569413Y-79314899D01*
X228128944Y-79402514D01*
X227911508Y-79547800D01*
X227755533Y-79652019D01*
X225630224Y-81777328D01*
X224050000Y-81777328D01*
X223734638Y-81836667D01*
X223444998Y-82023046D01*
X223250688Y-82307427D01*
X223182328Y-82645000D01*
X223182328Y-83345000D01*
X223237923Y-83640463D01*
X223182328Y-83915000D01*
X223182328Y-84615000D01*
X223219693Y-84813577D01*
X223216047Y-84818913D01*
X223149000Y-85150000D01*
X222601000Y-85150000D01*
X222601000Y-84915005D01*
X222601001Y-84915000D01*
X222517191Y-84493666D01*
X222453136Y-84397800D01*
X222278525Y-84136475D01*
X222278522Y-84136473D01*
X221657760Y-83515710D01*
X221899235Y-83274235D01*
X222005173Y-83115688D01*
X222159579Y-82884603D01*
X222246198Y-82449142D01*
X222405002Y-82346954D01*
X222599312Y-82062573D01*
X222667672Y-81725000D01*
X222667672Y-80475000D01*
X222608333Y-80159638D01*
X222421954Y-79869998D01*
X222401000Y-79855681D01*
X222401000Y-78150000D01*
X222308107Y-77682995D01*
X222298161Y-77632994D01*
X222286412Y-77615410D01*
X223884626Y-79036045D01*
X224180074Y-79207057D01*
X224515331Y-79248489D01*
X224840293Y-79156222D01*
X225103756Y-78944797D01*
X225200070Y-78829221D01*
X225210555Y-78826282D01*
X225479910Y-78611627D01*
X225501780Y-78585563D01*
X241237000Y-78585563D01*
X241237000Y-79164437D01*
X241371200Y-79839108D01*
X241753371Y-80411066D01*
X242325329Y-80793237D01*
X243000000Y-80927437D01*
X243674671Y-80793237D01*
X244246629Y-80411066D01*
X244628800Y-79839108D01*
X244763000Y-79164437D01*
X244763000Y-78585563D01*
X244628800Y-77910892D01*
X244246629Y-77338934D01*
X243674671Y-76956763D01*
X243000000Y-76822563D01*
X242325329Y-76956763D01*
X241753371Y-77338934D01*
X241371200Y-77910892D01*
X241237000Y-78585563D01*
X225501780Y-78585563D01*
X226283395Y-77654072D01*
X226440649Y-77374348D01*
X226445718Y-77334442D01*
X226603756Y-77144797D01*
X226751396Y-76886296D01*
X226799642Y-76551951D01*
X226714009Y-76225178D01*
X226507989Y-75957467D01*
X225210257Y-74830489D01*
X226477250Y-73165299D01*
X226617653Y-72885890D01*
X226645008Y-72549193D01*
X226567686Y-72314718D01*
X226755869Y-72236962D01*
X227210009Y-71783613D01*
X227456091Y-71190982D01*
X227456651Y-70549291D01*
X227211604Y-69956231D01*
X226758255Y-69502091D01*
X226165624Y-69256009D01*
X225523933Y-69255449D01*
X225150575Y-69409717D01*
X225359546Y-69200746D01*
X229340144Y-69200746D01*
X233194699Y-73055301D01*
X233632995Y-73348161D01*
X234150000Y-73451000D01*
X236441184Y-73451000D01*
X238166335Y-73690604D01*
X238300000Y-73717672D01*
X239600000Y-73717672D01*
X239915362Y-73658333D01*
X240205002Y-73471954D01*
X240399312Y-73187573D01*
X240467672Y-72850000D01*
X240467672Y-71350000D01*
X240408333Y-71034638D01*
X240222665Y-70746103D01*
X240399312Y-70487573D01*
X240467672Y-70150000D01*
X240467672Y-68951000D01*
X244115317Y-68951000D01*
X243963588Y-69178078D01*
X243902710Y-69484134D01*
X243674671Y-69331763D01*
X243000000Y-69197563D01*
X242325329Y-69331763D01*
X241753371Y-69713934D01*
X241371200Y-70285892D01*
X241237000Y-70960563D01*
X241237000Y-71539437D01*
X241371200Y-72214108D01*
X241753371Y-72786066D01*
X242325329Y-73168237D01*
X243000000Y-73302437D01*
X243674671Y-73168237D01*
X244246629Y-72786066D01*
X244628800Y-72214108D01*
X244742760Y-71641190D01*
X244863597Y-71721931D01*
X245500000Y-71848519D01*
X246136403Y-71721931D01*
X246675919Y-71361438D01*
X247036412Y-70821922D01*
X247163000Y-70185519D01*
X247163000Y-69814481D01*
X247036412Y-69178078D01*
X246701000Y-68676098D01*
X246701000Y-68338000D01*
X246680833Y-68236615D01*
X246609580Y-67878398D01*
X246349236Y-67488765D01*
X245761235Y-66900765D01*
X245683447Y-66848789D01*
X245371603Y-66640421D01*
X244912000Y-66549000D01*
X240442672Y-66549000D01*
X240442672Y-65250000D01*
X240383333Y-64934638D01*
X240196954Y-64644998D01*
X239912573Y-64450688D01*
X239575000Y-64382328D01*
X238325000Y-64382328D01*
X238009638Y-64441667D01*
X237719998Y-64628046D01*
X237525688Y-64912427D01*
X237457328Y-65250000D01*
X237457328Y-66750000D01*
X237516667Y-67065362D01*
X237599000Y-67193311D01*
X237599000Y-68153104D01*
X237457434Y-68211598D01*
X237062983Y-68605361D01*
X236849244Y-69120101D01*
X236848758Y-69677453D01*
X237061598Y-70192566D01*
X237455361Y-70587017D01*
X237493484Y-70602847D01*
X236441184Y-70749000D01*
X234709602Y-70749000D01*
X230855047Y-66894445D01*
X230733332Y-66813118D01*
X230919438Y-66813280D01*
X231512498Y-66568233D01*
X231966638Y-66114884D01*
X232212720Y-65522253D01*
X232213280Y-64880562D01*
X231968233Y-64287502D01*
X231641864Y-63960563D01*
X241237000Y-63960563D01*
X241237000Y-64539437D01*
X241371200Y-65214108D01*
X241753371Y-65786066D01*
X242325329Y-66168237D01*
X243000000Y-66302437D01*
X243674671Y-66168237D01*
X244246629Y-65786066D01*
X244628800Y-65214108D01*
X244763000Y-64539437D01*
X244763000Y-63960563D01*
X244628800Y-63285892D01*
X244246629Y-62713934D01*
X243674671Y-62331763D01*
X243000000Y-62197563D01*
X242325329Y-62331763D01*
X241753371Y-62713934D01*
X241371200Y-63285892D01*
X241237000Y-63960563D01*
X231641864Y-63960563D01*
X231514884Y-63833362D01*
X230922253Y-63587280D01*
X230280562Y-63586720D01*
X229687502Y-63831767D01*
X229233362Y-64285116D01*
X228987280Y-64877747D01*
X228986720Y-65519438D01*
X229231767Y-66112498D01*
X229617342Y-66498746D01*
X224799944Y-66498746D01*
X224282939Y-66601585D01*
X223844643Y-66894445D01*
X220650263Y-70088825D01*
X220645787Y-70077993D01*
X220691203Y-69968619D01*
X220691689Y-69411267D01*
X220478849Y-68896154D01*
X220085086Y-68501703D01*
X219570346Y-68287964D01*
X219176431Y-68287621D01*
X218881727Y-68229000D01*
X215859795Y-68229000D01*
X215749573Y-68153688D01*
X215412000Y-68085328D01*
X213688000Y-68085328D01*
X213372638Y-68144667D01*
X213082998Y-68331046D01*
X212888688Y-68615427D01*
X212820328Y-68953000D01*
X212820328Y-69499000D01*
X210936318Y-69499000D01*
X210534118Y-69579003D01*
X210193149Y-69806831D01*
X209179672Y-70820308D01*
X209179672Y-70223000D01*
X209120333Y-69907638D01*
X209119160Y-69905816D01*
X209179672Y-69607000D01*
X209179672Y-68953000D01*
X209120333Y-68637638D01*
X209119160Y-68635816D01*
X209179672Y-68337000D01*
X209179672Y-67683000D01*
X209120333Y-67367638D01*
X209119160Y-67365816D01*
X209179672Y-67067000D01*
X209179672Y-66413000D01*
X209120333Y-66097638D01*
X209119160Y-66095816D01*
X209179672Y-65797000D01*
X209179672Y-65143000D01*
X209120333Y-64827638D01*
X209119160Y-64825816D01*
X209179672Y-64527000D01*
X209179672Y-63873000D01*
X209120333Y-63557638D01*
X208933954Y-63267998D01*
X208649573Y-63073688D01*
X208312000Y-63005328D01*
X206588000Y-63005328D01*
X206272638Y-63064667D01*
X206188202Y-63119000D01*
X203501254Y-63119000D01*
X203449573Y-63083688D01*
X203112000Y-63015328D01*
X200888000Y-63015328D01*
X200572638Y-63074667D01*
X200282998Y-63261046D01*
X200088688Y-63545427D01*
X200020328Y-63883000D01*
X200020328Y-64557000D01*
X200078459Y-64865941D01*
X200020328Y-65153000D01*
X200020328Y-65827000D01*
X200078459Y-66135941D01*
X200020328Y-66423000D01*
X200020328Y-67097000D01*
X200078459Y-67405941D01*
X200020328Y-67693000D01*
X200020328Y-68367000D01*
X200078459Y-68675941D01*
X200020328Y-68963000D01*
X200020328Y-69637000D01*
X200078459Y-69945941D01*
X200020328Y-70233000D01*
X200020328Y-70907000D01*
X200078459Y-71215941D01*
X200020328Y-71503000D01*
X200020328Y-72177000D01*
X200078459Y-72485941D01*
X200020328Y-72773000D01*
X200020328Y-73447000D01*
X200079667Y-73762362D01*
X200266046Y-74052002D01*
X200550427Y-74246312D01*
X200888000Y-74314672D01*
X203112000Y-74314672D01*
X203427362Y-74255333D01*
X203573959Y-74161000D01*
X208376318Y-74161000D01*
X208778518Y-74080997D01*
X209119487Y-73853169D01*
X211371656Y-71601000D01*
X211598763Y-71601000D01*
X210714304Y-73122270D01*
X210599542Y-73519627D01*
X210549542Y-74919627D01*
X210616903Y-75283106D01*
X210808196Y-75561530D01*
X212075432Y-76787887D01*
X212000766Y-77945211D01*
X212057199Y-78309302D01*
X212239997Y-78593377D01*
X212304438Y-78637408D01*
X212150688Y-78862427D01*
X212122427Y-79001984D01*
X211815851Y-79206831D01*
X211256831Y-79765851D01*
X211029003Y-80106820D01*
X210949000Y-80509020D01*
X210949000Y-80682328D01*
X209925000Y-80682328D01*
X209609638Y-80741667D01*
X209319998Y-80928046D01*
X209125688Y-81212427D01*
X209057328Y-81550000D01*
X209057328Y-82000000D01*
X209076835Y-82103671D01*
X209076500Y-82105328D01*
X208967044Y-82127100D01*
X208634185Y-82349508D01*
X208634183Y-82349511D01*
X208371653Y-82612041D01*
X208009507Y-82761676D01*
X207730644Y-83040053D01*
X207449260Y-82923212D01*
X206891908Y-82922726D01*
X206843688Y-82942650D01*
X207293169Y-82493169D01*
X207520997Y-82152200D01*
X207601000Y-81750000D01*
X207601000Y-81236035D01*
X207615362Y-81233333D01*
X207905002Y-81046954D01*
X208099312Y-80762573D01*
X208167672Y-80425000D01*
X208167672Y-79175000D01*
X208108333Y-78859638D01*
X208017446Y-78718396D01*
X207998216Y-78481226D01*
X207991585Y-78423762D01*
X207951084Y-78153755D01*
X207951242Y-77972547D01*
X207908321Y-77868671D01*
X207691585Y-76423762D01*
X207642801Y-76240698D01*
X207460003Y-75956623D01*
X207181087Y-75766047D01*
X206850000Y-75699000D01*
X205450000Y-75699000D01*
X205384731Y-75701507D01*
X204984058Y-75732328D01*
X204800000Y-75732328D01*
X204484638Y-75791667D01*
X204194998Y-75978046D01*
X204000688Y-76262427D01*
X203932328Y-76600000D01*
X203932328Y-78200000D01*
X203991667Y-78515362D01*
X204178046Y-78805002D01*
X204186916Y-78811062D01*
X204607717Y-79785549D01*
X204479571Y-79732338D01*
X203922219Y-79731852D01*
X203407106Y-79944692D01*
X203310923Y-80040707D01*
X203156623Y-80139997D01*
X203038973Y-80312183D01*
X203012655Y-80338455D01*
X202999693Y-80369670D01*
X202966047Y-80418913D01*
X202953483Y-80480958D01*
X202798916Y-80853195D01*
X202798430Y-81410547D01*
X202807430Y-81432328D01*
X201575000Y-81432328D01*
X201259638Y-81491667D01*
X200969998Y-81678046D01*
X200940014Y-81721929D01*
X200762573Y-81600688D01*
X200425000Y-81532328D01*
X199175000Y-81532328D01*
X198859638Y-81591667D01*
X198569998Y-81778046D01*
X198375688Y-82062427D01*
X198307328Y-82400000D01*
X198307328Y-83900000D01*
X198366667Y-84215362D01*
X198449000Y-84343311D01*
X198449000Y-84518543D01*
X198350688Y-84662427D01*
X198332665Y-84751425D01*
X198094639Y-84512983D01*
X197579899Y-84299244D01*
X197022547Y-84298758D01*
X196507434Y-84511598D01*
X196112983Y-84905361D01*
X195983440Y-85217335D01*
X194822935Y-84056831D01*
X194481966Y-83829003D01*
X194079766Y-83749000D01*
X193921125Y-83749000D01*
X194363853Y-83566069D01*
X194758304Y-83172306D01*
X194804400Y-83061295D01*
X194913852Y-83016070D01*
X195308303Y-82622307D01*
X195354399Y-82511296D01*
X195463851Y-82466071D01*
X195858302Y-82072308D01*
X195908757Y-81950799D01*
X197105301Y-80754255D01*
X197398161Y-80315959D01*
X197501000Y-79798954D01*
X197501000Y-77949529D01*
X197505002Y-77946954D01*
X197699312Y-77662573D01*
X197767672Y-77325000D01*
X197767672Y-76075000D01*
X197708333Y-75759638D01*
X197521954Y-75469998D01*
X197270850Y-75298425D01*
X197268968Y-75288965D01*
X197213386Y-75009532D01*
X196963880Y-74636120D01*
X195893880Y-73566120D01*
X195806050Y-73507434D01*
X195520469Y-73316615D01*
X195080000Y-73229000D01*
X194579672Y-73229000D01*
X194579672Y-72773000D01*
X194521541Y-72464059D01*
X194579672Y-72177000D01*
X194579672Y-71503000D01*
X194521541Y-71194059D01*
X194579672Y-70907000D01*
X194579672Y-70233000D01*
X194521541Y-69924059D01*
X194579672Y-69637000D01*
X194579672Y-68963000D01*
X194521541Y-68654059D01*
X194579672Y-68367000D01*
X194579672Y-67693000D01*
X194521541Y-67384059D01*
X194579672Y-67097000D01*
X194579672Y-66423000D01*
X194521541Y-66114059D01*
X194579672Y-65827000D01*
X194579672Y-65153000D01*
X194521561Y-64844163D01*
X194579672Y-64557200D01*
X194579672Y-63882800D01*
X194520333Y-63567438D01*
X194333954Y-63277798D01*
X194049573Y-63083488D01*
X193712000Y-63015128D01*
X192151000Y-63015128D01*
X192151000Y-62626232D01*
X192063385Y-62185763D01*
X191813880Y-61812352D01*
X190287648Y-60286120D01*
X190234735Y-60250765D01*
X189914237Y-60036615D01*
X189473768Y-59949000D01*
X189138878Y-59949000D01*
X189071954Y-59844998D01*
X188787573Y-59650688D01*
X188450000Y-59582328D01*
X186950000Y-59582328D01*
X186634638Y-59641667D01*
X186346103Y-59827335D01*
X186087573Y-59650688D01*
X185750000Y-59582328D01*
X184250000Y-59582328D01*
X183934638Y-59641667D01*
X183644998Y-59828046D01*
X183596517Y-59899000D01*
X180829315Y-59899000D01*
X179201000Y-58270685D01*
X179201000Y-56531738D01*
X179270000Y-56428472D01*
X179289000Y-56456907D01*
X179289000Y-57151260D01*
X179288999Y-57151265D01*
X179384227Y-57630002D01*
X179655409Y-58035856D01*
X180704142Y-59084588D01*
X180704144Y-59084591D01*
X181001943Y-59283573D01*
X181109998Y-59355773D01*
X181588735Y-59451000D01*
X212164996Y-59451000D01*
X210955476Y-60660520D01*
X210695132Y-61050152D01*
X210603711Y-61509755D01*
X210603711Y-64785424D01*
X210403955Y-65266489D01*
X210403469Y-65823841D01*
X210449371Y-65934932D01*
X210403955Y-66044306D01*
X210403469Y-66601658D01*
X210616309Y-67116771D01*
X211010072Y-67511222D01*
X211524812Y-67724961D01*
X212082164Y-67725447D01*
X212597277Y-67512607D01*
X212855644Y-67254691D01*
X212879667Y-67382362D01*
X213066046Y-67672002D01*
X213350427Y-67866312D01*
X213688000Y-67934672D01*
X215412000Y-67934672D01*
X215727362Y-67875333D01*
X215858419Y-67791000D01*
X219487868Y-67791000D01*
X219870893Y-67950046D01*
X220105139Y-67950250D01*
X220147613Y-67992798D01*
X220662353Y-68206537D01*
X221219705Y-68207023D01*
X221734818Y-67994183D01*
X222129269Y-67600420D01*
X222343008Y-67085680D01*
X222343494Y-66528328D01*
X222130654Y-66013215D01*
X221736891Y-65618764D01*
X221222151Y-65405025D01*
X220987905Y-65404821D01*
X220945431Y-65362273D01*
X220430691Y-65148534D01*
X219915526Y-65148085D01*
X219799724Y-64867821D01*
X219405961Y-64473370D01*
X218891221Y-64259631D01*
X218690820Y-64259456D01*
X218327684Y-64108669D01*
X218051167Y-64108428D01*
X218051242Y-64022547D01*
X217838402Y-63507434D01*
X217444639Y-63112983D01*
X216929899Y-62899244D01*
X216419654Y-62898799D01*
X216279672Y-62840673D01*
X216279672Y-62603000D01*
X216220333Y-62287638D01*
X216033954Y-61997998D01*
X215749573Y-61803688D01*
X215412000Y-61735328D01*
X213688000Y-61735328D01*
X213372638Y-61794667D01*
X213082998Y-61981046D01*
X213005711Y-62094159D01*
X213005711Y-62007225D01*
X213679128Y-61333808D01*
X230136248Y-61333808D01*
X230595851Y-61242387D01*
X230985483Y-60982043D01*
X234416527Y-57551000D01*
X240128948Y-57551000D01*
X240228046Y-57705002D01*
X240512427Y-57899312D01*
X240850000Y-57967672D01*
X242150000Y-57967672D01*
X242465362Y-57908333D01*
X242755002Y-57721954D01*
X242864978Y-57561000D01*
X244572332Y-57561000D01*
X244586251Y-57574943D01*
X245178147Y-57820719D01*
X245819042Y-57821279D01*
X246411366Y-57576535D01*
X246864943Y-57123749D01*
X247110719Y-56531853D01*
X247111279Y-55890958D01*
X246866535Y-55298634D01*
X246508298Y-54939772D01*
X246864943Y-54583749D01*
X247110719Y-53991853D01*
X247111279Y-53350958D01*
X246866535Y-52758634D01*
X246413749Y-52305057D01*
X245821853Y-52059281D01*
X245180958Y-52058721D01*
X244588634Y-52303465D01*
X244573072Y-52319000D01*
X242787399Y-52319000D01*
X242771954Y-52294998D01*
X242487573Y-52100688D01*
X242150000Y-52032328D01*
X240850000Y-52032328D01*
X240534638Y-52091667D01*
X240244998Y-52278046D01*
X240050688Y-52562427D01*
X239982328Y-52900000D01*
X239982328Y-54400000D01*
X240041667Y-54715362D01*
X240227335Y-55003897D01*
X240128190Y-55149000D01*
X233919056Y-55149000D01*
X233459453Y-55240421D01*
X233069820Y-55500765D01*
X232527521Y-56043064D01*
X232536412Y-56029758D01*
X232663000Y-55393355D01*
X232663000Y-54206645D01*
X232536412Y-53570242D01*
X232251000Y-53143093D01*
X232251000Y-52635923D01*
X232155773Y-52157186D01*
X231884591Y-51751332D01*
X231884588Y-51751330D01*
X231059259Y-50926000D01*
X249074000Y-50926000D01*
X249074000Y-119074000D01*
G36*
X179099000Y-98100000D02*
X179141993Y-98367069D01*
X179309557Y-98660387D01*
X179659557Y-99060387D01*
X179834762Y-99187004D01*
X179658398Y-99220189D01*
X179368758Y-99406568D01*
X179174448Y-99690949D01*
X179135343Y-99884058D01*
X178600000Y-99777572D01*
X175521428Y-99777572D01*
X174908752Y-99899441D01*
X174389350Y-100246494D01*
X171787922Y-102847922D01*
X171440869Y-103367324D01*
X171319000Y-103980000D01*
X171319000Y-113285335D01*
X171308688Y-113300427D01*
X171240328Y-113638000D01*
X171240328Y-116362000D01*
X171299667Y-116677362D01*
X171486046Y-116967002D01*
X171770427Y-117161312D01*
X172108000Y-117229672D01*
X173732000Y-117229672D01*
X174047362Y-117170333D01*
X174268900Y-117027777D01*
X174350421Y-117437609D01*
X174480974Y-117632995D01*
X174610765Y-117827241D01*
X175176250Y-118392727D01*
X175565883Y-118653071D01*
X176025485Y-118744491D01*
X202556911Y-118744491D01*
X203037976Y-118944247D01*
X203595328Y-118944733D01*
X203706419Y-118898831D01*
X203815793Y-118944247D01*
X204373145Y-118944733D01*
X204888258Y-118731893D01*
X205282709Y-118338130D01*
X205496448Y-117823390D01*
X205496934Y-117266038D01*
X205284094Y-116750925D01*
X204890331Y-116356474D01*
X204375591Y-116142735D01*
X203818239Y-116142249D01*
X203707148Y-116188151D01*
X203597774Y-116142735D01*
X203040422Y-116142249D01*
X202555799Y-116342491D01*
X200921686Y-116342491D01*
X201212279Y-116148323D01*
X203809602Y-113551000D01*
X210825102Y-113551000D01*
X210557434Y-113661598D01*
X210162983Y-114055361D01*
X209949244Y-114570101D01*
X209948758Y-115127453D01*
X210161598Y-115642566D01*
X210555361Y-116037017D01*
X211070101Y-116250756D01*
X211627453Y-116251242D01*
X211699540Y-116221456D01*
X211770101Y-116250756D01*
X212327453Y-116251242D01*
X212812076Y-116051000D01*
X213575316Y-116051000D01*
X216598316Y-119074000D01*
X117234486Y-119074000D01*
X117337301Y-119005301D01*
X118025301Y-118317301D01*
X118318161Y-117879005D01*
X118421000Y-117362000D01*
X118421000Y-116601000D01*
X129039950Y-116601000D01*
X129652626Y-116479131D01*
X130172028Y-116132078D01*
X130739495Y-115564611D01*
X142148507Y-115564611D01*
X142581631Y-116612852D01*
X143382930Y-117415551D01*
X144430413Y-117850504D01*
X145564611Y-117851493D01*
X146612852Y-117418369D01*
X147415551Y-116617070D01*
X147850504Y-115569587D01*
X147851493Y-114435389D01*
X147418369Y-113387148D01*
X146617070Y-112584449D01*
X145569587Y-112149496D01*
X144435389Y-112148507D01*
X143387148Y-112581631D01*
X142584449Y-113382930D01*
X142149496Y-114430413D01*
X142148507Y-115564611D01*
X130739495Y-115564611D01*
X138976784Y-107327322D01*
X153773678Y-107327322D01*
X154386354Y-107205453D01*
X154905756Y-106858400D01*
X163984584Y-97779572D01*
X178600000Y-97779572D01*
X179099000Y-97680315D01*
X179099000Y-98100000D01*
X179099000Y-98100000D01*
G37*
X179099000Y-98100000D02*
X179141993Y-98367069D01*
X179309557Y-98660387D01*
X179659557Y-99060387D01*
X179834762Y-99187004D01*
X179658398Y-99220189D01*
X179368758Y-99406568D01*
X179174448Y-99690949D01*
X179135343Y-99884058D01*
X178600000Y-99777572D01*
X175521428Y-99777572D01*
X174908752Y-99899441D01*
X174389350Y-100246494D01*
X171787922Y-102847922D01*
X171440869Y-103367324D01*
X171319000Y-103980000D01*
X171319000Y-113285335D01*
X171308688Y-113300427D01*
X171240328Y-113638000D01*
X171240328Y-116362000D01*
X171299667Y-116677362D01*
X171486046Y-116967002D01*
X171770427Y-117161312D01*
X172108000Y-117229672D01*
X173732000Y-117229672D01*
X174047362Y-117170333D01*
X174268900Y-117027777D01*
X174350421Y-117437609D01*
X174480974Y-117632995D01*
X174610765Y-117827241D01*
X175176250Y-118392727D01*
X175565883Y-118653071D01*
X176025485Y-118744491D01*
X202556911Y-118744491D01*
X203037976Y-118944247D01*
X203595328Y-118944733D01*
X203706419Y-118898831D01*
X203815793Y-118944247D01*
X204373145Y-118944733D01*
X204888258Y-118731893D01*
X205282709Y-118338130D01*
X205496448Y-117823390D01*
X205496934Y-117266038D01*
X205284094Y-116750925D01*
X204890331Y-116356474D01*
X204375591Y-116142735D01*
X203818239Y-116142249D01*
X203707148Y-116188151D01*
X203597774Y-116142735D01*
X203040422Y-116142249D01*
X202555799Y-116342491D01*
X200921686Y-116342491D01*
X201212279Y-116148323D01*
X203809602Y-113551000D01*
X210825102Y-113551000D01*
X210557434Y-113661598D01*
X210162983Y-114055361D01*
X209949244Y-114570101D01*
X209948758Y-115127453D01*
X210161598Y-115642566D01*
X210555361Y-116037017D01*
X211070101Y-116250756D01*
X211627453Y-116251242D01*
X211699540Y-116221456D01*
X211770101Y-116250756D01*
X212327453Y-116251242D01*
X212812076Y-116051000D01*
X213575316Y-116051000D01*
X216598316Y-119074000D01*
X117234486Y-119074000D01*
X117337301Y-119005301D01*
X118025301Y-118317301D01*
X118318161Y-117879005D01*
X118421000Y-117362000D01*
X118421000Y-116601000D01*
X129039950Y-116601000D01*
X129652626Y-116479131D01*
X130172028Y-116132078D01*
X130739495Y-115564611D01*
X142148507Y-115564611D01*
X142581631Y-116612852D01*
X143382930Y-117415551D01*
X144430413Y-117850504D01*
X145564611Y-117851493D01*
X146612852Y-117418369D01*
X147415551Y-116617070D01*
X147850504Y-115569587D01*
X147851493Y-114435389D01*
X147418369Y-113387148D01*
X146617070Y-112584449D01*
X145569587Y-112149496D01*
X144435389Y-112148507D01*
X143387148Y-112581631D01*
X142584449Y-113382930D01*
X142149496Y-114430413D01*
X142148507Y-115564611D01*
X130739495Y-115564611D01*
X138976784Y-107327322D01*
X153773678Y-107327322D01*
X154386354Y-107205453D01*
X154905756Y-106858400D01*
X163984584Y-97779572D01*
X178600000Y-97779572D01*
X179099000Y-97680315D01*
X179099000Y-98100000D01*
G36*
X193660499Y-101467630D02*
X193846276Y-101749765D01*
X194127183Y-101937395D01*
X194458957Y-102000953D01*
X198649000Y-101956847D01*
X198649000Y-102500000D01*
X198709429Y-102814957D01*
X198894250Y-103097719D01*
X199174521Y-103286298D01*
X199506078Y-103350978D01*
X205619950Y-103307307D01*
X205599472Y-103921649D01*
X205657199Y-104259302D01*
X205839997Y-104543377D01*
X206118913Y-104733953D01*
X206450000Y-104801000D01*
X210450000Y-104801000D01*
X210753975Y-104744859D01*
X211039270Y-104563972D01*
X211099000Y-104477802D01*
X211099000Y-109050000D01*
X211157199Y-109359302D01*
X211339997Y-109643377D01*
X211618913Y-109833953D01*
X211950000Y-109901000D01*
X212467671Y-109901000D01*
X212550000Y-109917672D01*
X216050000Y-109917672D01*
X216138605Y-109901000D01*
X216200000Y-109901000D01*
X216509302Y-109842801D01*
X216735802Y-109697051D01*
X216757199Y-109809302D01*
X216939997Y-110093377D01*
X217218913Y-110283953D01*
X217550000Y-110351000D01*
X220350000Y-110351000D01*
X220659302Y-110292801D01*
X220703374Y-110264441D01*
X220813749Y-110503250D01*
X221067299Y-110849000D01*
X203250000Y-110849000D01*
X202818771Y-110934777D01*
X202732994Y-110951839D01*
X202294699Y-111244699D01*
X199697376Y-113842022D01*
X191658392Y-113842022D01*
X187771793Y-109955423D01*
X187333497Y-109662563D01*
X186816492Y-109559724D01*
X186318604Y-109559724D01*
X186455002Y-109471954D01*
X186649312Y-109187573D01*
X186717672Y-108850000D01*
X186717672Y-107886421D01*
X186872240Y-107917722D01*
X187080574Y-107917722D01*
X187499240Y-108001000D01*
X187917906Y-107917722D01*
X188126240Y-107917722D01*
X188441602Y-107858383D01*
X188731242Y-107672004D01*
X188925552Y-107387623D01*
X188993912Y-107050050D01*
X188993912Y-106967722D01*
X189481384Y-106967722D01*
X190582328Y-108068667D01*
X190582328Y-108850000D01*
X190641667Y-109165362D01*
X190828046Y-109455002D01*
X191112427Y-109649312D01*
X191450000Y-109717672D01*
X192750000Y-109717672D01*
X193065362Y-109658333D01*
X193355002Y-109471954D01*
X193549312Y-109187573D01*
X193599351Y-108940471D01*
X193641667Y-109165362D01*
X193749000Y-109332162D01*
X193749000Y-109491720D01*
X193700688Y-109562427D01*
X193632328Y-109900000D01*
X193632328Y-111100000D01*
X193691667Y-111415362D01*
X193878046Y-111705002D01*
X194162427Y-111899312D01*
X194500000Y-111967672D01*
X195700000Y-111967672D01*
X196015362Y-111908333D01*
X196305002Y-111721954D01*
X196499312Y-111437573D01*
X196567672Y-111100000D01*
X196567672Y-109900000D01*
X196508333Y-109584638D01*
X196451000Y-109495540D01*
X196451000Y-109331457D01*
X196549312Y-109187573D01*
X196617672Y-108850000D01*
X196617672Y-107350000D01*
X196558333Y-107034638D01*
X196372665Y-106746103D01*
X196549312Y-106487573D01*
X196617672Y-106150000D01*
X196617672Y-104650000D01*
X196558333Y-104334638D01*
X196371954Y-104044998D01*
X196087573Y-103850688D01*
X195750000Y-103782328D01*
X194450000Y-103782328D01*
X194134638Y-103841667D01*
X193844998Y-104028046D01*
X193679665Y-104270018D01*
X193437746Y-104027677D01*
X193499312Y-103937573D01*
X193567672Y-103600000D01*
X193567672Y-102100000D01*
X193508333Y-101784638D01*
X193363821Y-101560061D01*
X193451748Y-101501748D01*
X193632172Y-101321324D01*
X193660499Y-101467630D01*
X193660499Y-101467630D01*
G37*
X193660499Y-101467630D02*
X193846276Y-101749765D01*
X194127183Y-101937395D01*
X194458957Y-102000953D01*
X198649000Y-101956847D01*
X198649000Y-102500000D01*
X198709429Y-102814957D01*
X198894250Y-103097719D01*
X199174521Y-103286298D01*
X199506078Y-103350978D01*
X205619950Y-103307307D01*
X205599472Y-103921649D01*
X205657199Y-104259302D01*
X205839997Y-104543377D01*
X206118913Y-104733953D01*
X206450000Y-104801000D01*
X210450000Y-104801000D01*
X210753975Y-104744859D01*
X211039270Y-104563972D01*
X211099000Y-104477802D01*
X211099000Y-109050000D01*
X211157199Y-109359302D01*
X211339997Y-109643377D01*
X211618913Y-109833953D01*
X211950000Y-109901000D01*
X212467671Y-109901000D01*
X212550000Y-109917672D01*
X216050000Y-109917672D01*
X216138605Y-109901000D01*
X216200000Y-109901000D01*
X216509302Y-109842801D01*
X216735802Y-109697051D01*
X216757199Y-109809302D01*
X216939997Y-110093377D01*
X217218913Y-110283953D01*
X217550000Y-110351000D01*
X220350000Y-110351000D01*
X220659302Y-110292801D01*
X220703374Y-110264441D01*
X220813749Y-110503250D01*
X221067299Y-110849000D01*
X203250000Y-110849000D01*
X202818771Y-110934777D01*
X202732994Y-110951839D01*
X202294699Y-111244699D01*
X199697376Y-113842022D01*
X191658392Y-113842022D01*
X187771793Y-109955423D01*
X187333497Y-109662563D01*
X186816492Y-109559724D01*
X186318604Y-109559724D01*
X186455002Y-109471954D01*
X186649312Y-109187573D01*
X186717672Y-108850000D01*
X186717672Y-107886421D01*
X186872240Y-107917722D01*
X187080574Y-107917722D01*
X187499240Y-108001000D01*
X187917906Y-107917722D01*
X188126240Y-107917722D01*
X188441602Y-107858383D01*
X188731242Y-107672004D01*
X188925552Y-107387623D01*
X188993912Y-107050050D01*
X188993912Y-106967722D01*
X189481384Y-106967722D01*
X190582328Y-108068667D01*
X190582328Y-108850000D01*
X190641667Y-109165362D01*
X190828046Y-109455002D01*
X191112427Y-109649312D01*
X191450000Y-109717672D01*
X192750000Y-109717672D01*
X193065362Y-109658333D01*
X193355002Y-109471954D01*
X193549312Y-109187573D01*
X193599351Y-108940471D01*
X193641667Y-109165362D01*
X193749000Y-109332162D01*
X193749000Y-109491720D01*
X193700688Y-109562427D01*
X193632328Y-109900000D01*
X193632328Y-111100000D01*
X193691667Y-111415362D01*
X193878046Y-111705002D01*
X194162427Y-111899312D01*
X194500000Y-111967672D01*
X195700000Y-111967672D01*
X196015362Y-111908333D01*
X196305002Y-111721954D01*
X196499312Y-111437573D01*
X196567672Y-111100000D01*
X196567672Y-109900000D01*
X196508333Y-109584638D01*
X196451000Y-109495540D01*
X196451000Y-109331457D01*
X196549312Y-109187573D01*
X196617672Y-108850000D01*
X196617672Y-107350000D01*
X196558333Y-107034638D01*
X196372665Y-106746103D01*
X196549312Y-106487573D01*
X196617672Y-106150000D01*
X196617672Y-104650000D01*
X196558333Y-104334638D01*
X196371954Y-104044998D01*
X196087573Y-103850688D01*
X195750000Y-103782328D01*
X194450000Y-103782328D01*
X194134638Y-103841667D01*
X193844998Y-104028046D01*
X193679665Y-104270018D01*
X193437746Y-104027677D01*
X193499312Y-103937573D01*
X193567672Y-103600000D01*
X193567672Y-102100000D01*
X193508333Y-101784638D01*
X193363821Y-101560061D01*
X193451748Y-101501748D01*
X193632172Y-101321324D01*
X193660499Y-101467630D01*
G36*
X190532328Y-102818666D02*
X190532328Y-103600000D01*
X190591667Y-103915362D01*
X190704086Y-104090065D01*
X190616047Y-104218913D01*
X190549000Y-104550000D01*
X190549000Y-104558325D01*
X190464573Y-104500638D01*
X190127000Y-104432278D01*
X188873000Y-104432278D01*
X188557638Y-104491617D01*
X188267998Y-104677996D01*
X188073688Y-104962377D01*
X188014500Y-105254658D01*
X187204541Y-104444699D01*
X186766245Y-104151839D01*
X186534418Y-104105726D01*
X186649312Y-103937573D01*
X186717672Y-103600000D01*
X186717672Y-102686421D01*
X186872240Y-102717722D01*
X187080574Y-102717722D01*
X187499240Y-102801000D01*
X187917906Y-102717722D01*
X188126240Y-102717722D01*
X188441602Y-102658383D01*
X188731242Y-102472004D01*
X188925552Y-102187623D01*
X188993912Y-101850050D01*
X188993912Y-101767722D01*
X189481384Y-101767722D01*
X190532328Y-102818666D01*
X190532328Y-102818666D01*
G37*
X190532328Y-102818666D02*
X190532328Y-103600000D01*
X190591667Y-103915362D01*
X190704086Y-104090065D01*
X190616047Y-104218913D01*
X190549000Y-104550000D01*
X190549000Y-104558325D01*
X190464573Y-104500638D01*
X190127000Y-104432278D01*
X188873000Y-104432278D01*
X188557638Y-104491617D01*
X188267998Y-104677996D01*
X188073688Y-104962377D01*
X188014500Y-105254658D01*
X187204541Y-104444699D01*
X186766245Y-104151839D01*
X186534418Y-104105726D01*
X186649312Y-103937573D01*
X186717672Y-103600000D01*
X186717672Y-102686421D01*
X186872240Y-102717722D01*
X187080574Y-102717722D01*
X187499240Y-102801000D01*
X187917906Y-102717722D01*
X188126240Y-102717722D01*
X188441602Y-102658383D01*
X188731242Y-102472004D01*
X188925552Y-102187623D01*
X188993912Y-101850050D01*
X188993912Y-101767722D01*
X189481384Y-101767722D01*
X190532328Y-102818666D01*
G36*
X190482328Y-97568666D02*
X190482328Y-98350000D01*
X190541667Y-98665362D01*
X190701876Y-98914333D01*
X190600688Y-99062427D01*
X190541768Y-99353383D01*
X190464573Y-99300638D01*
X190127000Y-99232278D01*
X188873000Y-99232278D01*
X188557638Y-99291617D01*
X188267998Y-99477996D01*
X188073688Y-99762377D01*
X188014500Y-100054657D01*
X187154541Y-99194699D01*
X186716245Y-98901839D01*
X186528435Y-98864481D01*
X186649312Y-98687573D01*
X186717672Y-98350000D01*
X186717672Y-97506672D01*
X186772240Y-97517722D01*
X186980575Y-97517722D01*
X187399240Y-97600999D01*
X187817905Y-97517722D01*
X188026240Y-97517722D01*
X188341602Y-97458383D01*
X188631242Y-97272004D01*
X188825552Y-96987623D01*
X188893912Y-96650050D01*
X188893912Y-96567722D01*
X189481384Y-96567722D01*
X190482328Y-97568666D01*
X190482328Y-97568666D01*
G37*
X190482328Y-97568666D02*
X190482328Y-98350000D01*
X190541667Y-98665362D01*
X190701876Y-98914333D01*
X190600688Y-99062427D01*
X190541768Y-99353383D01*
X190464573Y-99300638D01*
X190127000Y-99232278D01*
X188873000Y-99232278D01*
X188557638Y-99291617D01*
X188267998Y-99477996D01*
X188073688Y-99762377D01*
X188014500Y-100054657D01*
X187154541Y-99194699D01*
X186716245Y-98901839D01*
X186528435Y-98864481D01*
X186649312Y-98687573D01*
X186717672Y-98350000D01*
X186717672Y-97506672D01*
X186772240Y-97517722D01*
X186980575Y-97517722D01*
X187399240Y-97600999D01*
X187817905Y-97517722D01*
X188026240Y-97517722D01*
X188341602Y-97458383D01*
X188631242Y-97272004D01*
X188825552Y-96987623D01*
X188893912Y-96650050D01*
X188893912Y-96567722D01*
X189481384Y-96567722D01*
X190482328Y-97568666D01*
G36*
X113099000Y-72600275D02*
X113049244Y-72720101D01*
X113048758Y-73277453D01*
X113078544Y-73349540D01*
X113049244Y-73420101D01*
X113048758Y-73977453D01*
X113261598Y-74492566D01*
X113655361Y-74887017D01*
X114170101Y-75100756D01*
X114727453Y-75101242D01*
X115242566Y-74888402D01*
X115637017Y-74494639D01*
X115850756Y-73979899D01*
X115851242Y-73422547D01*
X115821456Y-73350460D01*
X115850756Y-73279899D01*
X115851242Y-72722547D01*
X115801000Y-72600952D01*
X115801000Y-69051000D01*
X155750275Y-69051000D01*
X155870101Y-69100756D01*
X156427453Y-69101242D01*
X156499540Y-69071456D01*
X156570101Y-69100756D01*
X157127453Y-69101242D01*
X157249048Y-69051000D01*
X159140398Y-69051000D01*
X163144699Y-73055301D01*
X163582995Y-73348161D01*
X164100000Y-73451000D01*
X183096614Y-73451000D01*
X183016047Y-73568913D01*
X182949000Y-73900000D01*
X182949000Y-74299924D01*
X182948758Y-74577453D01*
X182962988Y-74611893D01*
X183031713Y-74915972D01*
X183158183Y-75084301D01*
X183161598Y-75092566D01*
X183172896Y-75103884D01*
X183234626Y-75186045D01*
X183374445Y-75310329D01*
X183089613Y-75559557D01*
X182866047Y-75868913D01*
X182799000Y-76200000D01*
X182799000Y-76850000D01*
X182939660Y-77318635D01*
X183177950Y-77558075D01*
X183324045Y-77655472D01*
X183455361Y-77787017D01*
X183970101Y-78000756D01*
X184099567Y-78000869D01*
X184100000Y-78001000D01*
X184167671Y-78001000D01*
X184250000Y-78017672D01*
X185750000Y-78017672D01*
X186065362Y-77958333D01*
X186353897Y-77772665D01*
X186612427Y-77949312D01*
X186950000Y-78017672D01*
X188450000Y-78017672D01*
X188765362Y-77958333D01*
X189055002Y-77771954D01*
X189165186Y-77610695D01*
X189403030Y-77563385D01*
X189776441Y-77313880D01*
X189999000Y-77091321D01*
X189999000Y-77190398D01*
X188957065Y-78232333D01*
X188837573Y-78150688D01*
X188500000Y-78082328D01*
X187000000Y-78082328D01*
X186684638Y-78141667D01*
X186396103Y-78327335D01*
X186137573Y-78150688D01*
X185800000Y-78082328D01*
X184300000Y-78082328D01*
X183984638Y-78141667D01*
X183817838Y-78249000D01*
X180600760Y-78249000D01*
X180182094Y-78332278D01*
X179973760Y-78332278D01*
X179658398Y-78391617D01*
X179368758Y-78577996D01*
X179174448Y-78862377D01*
X179106088Y-79199950D01*
X179106088Y-79282278D01*
X179018666Y-79282278D01*
X178600000Y-79199000D01*
X176895162Y-79199000D01*
X176378157Y-79301839D01*
X176152761Y-79452443D01*
X176300756Y-79096032D01*
X176301242Y-78538680D01*
X176088402Y-78023567D01*
X175694639Y-77629116D01*
X175179899Y-77415377D01*
X174622547Y-77414891D01*
X174500952Y-77465133D01*
X174499725Y-77465133D01*
X174379899Y-77415377D01*
X173822547Y-77414891D01*
X173725398Y-77455032D01*
X173629899Y-77415377D01*
X173072547Y-77414891D01*
X172950952Y-77465133D01*
X171999143Y-77465133D01*
X171870116Y-77152863D01*
X171349876Y-76631714D01*
X170669802Y-76349322D01*
X169933429Y-76348680D01*
X169327608Y-76599000D01*
X163215550Y-76599000D01*
X161734472Y-75117922D01*
X161215070Y-74770869D01*
X160602394Y-74649000D01*
X152100000Y-74649000D01*
X151681082Y-74732328D01*
X151350000Y-74732328D01*
X151034638Y-74791667D01*
X150746103Y-74977335D01*
X150487573Y-74800688D01*
X150150000Y-74732328D01*
X148650000Y-74732328D01*
X148334638Y-74791667D01*
X148167838Y-74899000D01*
X147851000Y-74899000D01*
X147851000Y-73121052D01*
X148005002Y-73021954D01*
X148199312Y-72737573D01*
X148267672Y-72400000D01*
X148267672Y-70600000D01*
X148208333Y-70284638D01*
X148021954Y-69994998D01*
X147737573Y-69800688D01*
X147400000Y-69732328D01*
X145600000Y-69732328D01*
X145284638Y-69791667D01*
X144994998Y-69978046D01*
X144962422Y-70025722D01*
X144953157Y-70016440D01*
X144309823Y-69749305D01*
X143613233Y-69748697D01*
X142969434Y-70014709D01*
X142476440Y-70506843D01*
X142209305Y-71150177D01*
X142208697Y-71846767D01*
X142474709Y-72490566D01*
X142609000Y-72625092D01*
X142609000Y-78532631D01*
X142711839Y-79049636D01*
X143004699Y-79487932D01*
X146165960Y-82649193D01*
X146604256Y-82942053D01*
X147121261Y-83044892D01*
X175751270Y-83044892D01*
X176268275Y-82942053D01*
X176706571Y-82649193D01*
X177454765Y-81901000D01*
X178600000Y-81901000D01*
X179018666Y-81817722D01*
X179227000Y-81817722D01*
X179542362Y-81758383D01*
X179832002Y-81572004D01*
X180026312Y-81287623D01*
X180094672Y-80950050D01*
X180094672Y-80867722D01*
X180182094Y-80867722D01*
X180600760Y-80951000D01*
X183818543Y-80951000D01*
X183962427Y-81049312D01*
X184300000Y-81117672D01*
X185800000Y-81117672D01*
X186115362Y-81058333D01*
X186403897Y-80872665D01*
X186662427Y-81049312D01*
X187000000Y-81117672D01*
X188500000Y-81117672D01*
X188815362Y-81058333D01*
X188982162Y-80951000D01*
X189500000Y-80951000D01*
X190017005Y-80848161D01*
X190455301Y-80555301D01*
X192305301Y-78705301D01*
X192598161Y-78267005D01*
X192701000Y-77750000D01*
X192701000Y-77333575D01*
X192909678Y-77247351D01*
X193304129Y-76853588D01*
X193517868Y-76338848D01*
X193518354Y-75781496D01*
X193437028Y-75584672D01*
X193712000Y-75584672D01*
X193997244Y-75531000D01*
X194603240Y-75531000D01*
X194685517Y-75613277D01*
X194600688Y-75737427D01*
X194532328Y-76075000D01*
X194532328Y-77325000D01*
X194591667Y-77640362D01*
X194778046Y-77930002D01*
X194799000Y-77944319D01*
X194799000Y-79239352D01*
X193998632Y-80039720D01*
X193878719Y-80089267D01*
X193484268Y-80483030D01*
X193438172Y-80594041D01*
X193328720Y-80639266D01*
X192934269Y-81033029D01*
X192888173Y-81144040D01*
X192778721Y-81189265D01*
X192384270Y-81583028D01*
X192170531Y-82097768D01*
X192170045Y-82655120D01*
X192382885Y-83170233D01*
X192776648Y-83564684D01*
X193220530Y-83749000D01*
X189353226Y-83749000D01*
X189221954Y-83544998D01*
X188937573Y-83350688D01*
X188600000Y-83282328D01*
X187100000Y-83282328D01*
X186784638Y-83341667D01*
X186496103Y-83527335D01*
X186237573Y-83350688D01*
X185900000Y-83282328D01*
X184400000Y-83282328D01*
X184084638Y-83341667D01*
X183840137Y-83499000D01*
X180600760Y-83499000D01*
X180182094Y-83582278D01*
X179973760Y-83582278D01*
X179658398Y-83641617D01*
X179368758Y-83827996D01*
X179174448Y-84112377D01*
X179135343Y-84305486D01*
X178600000Y-84199000D01*
X171924529Y-84199000D01*
X171921954Y-84194998D01*
X171637573Y-84000688D01*
X171300000Y-83932328D01*
X169300000Y-83932328D01*
X168984638Y-83991667D01*
X168694998Y-84178046D01*
X168500688Y-84462427D01*
X168432328Y-84800000D01*
X168432328Y-86800000D01*
X168491667Y-87115362D01*
X168678046Y-87405002D01*
X168962427Y-87599312D01*
X169300000Y-87667672D01*
X171300000Y-87667672D01*
X171615362Y-87608333D01*
X171905002Y-87421954D01*
X171919319Y-87401000D01*
X178600000Y-87401000D01*
X179212676Y-87279131D01*
X179732078Y-86932078D01*
X179785733Y-86851777D01*
X179832002Y-86822004D01*
X180026312Y-86537623D01*
X180039648Y-86471766D01*
X180079131Y-86412676D01*
X180137801Y-86117722D01*
X180182094Y-86117722D01*
X180600760Y-86201000D01*
X183991720Y-86201000D01*
X184062427Y-86249312D01*
X184400000Y-86317672D01*
X185900000Y-86317672D01*
X186215362Y-86258333D01*
X186503897Y-86072665D01*
X186762427Y-86249312D01*
X187100000Y-86317672D01*
X188600000Y-86317672D01*
X188915362Y-86258333D01*
X189205002Y-86071954D01*
X189355974Y-85851000D01*
X193644428Y-85851000D01*
X194300599Y-86507172D01*
X194300599Y-89198650D01*
X194380602Y-89600850D01*
X194608430Y-89941819D01*
X195750862Y-91084251D01*
X196091831Y-91312079D01*
X196494031Y-91392082D01*
X197244057Y-91392082D01*
X197232328Y-91450000D01*
X197232328Y-92750000D01*
X197291667Y-93065362D01*
X197478046Y-93355002D01*
X197499000Y-93369319D01*
X197499000Y-93741720D01*
X197450688Y-93812427D01*
X197382328Y-94150000D01*
X197382328Y-95350000D01*
X197441667Y-95665362D01*
X197628046Y-95955002D01*
X197912427Y-96149312D01*
X198250000Y-96217672D01*
X199450000Y-96217672D01*
X199765362Y-96158333D01*
X200055002Y-95971954D01*
X200249312Y-95687573D01*
X200317672Y-95350000D01*
X200317672Y-94150000D01*
X200258333Y-93834638D01*
X200201000Y-93745540D01*
X200201000Y-93374529D01*
X200203897Y-93372665D01*
X200462427Y-93549312D01*
X200800000Y-93617672D01*
X201236573Y-93617672D01*
X201555361Y-93937017D01*
X202070101Y-94150756D01*
X202627453Y-94151242D01*
X203142566Y-93938402D01*
X203537017Y-93544639D01*
X203571633Y-93461274D01*
X203823371Y-93838025D01*
X204395329Y-94220196D01*
X205070000Y-94354396D01*
X205744671Y-94220196D01*
X206316629Y-93838025D01*
X206698800Y-93266067D01*
X206833000Y-92591396D01*
X206833000Y-91808604D01*
X206708823Y-91184321D01*
X207946926Y-91184321D01*
X208349126Y-91104318D01*
X208690095Y-90876490D01*
X208699508Y-90867077D01*
X208521200Y-91133933D01*
X208387000Y-91808604D01*
X208387000Y-92591396D01*
X208521200Y-93266067D01*
X208903371Y-93838025D01*
X208940890Y-93863095D01*
X208918223Y-93879860D01*
X207068223Y-95929860D01*
X207046244Y-95955203D01*
X206052982Y-97147117D01*
X195854014Y-97099009D01*
X195850000Y-97099000D01*
X194450000Y-97099000D01*
X194140698Y-97157199D01*
X193856623Y-97339997D01*
X193666047Y-97618913D01*
X193599000Y-97950000D01*
X193599000Y-98960108D01*
X193482543Y-98830711D01*
X193394397Y-98767943D01*
X193449312Y-98687573D01*
X193517672Y-98350000D01*
X193517672Y-96850000D01*
X193458333Y-96534638D01*
X193320400Y-96320286D01*
X193331615Y-96314519D01*
X193831615Y-95914519D01*
X194083953Y-95581087D01*
X194151000Y-95250000D01*
X194151000Y-94899950D01*
X194151242Y-94622547D01*
X194151000Y-94621961D01*
X194151000Y-94500000D01*
X194020804Y-94047626D01*
X193788016Y-93802834D01*
X193322426Y-93476921D01*
X193349312Y-93437573D01*
X193417672Y-93100000D01*
X193417672Y-91600000D01*
X193358333Y-91284638D01*
X193172665Y-90996103D01*
X193349312Y-90737573D01*
X193417672Y-90400000D01*
X193417672Y-88900000D01*
X193358333Y-88584638D01*
X193301222Y-88495885D01*
X193301242Y-88472547D01*
X193264526Y-88383686D01*
X193261158Y-88369421D01*
X193246605Y-88340314D01*
X193088402Y-87957434D01*
X193021811Y-87890726D01*
X193011158Y-87869421D01*
X192860003Y-87656623D01*
X192581087Y-87466047D01*
X192347059Y-87418655D01*
X192179899Y-87349244D01*
X191622547Y-87348758D01*
X191500952Y-87399000D01*
X191500000Y-87399000D01*
X191242069Y-87439030D01*
X190946877Y-87603273D01*
X190738842Y-87869421D01*
X190488842Y-88369421D01*
X190399000Y-88750000D01*
X190399000Y-88817671D01*
X190389043Y-88866839D01*
X190365333Y-88850638D01*
X190027760Y-88782278D01*
X188773760Y-88782278D01*
X188458398Y-88841617D01*
X188168758Y-89027996D01*
X187974448Y-89312377D01*
X187915260Y-89604658D01*
X187005301Y-88694699D01*
X186567005Y-88401839D01*
X186536844Y-88395840D01*
X186471954Y-88294998D01*
X186187573Y-88100688D01*
X185850000Y-88032328D01*
X184550000Y-88032328D01*
X184234638Y-88091667D01*
X184100602Y-88177917D01*
X183987573Y-88100688D01*
X183650000Y-88032328D01*
X182350000Y-88032328D01*
X182034638Y-88091667D01*
X181744998Y-88278046D01*
X181550688Y-88562427D01*
X181509095Y-88767822D01*
X181227760Y-88710850D01*
X179973760Y-88710850D01*
X179658398Y-88770189D01*
X179368758Y-88956568D01*
X179174448Y-89240949D01*
X179135343Y-89434058D01*
X178600000Y-89327572D01*
X76571428Y-89327572D01*
X75958752Y-89449441D01*
X75439350Y-89796494D01*
X68027922Y-97207922D01*
X67971000Y-97293112D01*
X67971000Y-95274740D01*
X94194741Y-69051000D01*
X113099000Y-69051000D01*
X113099000Y-72600275D01*
X113099000Y-72600275D01*
G37*
X113099000Y-72600275D02*
X113049244Y-72720101D01*
X113048758Y-73277453D01*
X113078544Y-73349540D01*
X113049244Y-73420101D01*
X113048758Y-73977453D01*
X113261598Y-74492566D01*
X113655361Y-74887017D01*
X114170101Y-75100756D01*
X114727453Y-75101242D01*
X115242566Y-74888402D01*
X115637017Y-74494639D01*
X115850756Y-73979899D01*
X115851242Y-73422547D01*
X115821456Y-73350460D01*
X115850756Y-73279899D01*
X115851242Y-72722547D01*
X115801000Y-72600952D01*
X115801000Y-69051000D01*
X155750275Y-69051000D01*
X155870101Y-69100756D01*
X156427453Y-69101242D01*
X156499540Y-69071456D01*
X156570101Y-69100756D01*
X157127453Y-69101242D01*
X157249048Y-69051000D01*
X159140398Y-69051000D01*
X163144699Y-73055301D01*
X163582995Y-73348161D01*
X164100000Y-73451000D01*
X183096614Y-73451000D01*
X183016047Y-73568913D01*
X182949000Y-73900000D01*
X182949000Y-74299924D01*
X182948758Y-74577453D01*
X182962988Y-74611893D01*
X183031713Y-74915972D01*
X183158183Y-75084301D01*
X183161598Y-75092566D01*
X183172896Y-75103884D01*
X183234626Y-75186045D01*
X183374445Y-75310329D01*
X183089613Y-75559557D01*
X182866047Y-75868913D01*
X182799000Y-76200000D01*
X182799000Y-76850000D01*
X182939660Y-77318635D01*
X183177950Y-77558075D01*
X183324045Y-77655472D01*
X183455361Y-77787017D01*
X183970101Y-78000756D01*
X184099567Y-78000869D01*
X184100000Y-78001000D01*
X184167671Y-78001000D01*
X184250000Y-78017672D01*
X185750000Y-78017672D01*
X186065362Y-77958333D01*
X186353897Y-77772665D01*
X186612427Y-77949312D01*
X186950000Y-78017672D01*
X188450000Y-78017672D01*
X188765362Y-77958333D01*
X189055002Y-77771954D01*
X189165186Y-77610695D01*
X189403030Y-77563385D01*
X189776441Y-77313880D01*
X189999000Y-77091321D01*
X189999000Y-77190398D01*
X188957065Y-78232333D01*
X188837573Y-78150688D01*
X188500000Y-78082328D01*
X187000000Y-78082328D01*
X186684638Y-78141667D01*
X186396103Y-78327335D01*
X186137573Y-78150688D01*
X185800000Y-78082328D01*
X184300000Y-78082328D01*
X183984638Y-78141667D01*
X183817838Y-78249000D01*
X180600760Y-78249000D01*
X180182094Y-78332278D01*
X179973760Y-78332278D01*
X179658398Y-78391617D01*
X179368758Y-78577996D01*
X179174448Y-78862377D01*
X179106088Y-79199950D01*
X179106088Y-79282278D01*
X179018666Y-79282278D01*
X178600000Y-79199000D01*
X176895162Y-79199000D01*
X176378157Y-79301839D01*
X176152761Y-79452443D01*
X176300756Y-79096032D01*
X176301242Y-78538680D01*
X176088402Y-78023567D01*
X175694639Y-77629116D01*
X175179899Y-77415377D01*
X174622547Y-77414891D01*
X174500952Y-77465133D01*
X174499725Y-77465133D01*
X174379899Y-77415377D01*
X173822547Y-77414891D01*
X173725398Y-77455032D01*
X173629899Y-77415377D01*
X173072547Y-77414891D01*
X172950952Y-77465133D01*
X171999143Y-77465133D01*
X171870116Y-77152863D01*
X171349876Y-76631714D01*
X170669802Y-76349322D01*
X169933429Y-76348680D01*
X169327608Y-76599000D01*
X163215550Y-76599000D01*
X161734472Y-75117922D01*
X161215070Y-74770869D01*
X160602394Y-74649000D01*
X152100000Y-74649000D01*
X151681082Y-74732328D01*
X151350000Y-74732328D01*
X151034638Y-74791667D01*
X150746103Y-74977335D01*
X150487573Y-74800688D01*
X150150000Y-74732328D01*
X148650000Y-74732328D01*
X148334638Y-74791667D01*
X148167838Y-74899000D01*
X147851000Y-74899000D01*
X147851000Y-73121052D01*
X148005002Y-73021954D01*
X148199312Y-72737573D01*
X148267672Y-72400000D01*
X148267672Y-70600000D01*
X148208333Y-70284638D01*
X148021954Y-69994998D01*
X147737573Y-69800688D01*
X147400000Y-69732328D01*
X145600000Y-69732328D01*
X145284638Y-69791667D01*
X144994998Y-69978046D01*
X144962422Y-70025722D01*
X144953157Y-70016440D01*
X144309823Y-69749305D01*
X143613233Y-69748697D01*
X142969434Y-70014709D01*
X142476440Y-70506843D01*
X142209305Y-71150177D01*
X142208697Y-71846767D01*
X142474709Y-72490566D01*
X142609000Y-72625092D01*
X142609000Y-78532631D01*
X142711839Y-79049636D01*
X143004699Y-79487932D01*
X146165960Y-82649193D01*
X146604256Y-82942053D01*
X147121261Y-83044892D01*
X175751270Y-83044892D01*
X176268275Y-82942053D01*
X176706571Y-82649193D01*
X177454765Y-81901000D01*
X178600000Y-81901000D01*
X179018666Y-81817722D01*
X179227000Y-81817722D01*
X179542362Y-81758383D01*
X179832002Y-81572004D01*
X180026312Y-81287623D01*
X180094672Y-80950050D01*
X180094672Y-80867722D01*
X180182094Y-80867722D01*
X180600760Y-80951000D01*
X183818543Y-80951000D01*
X183962427Y-81049312D01*
X184300000Y-81117672D01*
X185800000Y-81117672D01*
X186115362Y-81058333D01*
X186403897Y-80872665D01*
X186662427Y-81049312D01*
X187000000Y-81117672D01*
X188500000Y-81117672D01*
X188815362Y-81058333D01*
X188982162Y-80951000D01*
X189500000Y-80951000D01*
X190017005Y-80848161D01*
X190455301Y-80555301D01*
X192305301Y-78705301D01*
X192598161Y-78267005D01*
X192701000Y-77750000D01*
X192701000Y-77333575D01*
X192909678Y-77247351D01*
X193304129Y-76853588D01*
X193517868Y-76338848D01*
X193518354Y-75781496D01*
X193437028Y-75584672D01*
X193712000Y-75584672D01*
X193997244Y-75531000D01*
X194603240Y-75531000D01*
X194685517Y-75613277D01*
X194600688Y-75737427D01*
X194532328Y-76075000D01*
X194532328Y-77325000D01*
X194591667Y-77640362D01*
X194778046Y-77930002D01*
X194799000Y-77944319D01*
X194799000Y-79239352D01*
X193998632Y-80039720D01*
X193878719Y-80089267D01*
X193484268Y-80483030D01*
X193438172Y-80594041D01*
X193328720Y-80639266D01*
X192934269Y-81033029D01*
X192888173Y-81144040D01*
X192778721Y-81189265D01*
X192384270Y-81583028D01*
X192170531Y-82097768D01*
X192170045Y-82655120D01*
X192382885Y-83170233D01*
X192776648Y-83564684D01*
X193220530Y-83749000D01*
X189353226Y-83749000D01*
X189221954Y-83544998D01*
X188937573Y-83350688D01*
X188600000Y-83282328D01*
X187100000Y-83282328D01*
X186784638Y-83341667D01*
X186496103Y-83527335D01*
X186237573Y-83350688D01*
X185900000Y-83282328D01*
X184400000Y-83282328D01*
X184084638Y-83341667D01*
X183840137Y-83499000D01*
X180600760Y-83499000D01*
X180182094Y-83582278D01*
X179973760Y-83582278D01*
X179658398Y-83641617D01*
X179368758Y-83827996D01*
X179174448Y-84112377D01*
X179135343Y-84305486D01*
X178600000Y-84199000D01*
X171924529Y-84199000D01*
X171921954Y-84194998D01*
X171637573Y-84000688D01*
X171300000Y-83932328D01*
X169300000Y-83932328D01*
X168984638Y-83991667D01*
X168694998Y-84178046D01*
X168500688Y-84462427D01*
X168432328Y-84800000D01*
X168432328Y-86800000D01*
X168491667Y-87115362D01*
X168678046Y-87405002D01*
X168962427Y-87599312D01*
X169300000Y-87667672D01*
X171300000Y-87667672D01*
X171615362Y-87608333D01*
X171905002Y-87421954D01*
X171919319Y-87401000D01*
X178600000Y-87401000D01*
X179212676Y-87279131D01*
X179732078Y-86932078D01*
X179785733Y-86851777D01*
X179832002Y-86822004D01*
X180026312Y-86537623D01*
X180039648Y-86471766D01*
X180079131Y-86412676D01*
X180137801Y-86117722D01*
X180182094Y-86117722D01*
X180600760Y-86201000D01*
X183991720Y-86201000D01*
X184062427Y-86249312D01*
X184400000Y-86317672D01*
X185900000Y-86317672D01*
X186215362Y-86258333D01*
X186503897Y-86072665D01*
X186762427Y-86249312D01*
X187100000Y-86317672D01*
X188600000Y-86317672D01*
X188915362Y-86258333D01*
X189205002Y-86071954D01*
X189355974Y-85851000D01*
X193644428Y-85851000D01*
X194300599Y-86507172D01*
X194300599Y-89198650D01*
X194380602Y-89600850D01*
X194608430Y-89941819D01*
X195750862Y-91084251D01*
X196091831Y-91312079D01*
X196494031Y-91392082D01*
X197244057Y-91392082D01*
X197232328Y-91450000D01*
X197232328Y-92750000D01*
X197291667Y-93065362D01*
X197478046Y-93355002D01*
X197499000Y-93369319D01*
X197499000Y-93741720D01*
X197450688Y-93812427D01*
X197382328Y-94150000D01*
X197382328Y-95350000D01*
X197441667Y-95665362D01*
X197628046Y-95955002D01*
X197912427Y-96149312D01*
X198250000Y-96217672D01*
X199450000Y-96217672D01*
X199765362Y-96158333D01*
X200055002Y-95971954D01*
X200249312Y-95687573D01*
X200317672Y-95350000D01*
X200317672Y-94150000D01*
X200258333Y-93834638D01*
X200201000Y-93745540D01*
X200201000Y-93374529D01*
X200203897Y-93372665D01*
X200462427Y-93549312D01*
X200800000Y-93617672D01*
X201236573Y-93617672D01*
X201555361Y-93937017D01*
X202070101Y-94150756D01*
X202627453Y-94151242D01*
X203142566Y-93938402D01*
X203537017Y-93544639D01*
X203571633Y-93461274D01*
X203823371Y-93838025D01*
X204395329Y-94220196D01*
X205070000Y-94354396D01*
X205744671Y-94220196D01*
X206316629Y-93838025D01*
X206698800Y-93266067D01*
X206833000Y-92591396D01*
X206833000Y-91808604D01*
X206708823Y-91184321D01*
X207946926Y-91184321D01*
X208349126Y-91104318D01*
X208690095Y-90876490D01*
X208699508Y-90867077D01*
X208521200Y-91133933D01*
X208387000Y-91808604D01*
X208387000Y-92591396D01*
X208521200Y-93266067D01*
X208903371Y-93838025D01*
X208940890Y-93863095D01*
X208918223Y-93879860D01*
X207068223Y-95929860D01*
X207046244Y-95955203D01*
X206052982Y-97147117D01*
X195854014Y-97099009D01*
X195850000Y-97099000D01*
X194450000Y-97099000D01*
X194140698Y-97157199D01*
X193856623Y-97339997D01*
X193666047Y-97618913D01*
X193599000Y-97950000D01*
X193599000Y-98960108D01*
X193482543Y-98830711D01*
X193394397Y-98767943D01*
X193449312Y-98687573D01*
X193517672Y-98350000D01*
X193517672Y-96850000D01*
X193458333Y-96534638D01*
X193320400Y-96320286D01*
X193331615Y-96314519D01*
X193831615Y-95914519D01*
X194083953Y-95581087D01*
X194151000Y-95250000D01*
X194151000Y-94899950D01*
X194151242Y-94622547D01*
X194151000Y-94621961D01*
X194151000Y-94500000D01*
X194020804Y-94047626D01*
X193788016Y-93802834D01*
X193322426Y-93476921D01*
X193349312Y-93437573D01*
X193417672Y-93100000D01*
X193417672Y-91600000D01*
X193358333Y-91284638D01*
X193172665Y-90996103D01*
X193349312Y-90737573D01*
X193417672Y-90400000D01*
X193417672Y-88900000D01*
X193358333Y-88584638D01*
X193301222Y-88495885D01*
X193301242Y-88472547D01*
X193264526Y-88383686D01*
X193261158Y-88369421D01*
X193246605Y-88340314D01*
X193088402Y-87957434D01*
X193021811Y-87890726D01*
X193011158Y-87869421D01*
X192860003Y-87656623D01*
X192581087Y-87466047D01*
X192347059Y-87418655D01*
X192179899Y-87349244D01*
X191622547Y-87348758D01*
X191500952Y-87399000D01*
X191500000Y-87399000D01*
X191242069Y-87439030D01*
X190946877Y-87603273D01*
X190738842Y-87869421D01*
X190488842Y-88369421D01*
X190399000Y-88750000D01*
X190399000Y-88817671D01*
X190389043Y-88866839D01*
X190365333Y-88850638D01*
X190027760Y-88782278D01*
X188773760Y-88782278D01*
X188458398Y-88841617D01*
X188168758Y-89027996D01*
X187974448Y-89312377D01*
X187915260Y-89604658D01*
X187005301Y-88694699D01*
X186567005Y-88401839D01*
X186536844Y-88395840D01*
X186471954Y-88294998D01*
X186187573Y-88100688D01*
X185850000Y-88032328D01*
X184550000Y-88032328D01*
X184234638Y-88091667D01*
X184100602Y-88177917D01*
X183987573Y-88100688D01*
X183650000Y-88032328D01*
X182350000Y-88032328D01*
X182034638Y-88091667D01*
X181744998Y-88278046D01*
X181550688Y-88562427D01*
X181509095Y-88767822D01*
X181227760Y-88710850D01*
X179973760Y-88710850D01*
X179658398Y-88770189D01*
X179368758Y-88956568D01*
X179174448Y-89240949D01*
X179135343Y-89434058D01*
X178600000Y-89327572D01*
X76571428Y-89327572D01*
X75958752Y-89449441D01*
X75439350Y-89796494D01*
X68027922Y-97207922D01*
X67971000Y-97293112D01*
X67971000Y-95274740D01*
X94194741Y-69051000D01*
X113099000Y-69051000D01*
X113099000Y-72600275D01*
G36*
X190382328Y-92318666D02*
X190382328Y-93100000D01*
X190441667Y-93415362D01*
X190626127Y-93702019D01*
X190550688Y-93812427D01*
X190482328Y-94150000D01*
X190482328Y-94181097D01*
X190364573Y-94100638D01*
X190027000Y-94032278D01*
X188773000Y-94032278D01*
X188457638Y-94091617D01*
X188167998Y-94277996D01*
X187973688Y-94562377D01*
X187914500Y-94854658D01*
X187004541Y-93944699D01*
X186566245Y-93651839D01*
X186536956Y-93646013D01*
X186522374Y-93623352D01*
X186649312Y-93437573D01*
X186717672Y-93100000D01*
X186717672Y-92256518D01*
X186773000Y-92267722D01*
X186981335Y-92267722D01*
X187400000Y-92350999D01*
X187818665Y-92267722D01*
X188027000Y-92267722D01*
X188342362Y-92208383D01*
X188632002Y-92022004D01*
X188826312Y-91737623D01*
X188894672Y-91400050D01*
X188894672Y-91317722D01*
X189381384Y-91317722D01*
X190382328Y-92318666D01*
X190382328Y-92318666D01*
G37*
X190382328Y-92318666D02*
X190382328Y-93100000D01*
X190441667Y-93415362D01*
X190626127Y-93702019D01*
X190550688Y-93812427D01*
X190482328Y-94150000D01*
X190482328Y-94181097D01*
X190364573Y-94100638D01*
X190027000Y-94032278D01*
X188773000Y-94032278D01*
X188457638Y-94091617D01*
X188167998Y-94277996D01*
X187973688Y-94562377D01*
X187914500Y-94854658D01*
X187004541Y-93944699D01*
X186566245Y-93651839D01*
X186536956Y-93646013D01*
X186522374Y-93623352D01*
X186649312Y-93437573D01*
X186717672Y-93100000D01*
X186717672Y-92256518D01*
X186773000Y-92267722D01*
X186981335Y-92267722D01*
X187400000Y-92350999D01*
X187818665Y-92267722D01*
X188027000Y-92267722D01*
X188342362Y-92208383D01*
X188632002Y-92022004D01*
X188826312Y-91737623D01*
X188894672Y-91400050D01*
X188894672Y-91317722D01*
X189381384Y-91317722D01*
X190382328Y-92318666D01*
G36*
X169399000Y-59590826D02*
X169490421Y-60050429D01*
X169647905Y-60286120D01*
X169750765Y-60440061D01*
X175659703Y-66349000D01*
X168259602Y-66349000D01*
X163505301Y-61594699D01*
X163067005Y-61301839D01*
X162550000Y-61199000D01*
X160846738Y-61199000D01*
X160878307Y-61177906D01*
X167100839Y-54955374D01*
X169399000Y-54955374D01*
X169399000Y-59590826D01*
X169399000Y-59590826D01*
G37*
X169399000Y-59590826D02*
X169490421Y-60050429D01*
X169647905Y-60286120D01*
X169750765Y-60440061D01*
X175659703Y-66349000D01*
X168259602Y-66349000D01*
X163505301Y-61594699D01*
X163067005Y-61301839D01*
X162550000Y-61199000D01*
X160846738Y-61199000D01*
X160878307Y-61177906D01*
X167100839Y-54955374D01*
X169399000Y-54955374D01*
X169399000Y-59590826D01*
G36*
X143387148Y-52581631D02*
X142584449Y-53382930D01*
X142149496Y-54430413D01*
X142148507Y-55564611D01*
X142581631Y-56612852D01*
X143382930Y-57415551D01*
X144430413Y-57850504D01*
X145564611Y-57851493D01*
X146612852Y-57418369D01*
X147415551Y-56617070D01*
X147850504Y-55569587D01*
X147851493Y-54435389D01*
X147418369Y-53387148D01*
X146617070Y-52584449D01*
X145677901Y-52194472D01*
X170312416Y-52194472D01*
X169953514Y-52553374D01*
X166603369Y-52553374D01*
X166143766Y-52644795D01*
X165891581Y-52813300D01*
X165754134Y-52905139D01*
X159531602Y-59127671D01*
X132404843Y-59127671D01*
X132486026Y-58932161D01*
X132486512Y-58374809D01*
X132273672Y-57859696D01*
X131879909Y-57465245D01*
X131654226Y-57371533D01*
X131653432Y-57369611D01*
X131259669Y-56975160D01*
X130744929Y-56761421D01*
X130187577Y-56760935D01*
X129702954Y-56961177D01*
X117548494Y-56961177D01*
X117706403Y-56929767D01*
X118245919Y-56569274D01*
X118606412Y-56029758D01*
X118733000Y-55393355D01*
X118733000Y-54206645D01*
X118606412Y-53570242D01*
X118271000Y-53068262D01*
X118271000Y-52194472D01*
X144324145Y-52194472D01*
X143387148Y-52581631D01*
X143387148Y-52581631D01*
G37*
X143387148Y-52581631D02*
X142584449Y-53382930D01*
X142149496Y-54430413D01*
X142148507Y-55564611D01*
X142581631Y-56612852D01*
X143382930Y-57415551D01*
X144430413Y-57850504D01*
X145564611Y-57851493D01*
X146612852Y-57418369D01*
X147415551Y-56617070D01*
X147850504Y-55569587D01*
X147851493Y-54435389D01*
X147418369Y-53387148D01*
X146617070Y-52584449D01*
X145677901Y-52194472D01*
X170312416Y-52194472D01*
X169953514Y-52553374D01*
X166603369Y-52553374D01*
X166143766Y-52644795D01*
X165891581Y-52813300D01*
X165754134Y-52905139D01*
X159531602Y-59127671D01*
X132404843Y-59127671D01*
X132486026Y-58932161D01*
X132486512Y-58374809D01*
X132273672Y-57859696D01*
X131879909Y-57465245D01*
X131654226Y-57371533D01*
X131653432Y-57369611D01*
X131259669Y-56975160D01*
X130744929Y-56761421D01*
X130187577Y-56760935D01*
X129702954Y-56961177D01*
X117548494Y-56961177D01*
X117706403Y-56929767D01*
X118245919Y-56569274D01*
X118606412Y-56029758D01*
X118733000Y-55393355D01*
X118733000Y-54206645D01*
X118606412Y-53570242D01*
X118271000Y-53068262D01*
X118271000Y-52194472D01*
X144324145Y-52194472D01*
X143387148Y-52581631D01*
G36*
X105373588Y-53570242D02*
X105247000Y-54206645D01*
X105247000Y-55393355D01*
X105373588Y-56029758D01*
X105734081Y-56569274D01*
X106273597Y-56929767D01*
X106910000Y-57056355D01*
X107546403Y-56929767D01*
X108085919Y-56569274D01*
X108180000Y-56428472D01*
X108249000Y-56531738D01*
X108249000Y-57999000D01*
X84708754Y-57999000D01*
X89306754Y-53401000D01*
X105486672Y-53401000D01*
X105373588Y-53570242D01*
X105373588Y-53570242D01*
G37*
X105373588Y-53570242D02*
X105247000Y-54206645D01*
X105247000Y-55393355D01*
X105373588Y-56029758D01*
X105734081Y-56569274D01*
X106273597Y-56929767D01*
X106910000Y-57056355D01*
X107546403Y-56929767D01*
X108085919Y-56569274D01*
X108180000Y-56428472D01*
X108249000Y-56531738D01*
X108249000Y-57999000D01*
X84708754Y-57999000D01*
X89306754Y-53401000D01*
X105486672Y-53401000D01*
X105373588Y-53570242D01*
G36*
X219664081Y-53030726D02*
X219303588Y-53570242D01*
X219177000Y-54206645D01*
X219177000Y-55393355D01*
X219303588Y-56029758D01*
X219664081Y-56569274D01*
X220203597Y-56929767D01*
X220300288Y-56949000D01*
X183619712Y-56949000D01*
X183716403Y-56929767D01*
X184255919Y-56569274D01*
X184616412Y-56029758D01*
X184743000Y-55393355D01*
X184743000Y-54206645D01*
X184616412Y-53570242D01*
X184331000Y-53143093D01*
X184331000Y-52851000D01*
X219933060Y-52851000D01*
X219664081Y-53030726D01*
X219664081Y-53030726D01*
G37*
X219664081Y-53030726D02*
X219303588Y-53570242D01*
X219177000Y-54206645D01*
X219177000Y-55393355D01*
X219303588Y-56029758D01*
X219664081Y-56569274D01*
X220203597Y-56929767D01*
X220300288Y-56949000D01*
X183619712Y-56949000D01*
X183716403Y-56929767D01*
X184255919Y-56569274D01*
X184616412Y-56029758D01*
X184743000Y-55393355D01*
X184743000Y-54206645D01*
X184616412Y-53570242D01*
X184331000Y-53143093D01*
X184331000Y-52851000D01*
X219933060Y-52851000D01*
X219664081Y-53030726D01*
G36*
X82911814Y-56399000D02*
X70449692Y-56399000D01*
X70696412Y-56029758D01*
X70823000Y-55393355D01*
X70823000Y-54206645D01*
X70696412Y-53570242D01*
X70361000Y-53068262D01*
X70361000Y-52558373D01*
X70724902Y-52194472D01*
X87116342Y-52194472D01*
X82911814Y-56399000D01*
X82911814Y-56399000D01*
G37*
X82911814Y-56399000D02*
X70449692Y-56399000D01*
X70696412Y-56029758D01*
X70823000Y-55393355D01*
X70823000Y-54206645D01*
X70696412Y-53570242D01*
X70361000Y-53068262D01*
X70361000Y-52558373D01*
X70724902Y-52194472D01*
X87116342Y-52194472D01*
X82911814Y-56399000D01*
M02*
