G04 #@! TF.FileFunction,Soldermask,Top*
%FSLAX46Y46*%
G04 Gerber Fmt 4.6, Leading zero omitted, Abs format (unit mm)*
G04 Created by KiCad (PCBNEW 4.0.6) date 01/08/18 11:05:28*
%MOMM*%
%LPD*%
G01*
G04 APERTURE LIST*
%ADD10C,0.100000*%
%ADD11C,4.400000*%
%ADD12R,2.024000X3.124000*%
%ADD13O,2.024000X3.124000*%
%ADD14C,1.924000*%
%ADD15R,2.200000X2.200000*%
%ADD16C,2.200000*%
%ADD17R,3.900120X3.900120*%
%ADD18C,1.920000*%
%ADD19R,1.920000X1.920000*%
%ADD20R,2.400000X2.400000*%
%ADD21C,2.400000*%
%ADD22O,2.024000X2.324000*%
%ADD23O,2.224000X2.724000*%
%ADD24R,2.224000X2.924000*%
%ADD25O,2.224000X2.924000*%
G04 APERTURE END LIST*
D10*
D11*
X145000000Y-55000000D03*
D12*
X59000000Y-115000000D03*
D13*
X61540000Y-115000000D03*
X64080000Y-115000000D03*
X66620000Y-115000000D03*
X69160000Y-115000000D03*
X69160000Y-54800000D03*
X66620000Y-54800000D03*
X64080000Y-54800000D03*
X61540000Y-54800000D03*
X59000000Y-54800000D03*
D12*
X106910000Y-115000000D03*
D13*
X109450000Y-115000000D03*
X111990000Y-115000000D03*
X114530000Y-115000000D03*
X117070000Y-115000000D03*
X117070000Y-54800000D03*
X114530000Y-54800000D03*
X111990000Y-54800000D03*
X109450000Y-54800000D03*
X106910000Y-54800000D03*
D12*
X172920000Y-115000000D03*
D13*
X175460000Y-115000000D03*
X178000000Y-115000000D03*
X180540000Y-115000000D03*
X183080000Y-115000000D03*
X183080000Y-54800000D03*
X180540000Y-54800000D03*
X178000000Y-54800000D03*
X175460000Y-54800000D03*
X172920000Y-54800000D03*
D12*
X220840000Y-115000000D03*
D13*
X223380000Y-115000000D03*
X225920000Y-115000000D03*
X228460000Y-115000000D03*
X231000000Y-115000000D03*
X231000000Y-54800000D03*
X228460000Y-54800000D03*
X225920000Y-54800000D03*
X223380000Y-54800000D03*
X220840000Y-54800000D03*
D14*
X225843371Y-70868729D03*
X230600000Y-65200000D03*
D15*
X146500000Y-71500000D03*
D16*
X143960000Y-71500000D03*
D15*
X146500000Y-98500000D03*
D16*
X143960000Y-98500000D03*
D17*
X238299860Y-110500000D03*
X244299340Y-110500000D03*
X241299600Y-115199000D03*
D18*
X245500000Y-56210000D03*
X245500000Y-53670000D03*
D19*
X245500000Y-58750000D03*
D20*
X170300000Y-85800000D03*
D21*
X170300000Y-78200000D03*
D22*
X245500000Y-94750000D03*
X245500000Y-99250000D03*
D23*
X243000000Y-93500000D03*
X243000000Y-100500000D03*
D22*
X245500000Y-80125000D03*
X245500000Y-84625000D03*
D23*
X243000000Y-78875000D03*
X243000000Y-85875000D03*
D22*
X245500000Y-65500000D03*
X245500000Y-70000000D03*
D23*
X243000000Y-64250000D03*
X243000000Y-71250000D03*
D24*
X212690000Y-92200000D03*
D25*
X210150000Y-92200000D03*
X207610000Y-92200000D03*
X205070000Y-92200000D03*
D11*
X145000000Y-115000000D03*
M02*
