M48
;DRILL file {KiCad 4.0.6} date 01/08/18 11:05:32
;FORMAT={-:-/ absolute / metric / decimal}
FMAT,2
METRIC,TZ
T1C0.600
T2C0.800
T3C0.900
T4C1.000
T5C1.001
T6C1.200
T7C4.000
%
G90
G05
M71
T1
X50.55Y-58.2
X50.55Y-59.058
X50.55Y-59.917
X50.55Y-60.775
X50.55Y-61.633
X50.55Y-62.492
X50.55Y-63.35
X50.6Y-79.05
X50.6Y-79.95
X50.6Y-80.85
X50.6Y-81.75
X50.6Y-82.65
X50.6Y-83.55
X50.6Y-84.45
X50.7Y-104.15
X50.7Y-105.029
X50.7Y-105.907
X50.7Y-106.786
X50.7Y-107.664
X50.7Y-108.543
X50.7Y-109.421
X50.7Y-110.3
X75.8Y-54.55
X76.5Y-54.55
X77.3Y-54.5
X78.15Y-54.45
X86.8Y-56.9
X87.45Y-56.35
X88.1Y-55.8
X92.25Y-101.1
X92.95Y-78.15
X93.05Y-101.1
X93.8Y-78.2
X93.9Y-101.1
X94.7Y-78.1
X94.75Y-101.1
X95.Y-57.05
X95.55Y-78.1
X95.55Y-101.1
X95.75Y-57.05
X96.25Y-78.1
X96.3Y-101.1
X96.6Y-57.05
X97.1Y-78.1
X97.1Y-101.1
X97.4Y-57.
X98.25Y-57.
X99.Y-56.95
X109.45Y-62.55
X110.25Y-62.55
X111.465Y-58.157
X112.094Y-58.146
X112.15Y-65.4
X112.85Y-65.4
X114.45Y-73.
X114.45Y-73.7
X127.7Y-54.9
X128.6Y-54.9
X129.4Y-54.95
X130.35Y-54.95
X130.465Y-58.162
X131.085Y-58.652
X131.25Y-55.
X132.2Y-54.95
X136.3Y-82.55
X136.3Y-83.25
X136.3Y-83.9
X136.3Y-84.8
X136.3Y-85.6
X137.25Y-97.35
X137.3Y-98.2
X137.3Y-99.
X137.3Y-99.9
X137.35Y-96.55
X137.35Y-100.75
X146.5Y-76.3
X150.3Y-62.55
X151.Y-62.55
X153.55Y-65.4
X154.3Y-65.4
X155.294Y-55.068
X156.129Y-55.008
X156.15Y-67.7
X156.45Y-115.5
X156.85Y-67.7
X156.9Y-55.05
X157.3Y-115.45
X157.7Y-55.05
X158.15Y-115.45
X158.45Y-55.1
X159.Y-115.45
X159.25Y-55.1
X159.75Y-115.45
X160.Y-55.05
X160.35Y-85.6
X160.55Y-115.45
X160.85Y-55.05
X160.95Y-85.
X161.65Y-55.05
X166.65Y-57.45
X167.35Y-57.45
X168.722Y-62.131
X168.965Y-62.99
X173.35Y-78.816
X174.1Y-78.816
X174.9Y-78.816
X180.601Y-82.6
X180.601Y-86.75
X180.601Y-91.879
X180.601Y-92.679
X180.601Y-97.129
X180.601Y-97.929
X180.601Y-102.329
X180.601Y-103.1
X180.601Y-107.529
X180.601Y-108.3
X180.616Y-83.317
X181.35Y-86.75
X184.25Y-76.6
X184.35Y-74.3
X184.71Y-63.315
X184.73Y-65.538
X185.Y-74.3
X185.Y-76.5
X185.502Y-65.546
X185.533Y-63.33
X189.4Y-97.2
X189.401Y-91.95
X189.5Y-102.4
X189.5Y-107.6
X189.72Y-88.07
X190.145Y-87.645
X191.35Y-76.45
X191.9Y-88.75
X191.9Y-89.65
X191.929Y-105.629
X192.Y-94.9
X192.05Y-100.15
X192.117Y-76.059
X192.15Y-60.
X192.571Y-105.143
X192.7Y-54.6
X192.75Y-94.9
X192.75Y-100.15
X192.95Y-60.2
X193.571Y-82.378
X193.6Y-54.55
X193.7Y-60.3
X194.121Y-81.828
X194.4Y-54.55
X194.671Y-81.278
X195.1Y-105.4
X195.2Y-54.55
X195.95Y-54.5
X197.3Y-85.7
X197.35Y-86.45
X201.1Y-100.3
X201.1Y-106.4
X201.105Y-99.406
X201.113Y-101.211
X201.55Y-76.45
X201.561Y-84.917
X202.171Y-92.01
X202.35Y-76.45
X202.35Y-92.75
X202.468Y-84.901
X203.318Y-117.543
X204.096Y-117.543
X204.2Y-81.133
X204.907Y-81.271
X205.473Y-89.038
X206.5Y-84.6
X206.55Y-78.25
X206.55Y-78.9
X206.55Y-79.8
X207.169Y-84.324
X207.329Y-88.876
X208.802Y-83.95
X208.802Y-84.728
X208.9Y-107.9
X211.35Y-114.85
X211.805Y-65.546
X211.805Y-66.324
X211.85Y-95.1
X212.05Y-114.85
X212.25Y-74.2
X212.5Y-82.3
X212.6Y-75.
X212.65Y-95.1
X213.013Y-74.255
X213.037Y-83.732
X213.4Y-95.1
X214.307Y-85.077
X215.317Y-86.234
X215.674Y-79.9
X215.9Y-64.2
X216.4Y-87.45
X216.65Y-64.3
X216.931Y-89.795
X217.709Y-89.795
X218.048Y-65.509
X218.611Y-65.66
X219.29Y-69.689
X219.29Y-70.467
X220.151Y-66.549
X220.942Y-66.806
X221.183Y-88.605
X221.5Y-86.65
X221.961Y-88.605
X222.096Y-95.091
X222.746Y-104.102
X222.763Y-104.972
X222.85Y-95.1
X222.85Y-95.1
X224.642Y-77.093
X224.654Y-76.251
X225.4Y-103.05
X225.679Y-85.507
X226.45Y-85.45
X227.5Y-109.931
X228.188Y-109.931
X229.Y-109.9
X237.6Y-72.1
X238.2Y-83.9
X238.25Y-69.4
X238.25Y-95.25
X238.3Y-72.1
X238.496Y-100.722
X238.9Y-87.35
X238.95Y-69.4
X238.95Y-72.1
X238.95Y-83.9
X238.95Y-86.6
X238.95Y-95.25
X239.173Y-101.406
T2
X245.5Y-53.67
X245.5Y-56.21
X245.5Y-58.75
T3
X59.Y-54.8
X59.Y-115.
X61.54Y-54.8
X61.54Y-115.
X64.08Y-54.8
X64.08Y-115.
X66.62Y-54.8
X66.62Y-115.
X69.16Y-54.8
X69.16Y-115.
X106.91Y-54.8
X106.91Y-115.
X109.45Y-54.8
X109.45Y-115.
X111.99Y-54.8
X111.99Y-115.
X114.53Y-54.8
X114.53Y-115.
X117.07Y-54.8
X117.07Y-115.
X143.96Y-71.5
X143.96Y-98.5
X146.5Y-71.5
X146.5Y-98.5
X172.92Y-54.8
X172.92Y-115.
X175.46Y-54.8
X175.46Y-115.
X178.Y-54.8
X178.Y-115.
X180.54Y-54.8
X180.54Y-115.
X183.08Y-54.8
X183.08Y-115.
X220.84Y-54.8
X220.84Y-115.
X223.38Y-54.8
X223.38Y-115.
X225.92Y-54.8
X225.92Y-115.
X228.46Y-54.8
X228.46Y-115.
X231.Y-54.8
X231.Y-115.
X245.5Y-65.5
X245.5Y-70.
X245.5Y-80.125
X245.5Y-84.625
X245.5Y-94.75
X245.5Y-99.25
T4
X170.3Y-78.2
X170.3Y-85.8
X205.07Y-92.2
X207.61Y-92.2
X210.15Y-92.2
X212.69Y-92.2
T6
X225.843Y-70.869
X230.6Y-65.2
X243.Y-64.25
X243.Y-71.25
X243.Y-78.875
X243.Y-85.875
X243.Y-93.5
X243.Y-100.5
T7
X145.Y-55.
X145.Y-115.
T5
X238.3Y-111.499G85X238.3Y-109.501
G05
X242.299Y-115.199G85X240.3Y-115.199
G05
X244.299Y-111.499G85X244.299Y-109.501
G05
T0
M30
